<ttFont>
<head>
    <!-- Most of this table will be recalculated by the compiler -->
    <tableVersion value="1.0"/>
    <fontRevision value="5.0"/>
    <checkSumAdjustment value="0x41a0ac7c"/>
    <magicNumber value="0x5f0f3cf5"/>
    <flags value="00000000 00001011"/>
    <unitsPerEm value="2048"/>
    <created value="Sun May 15 08:57:39 2005"/>
    <modified value="Fri Apr 15 06:42:27 2011"/>
    <xMin value="-81"/>
    <yMin value="-1030"/>
    <xMax value="7544"/>
    <yMax value="2106"/>
    <macStyle value="00000000 00000000"/>
    <lowestRecPPEM value="8"/>
    <fontDirectionHint value="2"/>
    <indexToLocFormat value="1"/>
    <glyphDataFormat value="0"/>
  </head>
    <TTGlyph name=".notdef" xMin="142" yMin="226" xMax="842" yMax="1588">
      <contour>
        <pt x="142" y="226" on="1"/>
        <pt x="142" y="1588" on="1"/>
        <pt x="842" y="1588" on="1"/>
        <pt x="842" y="226" on="1"/>
      </contour>
      <contour>
        <pt x="284" y="368" on="1"/>
        <pt x="700" y="368" on="1"/>
        <pt x="700" y="1447" on="1"/>
        <pt x="284" y="1447" on="1"/>
      </contour>
    </TTGlyph>
    <TTGlyph name=".null" xMin="142" yMin="226" xMax="842" yMax="1588">
      <contour>
        <pt x="142" y="226" on="1"/>
        <pt x="142" y="1588" on="1"/>
        <pt x="842" y="1588" on="1"/>
        <pt x="842" y="226" on="1"/>
      </contour>
      <contour>
        <pt x="284" y="368" on="1"/>
        <pt x="700" y="368" on="1"/>
        <pt x="700" y="1447" on="1"/>
        <pt x="284" y="1447" on="1"/>
      </contour>
    </TTGlyph>
    <TTGlyph name="afii57381" xMin="142" yMin="226" xMax="842" yMax="1588">
      <contour>
        <pt x="142" y="226" on="1"/>
        <pt x="142" y="1588" on="1"/>
        <pt x="842" y="1588" on="1"/>
        <pt x="842" y="226" on="1"/>
      </contour>
      <contour>
        <pt x="284" y="368" on="1"/>
        <pt x="700" y="368" on="1"/>
        <pt x="700" y="1447" on="1"/>
        <pt x="284" y="1447" on="1"/>
      </contour>
    </TTGlyph>
    <TTGlyph name="afii57388" xMin="142" yMin="226" xMax="842" yMax="1588">
      <contour>
        <pt x="142" y="226" on="1"/>
        <pt x="142" y="1588" on="1"/>
        <pt x="842" y="1588" on="1"/>
        <pt x="842" y="226" on="1"/>
      </contour>
      <contour>
        <pt x="284" y="368" on="1"/>
        <pt x="700" y="368" on="1"/>
        <pt x="700" y="1447" on="1"/>
        <pt x="284" y="1447" on="1"/>
      </contour>
    </TTGlyph>
    <TTGlyph name="afii57396" xMin="142" yMin="226" xMax="842" yMax="1588">
      <contour>
        <pt x="142" y="226" on="1"/>
        <pt x="142" y="1588" on="1"/>
        <pt x="842" y="1588" on="1"/>
        <pt x="842" y="226" on="1"/>
      </contour>
      <contour>
        <pt x="284" y="368" on="1"/>
        <pt x="700" y="368" on="1"/>
        <pt x="700" y="1447" on="1"/>
        <pt x="284" y="1447" on="1"/>
      </contour>
    </TTGlyph>
    <TTGlyph name="afii57397" xMin="142" yMin="226" xMax="842" yMax="1588">
      <contour>
        <pt x="142" y="226" on="1"/>
        <pt x="142" y="1588" on="1"/>
        <pt x="842" y="1588" on="1"/>
        <pt x="842" y="226" on="1"/>
      </contour>
      <contour>
        <pt x="284" y="368" on="1"/>
        <pt x="700" y="368" on="1"/>
        <pt x="700" y="1447" on="1"/>
        <pt x="284" y="1447" on="1"/>
      </contour>
    </TTGlyph>
    <TTGlyph name="afii57398" xMin="142" yMin="226" xMax="842" yMax="1588">
      <contour>
        <pt x="142" y="226" on="1"/>
        <pt x="142" y="1588" on="1"/>
        <pt x="842" y="1588" on="1"/>
        <pt x="842" y="226" on="1"/>
      </contour>
      <contour>
        <pt x="284" y="368" on="1"/>
        <pt x="700" y="368" on="1"/>
        <pt x="700" y="1447" on="1"/>
        <pt x="284" y="1447" on="1"/>
      </contour>
    </TTGlyph>
    <TTGlyph name="afii57403" xMin="142" yMin="226" xMax="842" yMax="1588">
      <contour>
        <pt x="142" y="226" on="1"/>
        <pt x="142" y="1588" on="1"/>
        <pt x="842" y="1588" on="1"/>
        <pt x="842" y="226" on="1"/>
      </contour>
      <contour>
        <pt x="284" y="368" on="1"/>
        <pt x="700" y="368" on="1"/>
        <pt x="700" y="1447" on="1"/>
        <pt x="284" y="1447" on="1"/>
      </contour>
    </TTGlyph>
    <TTGlyph name="afii57407" xMin="142" yMin="226" xMax="842" yMax="1588">
      <contour>
        <pt x="142" y="226" on="1"/>
        <pt x="142" y="1588" on="1"/>
        <pt x="842" y="1588" on="1"/>
        <pt x="842" y="226" on="1"/>
      </contour>
      <contour>
        <pt x="284" y="368" on="1"/>
        <pt x="700" y="368" on="1"/>
        <pt x="700" y="1447" on="1"/>
        <pt x="284" y="1447" on="1"/>
      </contour>
    </TTGlyph>
    <TTGlyph name="afii57440" xMin="142" yMin="226" xMax="842" yMax="1588">
      <contour>
        <pt x="142" y="226" on="1"/>
        <pt x="142" y="1588" on="1"/>
        <pt x="842" y="1588" on="1"/>
        <pt x="842" y="226" on="1"/>
      </contour>
      <contour>
        <pt x="284" y="368" on="1"/>
        <pt x="700" y="368" on="1"/>
        <pt x="700" y="1447" on="1"/>
        <pt x="284" y="1447" on="1"/>
      </contour>
    </TTGlyph>
    <TTGlyph name="afii57451" xMin="142" yMin="226" xMax="842" yMax="1588">
      <contour>
        <pt x="142" y="226" on="1"/>
        <pt x="142" y="1588" on="1"/>
        <pt x="842" y="1588" on="1"/>
        <pt x="842" y="226" on="1"/>
      </contour>
      <contour>
        <pt x="284" y="368" on="1"/>
        <pt x="700" y="368" on="1"/>
        <pt x="700" y="1447" on="1"/>
        <pt x="284" y="1447" on="1"/>
      </contour>
    </TTGlyph>
    <TTGlyph name="afii57452" xMin="142" yMin="226" xMax="842" yMax="1588">
      <contour>
        <pt x="142" y="226" on="1"/>
        <pt x="142" y="1588" on="1"/>
        <pt x="842" y="1588" on="1"/>
        <pt x="842" y="226" on="1"/>
      </contour>
      <contour>
        <pt x="284" y="368" on="1"/>
        <pt x="700" y="368" on="1"/>
        <pt x="700" y="1447" on="1"/>
        <pt x="284" y="1447" on="1"/>
      </contour>
    </TTGlyph>
    <TTGlyph name="afii57453" xMin="142" yMin="226" xMax="842" yMax="1588">
      <contour>
        <pt x="142" y="226" on="1"/>
        <pt x="142" y="1588" on="1"/>
        <pt x="842" y="1588" on="1"/>
        <pt x="842" y="226" on="1"/>
      </contour>
      <contour>
        <pt x="284" y="368" on="1"/>
        <pt x="700" y="368" on="1"/>
        <pt x="700" y="1447" on="1"/>
        <pt x="284" y="1447" on="1"/>
      </contour>
    </TTGlyph>
    <TTGlyph name="afii57454" xMin="142" yMin="226" xMax="842" yMax="1588">
      <contour>
        <pt x="142" y="226" on="1"/>
        <pt x="142" y="1588" on="1"/>
        <pt x="842" y="1588" on="1"/>
        <pt x="842" y="226" on="1"/>
      </contour>
      <contour>
        <pt x="284" y="368" on="1"/>
        <pt x="700" y="368" on="1"/>
        <pt x="700" y="1447" on="1"/>
        <pt x="284" y="1447" on="1"/>
      </contour>
    </TTGlyph>
    <TTGlyph name="afii57455" xMin="142" yMin="226" xMax="842" yMax="1588">
      <contour>
        <pt x="142" y="226" on="1"/>
        <pt x="142" y="1588" on="1"/>
        <pt x="842" y="1588" on="1"/>
        <pt x="842" y="226" on="1"/>
      </contour>
      <contour>
        <pt x="284" y="368" on="1"/>
        <pt x="700" y="368" on="1"/>
        <pt x="700" y="1447" on="1"/>
        <pt x="284" y="1447" on="1"/>
      </contour>
    </TTGlyph>
    <TTGlyph name="afii57456" xMin="142" yMin="226" xMax="842" yMax="1588">
      <contour>
        <pt x="142" y="226" on="1"/>
        <pt x="142" y="1588" on="1"/>
        <pt x="842" y="1588" on="1"/>
        <pt x="842" y="226" on="1"/>
      </contour>
      <contour>
        <pt x="284" y="368" on="1"/>
        <pt x="700" y="368" on="1"/>
        <pt x="700" y="1447" on="1"/>
        <pt x="284" y="1447" on="1"/>
      </contour>
    </TTGlyph>
    <TTGlyph name="afii57457" xMin="142" yMin="226" xMax="842" yMax="1588">
      <contour>
        <pt x="142" y="226" on="1"/>
        <pt x="142" y="1588" on="1"/>
        <pt x="842" y="1588" on="1"/>
        <pt x="842" y="226" on="1"/>
      </contour>
      <contour>
        <pt x="284" y="368" on="1"/>
        <pt x="700" y="368" on="1"/>
        <pt x="700" y="1447" on="1"/>
        <pt x="284" y="1447" on="1"/>
      </contour>
    </TTGlyph>
    <TTGlyph name="afii57458" xMin="142" yMin="226" xMax="842" yMax="1588">
      <contour>
        <pt x="142" y="226" on="1"/>
        <pt x="142" y="1588" on="1"/>
        <pt x="842" y="1588" on="1"/>
        <pt x="842" y="226" on="1"/>
      </contour>
      <contour>
        <pt x="284" y="368" on="1"/>
        <pt x="700" y="368" on="1"/>
        <pt x="700" y="1447" on="1"/>
        <pt x="284" y="1447" on="1"/>
      </contour>
    </TTGlyph>
    <TTGlyph name="afii57505" xMin="142" yMin="226" xMax="842" yMax="1588">
      <contour>
        <pt x="142" y="226" on="1"/>
        <pt x="142" y="1588" on="1"/>
        <pt x="842" y="1588" on="1"/>
        <pt x="842" y="226" on="1"/>
      </contour>
      <contour>
        <pt x="284" y="368" on="1"/>
        <pt x="700" y="368" on="1"/>
        <pt x="700" y="1447" on="1"/>
        <pt x="284" y="1447" on="1"/>
      </contour>
    </TTGlyph>
    <TTGlyph name="afii57506" xMin="142" yMin="226" xMax="842" yMax="1588">
      <contour>
        <pt x="142" y="226" on="1"/>
        <pt x="142" y="1588" on="1"/>
        <pt x="842" y="1588" on="1"/>
        <pt x="842" y="226" on="1"/>
      </contour>
      <contour>
        <pt x="284" y="368" on="1"/>
        <pt x="700" y="368" on="1"/>
        <pt x="700" y="1447" on="1"/>
        <pt x="284" y="1447" on="1"/>
      </contour>
    </TTGlyph>
    <TTGlyph name="afii57507" xMin="142" yMin="226" xMax="842" yMax="1588">
      <contour>
        <pt x="142" y="226" on="1"/>
        <pt x="142" y="1588" on="1"/>
        <pt x="842" y="1588" on="1"/>
        <pt x="842" y="226" on="1"/>
      </contour>
      <contour>
        <pt x="284" y="368" on="1"/>
        <pt x="700" y="368" on="1"/>
        <pt x="700" y="1447" on="1"/>
        <pt x="284" y="1447" on="1"/>
      </contour>
    </TTGlyph>
    <TTGlyph name="afii57508" xMin="142" yMin="226" xMax="842" yMax="1588">
      <contour>
        <pt x="142" y="226" on="1"/>
        <pt x="142" y="1588" on="1"/>
        <pt x="842" y="1588" on="1"/>
        <pt x="842" y="226" on="1"/>
      </contour>
      <contour>
        <pt x="284" y="368" on="1"/>
        <pt x="700" y="368" on="1"/>
        <pt x="700" y="1447" on="1"/>
        <pt x="284" y="1447" on="1"/>
      </contour>
    </TTGlyph>
    <TTGlyph name="afii57509" xMin="142" yMin="226" xMax="842" yMax="1588">
      <contour>
        <pt x="142" y="226" on="1"/>
        <pt x="142" y="1588" on="1"/>
        <pt x="842" y="1588" on="1"/>
        <pt x="842" y="226" on="1"/>
      </contour>
      <contour>
        <pt x="284" y="368" on="1"/>
        <pt x="700" y="368" on="1"/>
        <pt x="700" y="1447" on="1"/>
        <pt x="284" y="1447" on="1"/>
      </contour>
    </TTGlyph>
    <TTGlyph name="afii57511" xMin="142" yMin="226" xMax="842" yMax="1588">
      <contour>
        <pt x="142" y="226" on="1"/>
        <pt x="142" y="1588" on="1"/>
        <pt x="842" y="1588" on="1"/>
        <pt x="842" y="226" on="1"/>
      </contour>
      <contour>
        <pt x="284" y="368" on="1"/>
        <pt x="700" y="368" on="1"/>
        <pt x="700" y="1447" on="1"/>
        <pt x="284" y="1447" on="1"/>
      </contour>
    </TTGlyph>
    <TTGlyph name="afii57512" xMin="142" yMin="226" xMax="842" yMax="1588">
      <contour>
        <pt x="142" y="226" on="1"/>
        <pt x="142" y="1588" on="1"/>
        <pt x="842" y="1588" on="1"/>
        <pt x="842" y="226" on="1"/>
      </contour>
      <contour>
        <pt x="284" y="368" on="1"/>
        <pt x="700" y="368" on="1"/>
        <pt x="700" y="1447" on="1"/>
        <pt x="284" y="1447" on="1"/>
      </contour>
    </TTGlyph>
    <TTGlyph name="afii57513" xMin="142" yMin="226" xMax="842" yMax="1588">
      <contour>
        <pt x="142" y="226" on="1"/>
        <pt x="142" y="1588" on="1"/>
        <pt x="842" y="1588" on="1"/>
        <pt x="842" y="226" on="1"/>
      </contour>
      <contour>
        <pt x="284" y="368" on="1"/>
        <pt x="700" y="368" on="1"/>
        <pt x="700" y="1447" on="1"/>
        <pt x="284" y="1447" on="1"/>
      </contour>
    </TTGlyph>
    <TTGlyph name="afii57514" xMin="142" yMin="226" xMax="842" yMax="1588">
      <contour>
        <pt x="142" y="226" on="1"/>
        <pt x="142" y="1588" on="1"/>
        <pt x="842" y="1588" on="1"/>
        <pt x="842" y="226" on="1"/>
      </contour>
      <contour>
        <pt x="284" y="368" on="1"/>
        <pt x="700" y="368" on="1"/>
        <pt x="700" y="1447" on="1"/>
        <pt x="284" y="1447" on="1"/>
      </contour>
    </TTGlyph>
    <TTGlyph name="afii57519" xMin="142" yMin="226" xMax="842" yMax="1588">
      <contour>
        <pt x="142" y="226" on="1"/>
        <pt x="142" y="1588" on="1"/>
        <pt x="842" y="1588" on="1"/>
        <pt x="842" y="226" on="1"/>
      </contour>
      <contour>
        <pt x="284" y="368" on="1"/>
        <pt x="700" y="368" on="1"/>
        <pt x="700" y="1447" on="1"/>
        <pt x="284" y="1447" on="1"/>
      </contour>
    </TTGlyph>
    <TTGlyph name="afii57534" xMin="142" yMin="226" xMax="842" yMax="1588">
      <contour>
        <pt x="142" y="226" on="1"/>
        <pt x="142" y="1588" on="1"/>
        <pt x="842" y="1588" on="1"/>
        <pt x="842" y="226" on="1"/>
      </contour>
      <contour>
        <pt x="284" y="368" on="1"/>
        <pt x="700" y="368" on="1"/>
        <pt x="700" y="1447" on="1"/>
        <pt x="284" y="1447" on="1"/>
      </contour>
    </TTGlyph>
    <TTGlyph name="afii63167" xMin="142" yMin="226" xMax="842" yMax="1588">
      <contour>
        <pt x="142" y="226" on="1"/>
        <pt x="142" y="1588" on="1"/>
        <pt x="842" y="1588" on="1"/>
        <pt x="842" y="226" on="1"/>
      </contour>
      <contour>
        <pt x="284" y="368" on="1"/>
        <pt x="700" y="368" on="1"/>
        <pt x="700" y="1447" on="1"/>
        <pt x="284" y="1447" on="1"/>
      </contour>
    </TTGlyph>
    <TTGlyph name="alefmaksurainitial" xMin="142" yMin="226" xMax="842" yMax="1588">
      <contour>
        <pt x="142" y="226" on="1"/>
        <pt x="142" y="1588" on="1"/>
        <pt x="842" y="1588" on="1"/>
        <pt x="842" y="226" on="1"/>
      </contour>
      <contour>
        <pt x="284" y="368" on="1"/>
        <pt x="700" y="368" on="1"/>
        <pt x="700" y="1447" on="1"/>
        <pt x="284" y="1447" on="1"/>
      </contour>
    </TTGlyph>
    <TTGlyph name="alefwaslafinalarabic" xMin="142" yMin="226" xMax="842" yMax="1588">
      <contour>
        <pt x="142" y="226" on="1"/>
        <pt x="142" y="1588" on="1"/>
        <pt x="842" y="1588" on="1"/>
        <pt x="842" y="226" on="1"/>
      </contour>
      <contour>
        <pt x="284" y="368" on="1"/>
        <pt x="700" y="368" on="1"/>
        <pt x="700" y="1447" on="1"/>
        <pt x="284" y="1447" on="1"/>
      </contour>
    </TTGlyph>
    <TTGlyph name="ampersand" xMin="142" yMin="226" xMax="842" yMax="1588">
      <contour>
        <pt x="142" y="226" on="1"/>
        <pt x="142" y="1588" on="1"/>
        <pt x="842" y="1588" on="1"/>
        <pt x="842" y="226" on="1"/>
      </contour>
      <contour>
        <pt x="284" y="368" on="1"/>
        <pt x="700" y="368" on="1"/>
        <pt x="700" y="1447" on="1"/>
        <pt x="284" y="1447" on="1"/>
      </contour>
    </TTGlyph>
    <TTGlyph name="asterisk" xMin="142" yMin="226" xMax="842" yMax="1588">
      <contour>
        <pt x="142" y="226" on="1"/>
        <pt x="142" y="1588" on="1"/>
        <pt x="842" y="1588" on="1"/>
        <pt x="842" y="226" on="1"/>
      </contour>
      <contour>
        <pt x="284" y="368" on="1"/>
        <pt x="700" y="368" on="1"/>
        <pt x="700" y="1447" on="1"/>
        <pt x="284" y="1447" on="1"/>
      </contour>
    </TTGlyph>
    <TTGlyph name="behmeemisolatedarabic" xMin="142" yMin="226" xMax="842" yMax="1588">
      <contour>
        <pt x="142" y="226" on="1"/>
        <pt x="142" y="1588" on="1"/>
        <pt x="842" y="1588" on="1"/>
        <pt x="842" y="226" on="1"/>
      </contour>
      <contour>
        <pt x="284" y="368" on="1"/>
        <pt x="700" y="368" on="1"/>
        <pt x="700" y="1447" on="1"/>
        <pt x="284" y="1447" on="1"/>
      </contour>
    </TTGlyph>
    <TTGlyph name="behnoonfinalarabic" xMin="142" yMin="226" xMax="842" yMax="1588">
      <contour>
        <pt x="142" y="226" on="1"/>
        <pt x="142" y="1588" on="1"/>
        <pt x="842" y="1588" on="1"/>
        <pt x="842" y="226" on="1"/>
      </contour>
      <contour>
        <pt x="284" y="368" on="1"/>
        <pt x="700" y="368" on="1"/>
        <pt x="700" y="1447" on="1"/>
        <pt x="284" y="1447" on="1"/>
      </contour>
    </TTGlyph>
    <TTGlyph name="colon" xMin="142" yMin="226" xMax="842" yMax="1588">
      <contour>
        <pt x="142" y="226" on="1"/>
        <pt x="142" y="1588" on="1"/>
        <pt x="842" y="1588" on="1"/>
        <pt x="842" y="226" on="1"/>
      </contour>
      <contour>
        <pt x="284" y="368" on="1"/>
        <pt x="700" y="368" on="1"/>
        <pt x="700" y="1447" on="1"/>
        <pt x="284" y="1447" on="1"/>
      </contour>
    </TTGlyph>
    <TTGlyph name="dagger" xMin="142" yMin="226" xMax="842" yMax="1588">
      <contour>
        <pt x="142" y="226" on="1"/>
        <pt x="142" y="1588" on="1"/>
        <pt x="842" y="1588" on="1"/>
        <pt x="842" y="226" on="1"/>
      </contour>
      <contour>
        <pt x="284" y="368" on="1"/>
        <pt x="700" y="368" on="1"/>
        <pt x="700" y="1447" on="1"/>
        <pt x="284" y="1447" on="1"/>
      </contour>
    </TTGlyph>
    <TTGlyph name="dalringfinal" xMin="142" yMin="226" xMax="842" yMax="1588">
      <contour>
        <pt x="142" y="226" on="1"/>
        <pt x="142" y="1588" on="1"/>
        <pt x="842" y="1588" on="1"/>
        <pt x="842" y="226" on="1"/>
      </contour>
      <contour>
        <pt x="284" y="368" on="1"/>
        <pt x="700" y="368" on="1"/>
        <pt x="700" y="1447" on="1"/>
        <pt x="284" y="1447" on="1"/>
      </contour>
    </TTGlyph>
    <TTGlyph name="ddalfinalarabic" xMin="142" yMin="226" xMax="842" yMax="1588">
      <contour>
        <pt x="142" y="226" on="1"/>
        <pt x="142" y="1588" on="1"/>
        <pt x="842" y="1588" on="1"/>
        <pt x="842" y="226" on="1"/>
      </contour>
      <contour>
        <pt x="284" y="368" on="1"/>
        <pt x="700" y="368" on="1"/>
        <pt x="700" y="1447" on="1"/>
        <pt x="284" y="1447" on="1"/>
      </contour>
    </TTGlyph>
    <TTGlyph name="divide" xMin="142" yMin="226" xMax="842" yMax="1588">
      <contour>
        <pt x="142" y="226" on="1"/>
        <pt x="142" y="1588" on="1"/>
        <pt x="842" y="1588" on="1"/>
        <pt x="842" y="226" on="1"/>
      </contour>
      <contour>
        <pt x="284" y="368" on="1"/>
        <pt x="700" y="368" on="1"/>
        <pt x="700" y="1447" on="1"/>
        <pt x="284" y="1447" on="1"/>
      </contour>
    </TTGlyph>
    <TTGlyph name="dollar" xMin="142" yMin="226" xMax="842" yMax="1588">
      <contour>
        <pt x="142" y="226" on="1"/>
        <pt x="142" y="1588" on="1"/>
        <pt x="842" y="1588" on="1"/>
        <pt x="842" y="226" on="1"/>
      </contour>
      <contour>
        <pt x="284" y="368" on="1"/>
        <pt x="700" y="368" on="1"/>
        <pt x="700" y="1447" on="1"/>
        <pt x="284" y="1447" on="1"/>
      </contour>
    </TTGlyph>
    <TTGlyph name="dotlessyehfinalarabic" xMin="142" yMin="226" xMax="842" yMax="1588">
      <contour>
        <pt x="142" y="226" on="1"/>
        <pt x="142" y="1588" on="1"/>
        <pt x="842" y="1588" on="1"/>
        <pt x="842" y="226" on="1"/>
      </contour>
      <contour>
        <pt x="284" y="368" on="1"/>
        <pt x="700" y="368" on="1"/>
        <pt x="700" y="1447" on="1"/>
        <pt x="284" y="1447" on="1"/>
      </contour>
    </TTGlyph>
    <TTGlyph name="dotlessyehinitialarabic" xMin="142" yMin="226" xMax="842" yMax="1588">
      <contour>
        <pt x="142" y="226" on="1"/>
        <pt x="142" y="1588" on="1"/>
        <pt x="842" y="1588" on="1"/>
        <pt x="842" y="226" on="1"/>
      </contour>
      <contour>
        <pt x="284" y="368" on="1"/>
        <pt x="700" y="368" on="1"/>
        <pt x="700" y="1447" on="1"/>
        <pt x="284" y="1447" on="1"/>
      </contour>
    </TTGlyph>
    <TTGlyph name="dotlessyehmedialarabic" xMin="142" yMin="226" xMax="842" yMax="1588">
      <contour>
        <pt x="142" y="226" on="1"/>
        <pt x="142" y="1588" on="1"/>
        <pt x="842" y="1588" on="1"/>
        <pt x="842" y="226" on="1"/>
      </contour>
      <contour>
        <pt x="284" y="368" on="1"/>
        <pt x="700" y="368" on="1"/>
        <pt x="700" y="1447" on="1"/>
        <pt x="284" y="1447" on="1"/>
      </contour>
    </TTGlyph>
    <TTGlyph name="elefmaksuramedial" xMin="142" yMin="226" xMax="842" yMax="1588">
      <contour>
        <pt x="142" y="226" on="1"/>
        <pt x="142" y="1588" on="1"/>
        <pt x="842" y="1588" on="1"/>
        <pt x="842" y="226" on="1"/>
      </contour>
      <contour>
        <pt x="284" y="368" on="1"/>
        <pt x="700" y="368" on="1"/>
        <pt x="700" y="1447" on="1"/>
        <pt x="284" y="1447" on="1"/>
      </contour>
    </TTGlyph>
    <TTGlyph name="ellipsis" xMin="142" yMin="226" xMax="842" yMax="1588">
      <contour>
        <pt x="142" y="226" on="1"/>
        <pt x="142" y="1588" on="1"/>
        <pt x="842" y="1588" on="1"/>
        <pt x="842" y="226" on="1"/>
      </contour>
      <contour>
        <pt x="284" y="368" on="1"/>
        <pt x="700" y="368" on="1"/>
        <pt x="700" y="1447" on="1"/>
        <pt x="284" y="1447" on="1"/>
      </contour>
    </TTGlyph>
    <TTGlyph name="emdash" xMin="407" yMin="-505" xMax="2455" yMax="1674">
      <contour>
        <pt x="2383" y="1362" on="1"/>
        <pt x="2384" y="1338" on="0"/>
        <pt x="2326" y="1294" on="1"/>
        <pt x="2295" y="1273" on="0"/>
        <pt x="2263" y="1252" on="1"/>
        <pt x="2176" y="1193" on="0"/>
        <pt x="1999" y="1072" on="1"/>
        <pt x="1999" y="1140" on="1"/>
        <pt x="2016" y="1166" on="0"/>
        <pt x="2057" y="1210" on="1"/>
        <pt x="2160" y="1279" on="0"/>
        <pt x="2364" y="1419" on="1"/>
        <pt x="2376" y="1407" on="0"/>
        <pt x="2383" y="1407" on="1"/>
      </contour>
      <contour>
        <pt x="1667" y="1617" on="1"/>
        <pt x="1658" y="1600" on="0"/>
        <pt x="1642" y="1576" on="1"/>
        <pt x="1629" y="1566" on="0"/>
        <pt x="1463" y="1448" on="1"/>
        <pt x="1351" y="1368" on="0"/>
        <pt x="1339" y="1368" on="1"/>
        <pt x="1299" y="1368" on="1"/>
        <pt x="1296" y="1377" on="0"/>
        <pt x="1289" y="1393" on="1"/>
        <pt x="1313" y="1451" on="0"/>
        <pt x="1330" y="1466" on="1"/>
        <pt x="1426" y="1546" on="0"/>
        <pt x="1657" y="1674" on="1"/>
      </contour>
      <contour>
        <pt x="2155" y="938" on="1"/>
        <pt x="2155" y="858" on="0"/>
        <pt x="2029" y="794" on="1"/>
        <pt x="1929" y="743" on="0"/>
        <pt x="1880" y="743" on="1"/>
        <pt x="1871" y="743" on="0"/>
        <pt x="1796" y="774" on="0"/>
        <pt x="1786" y="774" on="1"/>
        <pt x="1775" y="774" on="0"/>
        <pt x="1749" y="747" on="1"/>
        <pt x="1720" y="717" on="0"/>
        <pt x="1710" y="713" on="1"/>
        <pt x="1699" y="727" on="0"/>
        <pt x="1699" y="748" on="1"/>
        <pt x="1699" y="795" on="0"/>
        <pt x="1740" y="843" on="1"/>
        <pt x="1778" y="886" on="0"/>
        <pt x="1801" y="886" on="1"/>
        <pt x="1810" y="886" on="0"/>
        <pt x="1886" y="856" on="0"/>
        <pt x="1896" y="856" on="1"/>
        <pt x="1977" y="856" on="0"/>
        <pt x="2033" y="893" on="1"/>
        <pt x="2085" y="931" on="0"/>
        <pt x="2136" y="968" on="1"/>
        <pt x="2143" y="963" on="0"/>
        <pt x="2155" y="954" on="0"/>
      </contour>
      <contour>
        <pt x="2384" y="247" on="1"/>
        <pt x="2384" y="251" on="0"/>
        <pt x="2354" y="122" on="1"/>
        <pt x="2347" y="93" on="0"/>
        <pt x="2346" y="88" on="1"/>
        <pt x="2338" y="66" on="0"/>
        <pt x="2326" y="60" on="1"/>
        <pt x="2170" y="-14" on="0"/>
        <pt x="1966" y="-14" on="1"/>
        <pt x="1822" y="-14" on="1"/>
        <pt x="1736" y="-14" on="0"/>
        <pt x="1702" y="-5" on="1"/>
        <pt x="1626" y="13" on="0"/>
        <pt x="1599" y="80" on="1"/>
        <pt x="1586" y="113" on="0"/>
        <pt x="1577" y="215" on="1"/>
        <pt x="1558" y="464" on="0"/>
        <pt x="1546" y="666" on="1"/>
        <pt x="1531" y="768" on="0"/>
        <pt x="1512" y="973" on="1"/>
        <pt x="1511" y="979" on="0"/>
        <pt x="1534" y="1094" on="1"/>
        <pt x="1523" y="1102" on="0"/>
        <pt x="1496" y="1095" on="1"/>
        <pt x="1469" y="1090" on="0"/>
        <pt x="1459" y="1081" on="1"/>
        <pt x="1433" y="1081" on="1"/>
        <pt x="1433" y="1108" on="0"/>
        <pt x="1428" y="1157" on="1"/>
        <pt x="1426" y="1163" on="0"/>
        <pt x="1416" y="1185" on="1"/>
        <pt x="1407" y="1205" on="0"/>
        <pt x="1407" y="1219" on="1"/>
        <pt x="1407" y="1253" on="0"/>
        <pt x="1462" y="1325" on="1"/>
        <pt x="1518" y="1398" on="0"/>
        <pt x="1553" y="1398" on="1"/>
        <pt x="1571" y="1398" on="0"/>
        <pt x="1594" y="1375" on="1"/>
        <pt x="1620" y="1350" on="0"/>
        <pt x="1620" y="1321" on="1"/>
        <pt x="1620" y="1299" on="0"/>
        <pt x="1589" y="1261" on="1"/>
        <pt x="1609" y="1239" on="0"/>
        <pt x="1646" y="1241" on="1"/>
        <pt x="1689" y="1243" on="0"/>
        <pt x="1706" y="1232" on="1"/>
        <pt x="1704" y="1198" on="0"/>
        <pt x="1660" y="1169" on="1"/>
        <pt x="1598" y="1127" on="0"/>
        <pt x="1588" y="1117" on="1"/>
        <pt x="1590" y="1072" on="0"/>
        <pt x="1633" y="544" on="1"/>
        <pt x="1641" y="429" on="0"/>
        <pt x="1649" y="315" on="1"/>
        <pt x="1660" y="219" on="0"/>
        <pt x="1695" y="182" on="1"/>
        <pt x="1736" y="139" on="0"/>
        <pt x="1836" y="139" on="1"/>
        <pt x="1845" y="139" on="0"/>
        <pt x="2023" y="149" on="0"/>
        <pt x="2033" y="149" on="1"/>
        <pt x="2290" y="149" on="0"/>
        <pt x="2290" y="237" on="1"/>
        <pt x="2290" y="248" on="0"/>
        <pt x="2218" y="383" on="0"/>
        <pt x="2218" y="395" on="1"/>
        <pt x="2218" y="442" on="0"/>
        <pt x="2253" y="507" on="1"/>
        <pt x="2280" y="507" on="1"/>
        <pt x="2384" y="362" on="0"/>
      </contour>
      <contour>
        <pt x="2022" y="462" on="1"/>
        <pt x="2022" y="404" on="0"/>
        <pt x="1986" y="354" on="1"/>
        <pt x="1973" y="376" on="0"/>
        <pt x="1957" y="433" on="1"/>
        <pt x="1936" y="512" on="0"/>
        <pt x="1929" y="530" on="0"/>
        <pt x="1899" y="578" on="1"/>
        <pt x="1873" y="621" on="0"/>
        <pt x="1873" y="636" on="1"/>
        <pt x="1873" y="652" on="0"/>
        <pt x="1883" y="679" on="1"/>
        <pt x="1898" y="713" on="0"/>
        <pt x="1915" y="713" on="1"/>
        <pt x="1973" y="713" on="0"/>
        <pt x="2019" y="514" on="1"/>
        <pt x="2022" y="501" on="0"/>
      </contour>
      <contour>
        <pt x="2455" y="-219" on="1"/>
        <pt x="2455" y="-241" on="0"/>
        <pt x="2402" y="-331" on="0"/>
        <pt x="2384" y="-331" on="1"/>
        <pt x="2376" y="-331" on="0"/>
        <pt x="2331" y="-301" on="0"/>
        <pt x="2321" y="-301" on="1"/>
        <pt x="2311" y="-301" on="0"/>
        <pt x="2244" y="-352" on="0"/>
        <pt x="2234" y="-352" on="1"/>
        <pt x="2210" y="-352" on="0"/>
        <pt x="2181" y="-315" on="1"/>
        <pt x="2155" y="-283" on="0"/>
        <pt x="2155" y="-270" on="1"/>
        <pt x="2155" y="-253" on="0"/>
        <pt x="2217" y="-167" on="0"/>
        <pt x="2230" y="-167" on="1"/>
        <pt x="2239" y="-167" on="0"/>
        <pt x="2284" y="-208" on="0"/>
        <pt x="2297" y="-208" on="1"/>
        <pt x="2309" y="-208" on="0"/>
        <pt x="2370" y="-147" on="0"/>
        <pt x="2380" y="-147" on="1"/>
        <pt x="2396" y="-147" on="0"/>
        <pt x="2455" y="-200" on="0"/>
      </contour>
      <contour>
        <pt x="1242" y="1189" on="1"/>
        <pt x="1242" y="1132" on="0"/>
        <pt x="1206" y="1132" on="1"/>
        <pt x="1196" y="1132" on="0"/>
        <pt x="1177" y="1153" on="0"/>
        <pt x="1167" y="1153" on="1"/>
        <pt x="1167" y="1153" on="0"/>
        <pt x="933" y="969" on="0"/>
        <pt x="882" y="969" on="1"/>
        <pt x="849" y="969" on="1"/>
        <pt x="849" y="987" on="0"/>
        <pt x="851" y="997" on="1"/>
        <pt x="858" y="1004" on="0"/>
        <pt x="976" y="1094" on="1"/>
        <pt x="1056" y="1156" on="0"/>
        <pt x="1092" y="1210" on="1"/>
        <pt x="1089" y="1231" on="0"/>
        <pt x="1061" y="1260" on="1"/>
        <pt x="1037" y="1285" on="0"/>
        <pt x="1037" y="1337" on="1"/>
        <pt x="1037" y="1387" on="0"/>
        <pt x="1072" y="1443" on="1"/>
        <pt x="1110" y="1501" on="0"/>
        <pt x="1151" y="1501" on="1"/>
        <pt x="1214" y="1501" on="0"/>
        <pt x="1214" y="1362" on="1"/>
        <pt x="1214" y="1255" on="0"/>
        <pt x="1213" y="1271" on="1"/>
        <pt x="1213" y="1264" on="0"/>
        <pt x="1242" y="1208" on="0"/>
      </contour>
      <contour>
        <pt x="982" y="1547" on="1"/>
        <pt x="982" y="1496" on="0"/>
        <pt x="949" y="1473" on="1"/>
        <pt x="842" y="1405" on="0"/>
        <pt x="632" y="1256" on="1"/>
        <pt x="605" y="1256" on="1"/>
        <pt x="596" y="1257" on="0"/>
        <pt x="596" y="1280" on="1"/>
        <pt x="596" y="1332" on="0"/>
        <pt x="746" y="1438" on="1"/>
        <pt x="841" y="1505" on="0"/>
        <pt x="938" y="1572" on="1"/>
        <pt x="972" y="1572" on="1"/>
        <pt x="982" y="1570" on="0"/>
      </contour>
      <contour>
        <pt x="1297" y="866" on="1"/>
        <pt x="1297" y="727" on="0"/>
        <pt x="1152" y="688" on="1"/>
        <pt x="1144" y="686" on="0"/>
        <pt x="1106" y="651" on="0"/>
        <pt x="1096" y="651" on="1"/>
        <pt x="1037" y="651" on="0"/>
        <pt x="1037" y="748" on="1"/>
        <pt x="1037" y="805" on="0"/>
        <pt x="1063" y="854" on="1"/>
        <pt x="1092" y="854" on="1"/>
        <pt x="1092" y="793" on="1"/>
        <pt x="1093" y="793" on="0"/>
        <pt x="1105" y="784" on="0"/>
        <pt x="1116" y="784" on="1"/>
        <pt x="1127" y="784" on="0"/>
        <pt x="1148" y="825" on="1"/>
        <pt x="1180" y="886" on="0"/>
        <pt x="1186" y="897" on="1"/>
        <pt x="1193" y="871" on="0"/>
        <pt x="1214" y="825" on="1"/>
        <pt x="1229" y="861" on="0"/>
        <pt x="1269" y="927" on="1"/>
        <pt x="1297" y="909" on="0"/>
      </contour>
      <contour>
        <pt x="1368" y="206" on="1"/>
        <pt x="1368" y="175" on="0"/>
        <pt x="1318" y="88" on="1"/>
        <pt x="1316" y="89" on="0"/>
        <pt x="1259" y="132" on="1"/>
        <pt x="1222" y="160" on="0"/>
        <pt x="1210" y="160" on="1"/>
        <pt x="1170" y="160" on="0"/>
        <pt x="1093" y="110" on="1"/>
        <pt x="1026" y="66" on="0"/>
        <pt x="1012" y="45" on="1"/>
        <pt x="976" y="-11" on="0"/>
        <pt x="960" y="-102" on="1"/>
        <pt x="957" y="-118" on="0"/>
        <pt x="957" y="-139" on="1"/>
        <pt x="957" y="-173" on="0"/>
        <pt x="966" y="-234" on="1"/>
        <pt x="977" y="-310" on="0"/>
        <pt x="979" y="-326" on="1"/>
        <pt x="982" y="-357" on="0"/>
        <pt x="901" y="-505" on="1"/>
        <pt x="873" y="-505" on="1"/>
        <pt x="823" y="-418" on="0"/>
        <pt x="796" y="-214" on="1"/>
        <pt x="798" y="-169" on="0"/>
        <pt x="798" y="-72" on="1"/>
        <pt x="792" y="-58" on="0"/>
        <pt x="780" y="-38" on="1"/>
        <pt x="752" y="-36" on="0"/>
        <pt x="655" y="-18" on="1"/>
        <pt x="537" y="4" on="0"/>
        <pt x="503" y="169" on="1"/>
        <pt x="484" y="315" on="0"/>
        <pt x="465" y="460" on="1"/>
        <pt x="463" y="464" on="0"/>
        <pt x="470" y="502" on="0"/>
        <pt x="470" y="513" on="1"/>
        <pt x="407" y="1128" on="1"/>
        <pt x="415" y="1166" on="0"/>
        <pt x="440" y="1234" on="1"/>
        <pt x="464" y="1234" on="0"/>
        <pt x="475" y="1212" on="1"/>
        <pt x="500" y="1119" on="0"/>
        <pt x="515" y="905" on="1"/>
        <pt x="525" y="725" on="0"/>
        <pt x="535" y="546" on="1"/>
        <pt x="545" y="496" on="0"/>
        <pt x="559" y="401" on="1"/>
        <pt x="569" y="259" on="0"/>
        <pt x="613" y="188" on="1"/>
        <pt x="635" y="153" on="0"/>
        <pt x="696" y="131" on="1"/>
        <pt x="702" y="129" on="0"/>
        <pt x="742" y="129" on="1"/>
        <pt x="812" y="129" on="0"/>
        <pt x="852" y="171" on="1"/>
        <pt x="859" y="178" on="0"/>
        <pt x="952" y="313" on="1"/>
        <pt x="987" y="313" on="1"/>
        <pt x="998" y="300" on="0"/>
        <pt x="998" y="283" on="1"/>
        <pt x="998" y="258" on="0"/>
        <pt x="951" y="143" on="1"/>
        <pt x="906" y="34" on="0"/>
        <pt x="895" y="20" on="1"/>
        <pt x="900" y="-24" on="1"/>
        <pt x="1015" y="207" on="0"/>
        <pt x="1126" y="268" on="1"/>
        <pt x="1209" y="313" on="0"/>
        <pt x="1258" y="313" on="1"/>
        <pt x="1288" y="313" on="0"/>
        <pt x="1326" y="279" on="1"/>
        <pt x="1368" y="242" on="0"/>
      </contour>
      <contour>
        <pt x="1439" y="-352" on="1"/>
        <pt x="1439" y="-380" on="0"/>
        <pt x="1392" y="-454" on="0"/>
        <pt x="1372" y="-454" on="1"/>
        <pt x="1364" y="-454" on="0"/>
        <pt x="1312" y="-424" on="0"/>
        <pt x="1301" y="-424" on="1"/>
        <pt x="1293" y="-424" on="0"/>
        <pt x="1243" y="-485" on="0"/>
        <pt x="1222" y="-485" on="1"/>
        <pt x="1208" y="-485" on="0"/>
        <pt x="1172" y="-452" on="1"/>
        <pt x="1132" y="-412" on="0"/>
        <pt x="1132" y="-377" on="1"/>
        <pt x="1132" y="-360" on="0"/>
        <pt x="1193" y="-280" on="0"/>
        <pt x="1206" y="-280" on="1"/>
        <pt x="1215" y="-280" on="0"/>
        <pt x="1280" y="-342" on="0"/>
        <pt x="1289" y="-342" on="1"/>
        <pt x="1297" y="-342" on="0"/>
        <pt x="1350" y="-260" on="0"/>
        <pt x="1360" y="-260" on="1"/>
        <pt x="1385" y="-260" on="0"/>
        <pt x="1413" y="-302" on="1"/>
        <pt x="1439" y="-339" on="0"/>
      </contour>
      <contour>
        <pt x="1548" y="1250" on="1"/>
        <pt x="1548" y="1268" on="1"/>
        <pt x="1511" y="1280" on="1"/>
        <pt x="1511" y="1262" on="1"/>
      </contour>
    </TTGlyph>
    <TTGlyph name="endash" xMin="407" yMin="-505" xMax="1431" yMax="1674">
      <contour>
        <pt x="1395" y="1362" on="1"/>
        <pt x="1396" y="1338" on="0"/>
        <pt x="1366" y="1294" on="1"/>
        <pt x="1351" y="1273" on="0"/>
        <pt x="1335" y="1252" on="1"/>
        <pt x="1291" y="1193" on="0"/>
        <pt x="1203" y="1072" on="1"/>
        <pt x="1203" y="1140" on="1"/>
        <pt x="1212" y="1166" on="0"/>
        <pt x="1232" y="1210" on="1"/>
        <pt x="1283" y="1279" on="0"/>
        <pt x="1386" y="1419" on="1"/>
        <pt x="1391" y="1407" on="0"/>
        <pt x="1395" y="1407" on="1"/>
      </contour>
      <contour>
        <pt x="1037" y="1617" on="1"/>
        <pt x="1032" y="1600" on="0"/>
        <pt x="1024" y="1576" on="1"/>
        <pt x="1018" y="1566" on="0"/>
        <pt x="935" y="1448" on="1"/>
        <pt x="879" y="1368" on="0"/>
        <pt x="873" y="1368" on="1"/>
        <pt x="853" y="1368" on="1"/>
        <pt x="852" y="1377" on="0"/>
        <pt x="848" y="1393" on="1"/>
        <pt x="860" y="1451" on="0"/>
        <pt x="869" y="1466" on="1"/>
        <pt x="917" y="1546" on="0"/>
        <pt x="1032" y="1674" on="1"/>
      </contour>
      <contour>
        <pt x="1281" y="938" on="1"/>
        <pt x="1281" y="858" on="0"/>
        <pt x="1218" y="794" on="1"/>
        <pt x="1168" y="743" on="0"/>
        <pt x="1143" y="743" on="1"/>
        <pt x="1139" y="743" on="0"/>
        <pt x="1101" y="774" on="0"/>
        <pt x="1096" y="774" on="1"/>
        <pt x="1091" y="774" on="0"/>
        <pt x="1078" y="747" on="1"/>
        <pt x="1064" y="717" on="0"/>
        <pt x="1058" y="713" on="1"/>
        <pt x="1053" y="727" on="0"/>
        <pt x="1053" y="748" on="1"/>
        <pt x="1053" y="795" on="0"/>
        <pt x="1074" y="843" on="1"/>
        <pt x="1092" y="886" on="0"/>
        <pt x="1104" y="886" on="1"/>
        <pt x="1109" y="886" on="0"/>
        <pt x="1146" y="856" on="0"/>
        <pt x="1151" y="856" on="1"/>
        <pt x="1192" y="856" on="0"/>
        <pt x="1220" y="893" on="1"/>
        <pt x="1246" y="931" on="0"/>
        <pt x="1272" y="968" on="1"/>
        <pt x="1275" y="963" on="0"/>
        <pt x="1281" y="954" on="0"/>
      </contour>
      <contour>
        <pt x="1396" y="247" on="1"/>
        <pt x="1396" y="251" on="0"/>
        <pt x="1381" y="122" on="1"/>
        <pt x="1377" y="93" on="0"/>
        <pt x="1376" y="88" on="1"/>
        <pt x="1373" y="66" on="0"/>
        <pt x="1366" y="60" on="1"/>
        <pt x="1289" y="-14" on="0"/>
        <pt x="1186" y="-14" on="1"/>
        <pt x="1114" y="-14" on="1"/>
        <pt x="1072" y="-14" on="0"/>
        <pt x="1054" y="-5" on="1"/>
        <pt x="1016" y="13" on="0"/>
        <pt x="1003" y="80" on="1"/>
        <pt x="996" y="113" on="0"/>
        <pt x="992" y="215" on="1"/>
        <pt x="982" y="464" on="0"/>
        <pt x="976" y="666" on="1"/>
        <pt x="969" y="768" on="0"/>
        <pt x="959" y="973" on="1"/>
        <pt x="959" y="979" on="0"/>
        <pt x="971" y="1094" on="1"/>
        <pt x="965" y="1102" on="0"/>
        <pt x="951" y="1095" on="1"/>
        <pt x="938" y="1090" on="0"/>
        <pt x="933" y="1081" on="1"/>
        <pt x="920" y="1081" on="1"/>
        <pt x="920" y="1108" on="0"/>
        <pt x="917" y="1157" on="1"/>
        <pt x="917" y="1163" on="0"/>
        <pt x="912" y="1185" on="1"/>
        <pt x="907" y="1205" on="0"/>
        <pt x="907" y="1219" on="1"/>
        <pt x="907" y="1253" on="0"/>
        <pt x="934" y="1325" on="1"/>
        <pt x="962" y="1398" on="0"/>
        <pt x="980" y="1398" on="1"/>
        <pt x="989" y="1398" on="0"/>
        <pt x="1001" y="1375" on="1"/>
        <pt x="1014" y="1350" on="0"/>
        <pt x="1014" y="1321" on="1"/>
        <pt x="1014" y="1299" on="0"/>
        <pt x="998" y="1261" on="1"/>
        <pt x="1008" y="1239" on="0"/>
        <pt x="1027" y="1241" on="1"/>
        <pt x="1048" y="1243" on="0"/>
        <pt x="1056" y="1232" on="1"/>
        <pt x="1056" y="1198" on="0"/>
        <pt x="1034" y="1169" on="1"/>
        <pt x="1002" y="1127" on="0"/>
        <pt x="997" y="1117" on="1"/>
        <pt x="999" y="1072" on="0"/>
        <pt x="1020" y="544" on="1"/>
        <pt x="1024" y="429" on="0"/>
        <pt x="1028" y="315" on="1"/>
        <pt x="1034" y="219" on="0"/>
        <pt x="1051" y="182" on="1"/>
        <pt x="1072" y="139" on="0"/>
        <pt x="1122" y="139" on="1"/>
        <pt x="1126" y="139" on="0"/>
        <pt x="1215" y="149" on="0"/>
        <pt x="1220" y="149" on="1"/>
        <pt x="1348" y="149" on="0"/>
        <pt x="1348" y="237" on="1"/>
        <pt x="1348" y="248" on="0"/>
        <pt x="1313" y="383" on="0"/>
        <pt x="1313" y="395" on="1"/>
        <pt x="1313" y="442" on="0"/>
        <pt x="1330" y="507" on="1"/>
        <pt x="1343" y="507" on="1"/>
        <pt x="1396" y="362" on="0"/>
      </contour>
      <contour>
        <pt x="1214" y="462" on="1"/>
        <pt x="1214" y="404" on="0"/>
        <pt x="1196" y="354" on="1"/>
        <pt x="1190" y="376" on="0"/>
        <pt x="1182" y="433" on="1"/>
        <pt x="1171" y="512" on="0"/>
        <pt x="1168" y="530" on="0"/>
        <pt x="1153" y="578" on="1"/>
        <pt x="1140" y="621" on="0"/>
        <pt x="1140" y="636" on="1"/>
        <pt x="1140" y="652" on="0"/>
        <pt x="1145" y="679" on="1"/>
        <pt x="1152" y="713" on="0"/>
        <pt x="1161" y="713" on="1"/>
        <pt x="1190" y="713" on="0"/>
        <pt x="1213" y="514" on="1"/>
        <pt x="1214" y="501" on="0"/>
      </contour>
      <contour>
        <pt x="1431" y="-219" on="1"/>
        <pt x="1431" y="-241" on="0"/>
        <pt x="1404" y="-331" on="0"/>
        <pt x="1396" y="-331" on="1"/>
        <pt x="1391" y="-331" on="0"/>
        <pt x="1369" y="-301" on="0"/>
        <pt x="1364" y="-301" on="1"/>
        <pt x="1359" y="-301" on="0"/>
        <pt x="1326" y="-352" on="0"/>
        <pt x="1321" y="-352" on="1"/>
        <pt x="1309" y="-352" on="0"/>
        <pt x="1294" y="-315" on="1"/>
        <pt x="1281" y="-283" on="0"/>
        <pt x="1281" y="-270" on="1"/>
        <pt x="1281" y="-253" on="0"/>
        <pt x="1312" y="-167" on="0"/>
        <pt x="1319" y="-167" on="1"/>
        <pt x="1323" y="-167" on="0"/>
        <pt x="1346" y="-208" on="0"/>
        <pt x="1352" y="-208" on="1"/>
        <pt x="1358" y="-208" on="0"/>
        <pt x="1389" y="-147" on="0"/>
        <pt x="1394" y="-147" on="1"/>
        <pt x="1401" y="-147" on="0"/>
        <pt x="1431" y="-200" on="0"/>
      </contour>
      <contour>
        <pt x="824" y="1189" on="1"/>
        <pt x="824" y="1132" on="0"/>
        <pt x="807" y="1132" on="1"/>
        <pt x="802" y="1132" on="0"/>
        <pt x="792" y="1153" on="0"/>
        <pt x="787" y="1153" on="1"/>
        <pt x="787" y="1153" on="0"/>
        <pt x="670" y="969" on="0"/>
        <pt x="645" y="969" on="1"/>
        <pt x="628" y="969" on="1"/>
        <pt x="628" y="987" on="0"/>
        <pt x="629" y="997" on="1"/>
        <pt x="632" y="1004" on="0"/>
        <pt x="692" y="1094" on="1"/>
        <pt x="732" y="1156" on="0"/>
        <pt x="749" y="1210" on="1"/>
        <pt x="748" y="1231" on="0"/>
        <pt x="734" y="1260" on="1"/>
        <pt x="722" y="1285" on="0"/>
        <pt x="722" y="1337" on="1"/>
        <pt x="722" y="1387" on="0"/>
        <pt x="740" y="1443" on="1"/>
        <pt x="759" y="1501" on="0"/>
        <pt x="779" y="1501" on="1"/>
        <pt x="811" y="1501" on="0"/>
        <pt x="811" y="1362" on="1"/>
        <pt x="811" y="1255" on="0"/>
        <pt x="810" y="1271" on="1"/>
        <pt x="810" y="1264" on="0"/>
        <pt x="824" y="1208" on="0"/>
      </contour>
      <contour>
        <pt x="694" y="1547" on="1"/>
        <pt x="694" y="1496" on="0"/>
        <pt x="678" y="1473" on="1"/>
        <pt x="624" y="1405" on="0"/>
        <pt x="520" y="1256" on="1"/>
        <pt x="506" y="1256" on="1"/>
        <pt x="502" y="1257" on="0"/>
        <pt x="502" y="1280" on="1"/>
        <pt x="502" y="1332" on="0"/>
        <pt x="576" y="1438" on="1"/>
        <pt x="624" y="1505" on="0"/>
        <pt x="672" y="1572" on="1"/>
        <pt x="690" y="1572" on="1"/>
        <pt x="694" y="1570" on="0"/>
      </contour>
      <contour>
        <pt x="852" y="866" on="1"/>
        <pt x="852" y="727" on="0"/>
        <pt x="779" y="688" on="1"/>
        <pt x="776" y="686" on="0"/>
        <pt x="757" y="651" on="0"/>
        <pt x="751" y="651" on="1"/>
        <pt x="722" y="651" on="0"/>
        <pt x="722" y="748" on="1"/>
        <pt x="722" y="805" on="0"/>
        <pt x="735" y="854" on="1"/>
        <pt x="749" y="854" on="1"/>
        <pt x="749" y="793" on="1"/>
        <pt x="750" y="793" on="0"/>
        <pt x="756" y="784" on="0"/>
        <pt x="762" y="784" on="1"/>
        <pt x="767" y="784" on="0"/>
        <pt x="777" y="825" on="1"/>
        <pt x="794" y="886" on="0"/>
        <pt x="797" y="897" on="1"/>
        <pt x="800" y="871" on="0"/>
        <pt x="811" y="825" on="1"/>
        <pt x="818" y="861" on="0"/>
        <pt x="838" y="927" on="1"/>
        <pt x="852" y="909" on="0"/>
      </contour>
      <contour>
        <pt x="887" y="206" on="1"/>
        <pt x="887" y="175" on="0"/>
        <pt x="862" y="88" on="1"/>
        <pt x="862" y="89" on="0"/>
        <pt x="833" y="132" on="1"/>
        <pt x="814" y="160" on="0"/>
        <pt x="809" y="160" on="1"/>
        <pt x="789" y="160" on="0"/>
        <pt x="750" y="110" on="1"/>
        <pt x="717" y="66" on="0"/>
        <pt x="710" y="45" on="1"/>
        <pt x="692" y="-11" on="0"/>
        <pt x="684" y="-102" on="1"/>
        <pt x="682" y="-118" on="0"/>
        <pt x="682" y="-139" on="1"/>
        <pt x="682" y="-173" on="0"/>
        <pt x="687" y="-234" on="1"/>
        <pt x="692" y="-310" on="0"/>
        <pt x="693" y="-326" on="1"/>
        <pt x="694" y="-357" on="0"/>
        <pt x="654" y="-505" on="1"/>
        <pt x="640" y="-505" on="1"/>
        <pt x="615" y="-418" on="0"/>
        <pt x="601" y="-214" on="1"/>
        <pt x="602" y="-169" on="0"/>
        <pt x="602" y="-72" on="1"/>
        <pt x="600" y="-58" on="0"/>
        <pt x="594" y="-38" on="1"/>
        <pt x="580" y="-36" on="0"/>
        <pt x="531" y="-18" on="1"/>
        <pt x="472" y="4" on="0"/>
        <pt x="455" y="169" on="1"/>
        <pt x="445" y="315" on="0"/>
        <pt x="436" y="460" on="1"/>
        <pt x="435" y="464" on="0"/>
        <pt x="439" y="502" on="0"/>
        <pt x="439" y="513" on="1"/>
        <pt x="407" y="1128" on="1"/>
        <pt x="411" y="1166" on="0"/>
        <pt x="424" y="1234" on="1"/>
        <pt x="435" y="1234" on="0"/>
        <pt x="441" y="1212" on="1"/>
        <pt x="454" y="1119" on="0"/>
        <pt x="461" y="905" on="1"/>
        <pt x="466" y="725" on="0"/>
        <pt x="471" y="546" on="1"/>
        <pt x="476" y="496" on="0"/>
        <pt x="483" y="401" on="1"/>
        <pt x="488" y="259" on="0"/>
        <pt x="510" y="188" on="1"/>
        <pt x="521" y="153" on="0"/>
        <pt x="551" y="131" on="1"/>
        <pt x="554" y="129" on="0"/>
        <pt x="574" y="129" on="1"/>
        <pt x="610" y="129" on="0"/>
        <pt x="630" y="171" on="1"/>
        <pt x="633" y="178" on="0"/>
        <pt x="680" y="313" on="1"/>
        <pt x="697" y="313" on="1"/>
        <pt x="702" y="300" on="0"/>
        <pt x="702" y="283" on="1"/>
        <pt x="702" y="258" on="0"/>
        <pt x="679" y="143" on="1"/>
        <pt x="657" y="34" on="0"/>
        <pt x="651" y="20" on="1"/>
        <pt x="654" y="-24" on="1"/>
        <pt x="711" y="207" on="0"/>
        <pt x="767" y="268" on="1"/>
        <pt x="808" y="313" on="0"/>
        <pt x="832" y="313" on="1"/>
        <pt x="847" y="313" on="0"/>
        <pt x="867" y="279" on="1"/>
        <pt x="887" y="242" on="0"/>
      </contour>
      <contour>
        <pt x="923" y="-352" on="1"/>
        <pt x="923" y="-380" on="0"/>
        <pt x="899" y="-454" on="0"/>
        <pt x="889" y="-454" on="1"/>
        <pt x="886" y="-454" on="0"/>
        <pt x="859" y="-424" on="0"/>
        <pt x="854" y="-424" on="1"/>
        <pt x="850" y="-424" on="0"/>
        <pt x="825" y="-485" on="0"/>
        <pt x="814" y="-485" on="1"/>
        <pt x="807" y="-485" on="0"/>
        <pt x="790" y="-452" on="1"/>
        <pt x="769" y="-412" on="0"/>
        <pt x="769" y="-377" on="1"/>
        <pt x="769" y="-360" on="0"/>
        <pt x="800" y="-280" on="0"/>
        <pt x="807" y="-280" on="1"/>
        <pt x="811" y="-280" on="0"/>
        <pt x="844" y="-342" on="0"/>
        <pt x="848" y="-342" on="1"/>
        <pt x="852" y="-342" on="0"/>
        <pt x="879" y="-260" on="0"/>
        <pt x="884" y="-260" on="1"/>
        <pt x="896" y="-260" on="0"/>
        <pt x="910" y="-302" on="1"/>
        <pt x="923" y="-339" on="0"/>
      </contour>
      <contour>
        <pt x="977" y="1250" on="1"/>
        <pt x="977" y="1268" on="1"/>
        <pt x="959" y="1280" on="1"/>
        <pt x="959" y="1262" on="1"/>
      </contour>
    </TTGlyph>
    <TTGlyph name="equal" xMin="142" yMin="226" xMax="842" yMax="1588">
      <contour>
        <pt x="142" y="226" on="1"/>
        <pt x="142" y="1588" on="1"/>
        <pt x="842" y="1588" on="1"/>
        <pt x="842" y="226" on="1"/>
      </contour>
      <contour>
        <pt x="284" y="368" on="1"/>
        <pt x="700" y="368" on="1"/>
        <pt x="700" y="1447" on="1"/>
        <pt x="284" y="1447" on="1"/>
      </contour>
    </TTGlyph>
    <TTGlyph name="exclam" xMin="142" yMin="226" xMax="842" yMax="1588">
      <contour>
        <pt x="142" y="226" on="1"/>
        <pt x="142" y="1588" on="1"/>
        <pt x="842" y="1588" on="1"/>
        <pt x="842" y="226" on="1"/>
      </contour>
      <contour>
        <pt x="284" y="368" on="1"/>
        <pt x="700" y="368" on="1"/>
        <pt x="700" y="1447" on="1"/>
        <pt x="284" y="1447" on="1"/>
      </contour>
    </TTGlyph>
    <TTGlyph name="figuredash" xMin="407" yMin="-505" xMax="3069" yMax="1674">
      <contour>
        <pt x="2976" y="1362" on="1"/>
        <pt x="2977" y="1338" on="0"/>
        <pt x="2901" y="1294" on="1"/>
        <pt x="2861" y="1273" on="0"/>
        <pt x="2820" y="1252" on="1"/>
        <pt x="2706" y="1193" on="0"/>
        <pt x="2476" y="1072" on="1"/>
        <pt x="2476" y="1140" on="1"/>
        <pt x="2499" y="1166" on="0"/>
        <pt x="2552" y="1210" on="1"/>
        <pt x="2685" y="1279" on="0"/>
        <pt x="2951" y="1419" on="1"/>
        <pt x="2966" y="1407" on="0"/>
        <pt x="2976" y="1407" on="1"/>
      </contour>
      <contour>
        <pt x="2045" y="1617" on="1"/>
        <pt x="2033" y="1600" on="0"/>
        <pt x="2012" y="1576" on="1"/>
        <pt x="1995" y="1566" on="0"/>
        <pt x="1779" y="1448" on="1"/>
        <pt x="1634" y="1368" on="0"/>
        <pt x="1619" y="1368" on="1"/>
        <pt x="1566" y="1368" on="1"/>
        <pt x="1563" y="1377" on="0"/>
        <pt x="1554" y="1393" on="1"/>
        <pt x="1585" y="1451" on="0"/>
        <pt x="1607" y="1466" on="1"/>
        <pt x="1732" y="1546" on="0"/>
        <pt x="2032" y="1674" on="1"/>
      </contour>
      <contour>
        <pt x="2679" y="938" on="1"/>
        <pt x="2679" y="858" on="0"/>
        <pt x="2515" y="794" on="1"/>
        <pt x="2385" y="743" on="0"/>
        <pt x="2321" y="743" on="1"/>
        <pt x="2310" y="743" on="0"/>
        <pt x="2212" y="774" on="0"/>
        <pt x="2199" y="774" on="1"/>
        <pt x="2185" y="774" on="0"/>
        <pt x="2151" y="747" on="1"/>
        <pt x="2114" y="717" on="0"/>
        <pt x="2100" y="713" on="1"/>
        <pt x="2086" y="727" on="0"/>
        <pt x="2086" y="748" on="1"/>
        <pt x="2086" y="795" on="0"/>
        <pt x="2140" y="843" on="1"/>
        <pt x="2189" y="886" on="0"/>
        <pt x="2219" y="886" on="1"/>
        <pt x="2231" y="886" on="0"/>
        <pt x="2329" y="856" on="0"/>
        <pt x="2342" y="856" on="1"/>
        <pt x="2448" y="856" on="0"/>
        <pt x="2520" y="893" on="1"/>
        <pt x="2588" y="931" on="0"/>
        <pt x="2655" y="968" on="1"/>
        <pt x="2663" y="963" on="0"/>
        <pt x="2679" y="954" on="0"/>
      </contour>
      <contour>
        <pt x="2977" y="247" on="1"/>
        <pt x="2977" y="251" on="0"/>
        <pt x="2938" y="122" on="1"/>
        <pt x="2929" y="93" on="0"/>
        <pt x="2927" y="88" on="1"/>
        <pt x="2917" y="66" on="0"/>
        <pt x="2901" y="60" on="1"/>
        <pt x="2699" y="-14" on="0"/>
        <pt x="2433" y="-14" on="1"/>
        <pt x="2246" y="-14" on="1"/>
        <pt x="2135" y="-14" on="0"/>
        <pt x="2090" y="-5" on="1"/>
        <pt x="1991" y="13" on="0"/>
        <pt x="1956" y="80" on="1"/>
        <pt x="1939" y="113" on="0"/>
        <pt x="1928" y="215" on="1"/>
        <pt x="1903" y="464" on="0"/>
        <pt x="1887" y="666" on="1"/>
        <pt x="1868" y="768" on="0"/>
        <pt x="1843" y="973" on="1"/>
        <pt x="1842" y="979" on="0"/>
        <pt x="1872" y="1094" on="1"/>
        <pt x="1858" y="1102" on="0"/>
        <pt x="1822" y="1095" on="1"/>
        <pt x="1788" y="1090" on="0"/>
        <pt x="1775" y="1081" on="1"/>
        <pt x="1740" y="1081" on="1"/>
        <pt x="1740" y="1108" on="0"/>
        <pt x="1734" y="1157" on="1"/>
        <pt x="1732" y="1163" on="0"/>
        <pt x="1719" y="1185" on="1"/>
        <pt x="1707" y="1205" on="0"/>
        <pt x="1707" y="1219" on="1"/>
        <pt x="1707" y="1253" on="0"/>
        <pt x="1778" y="1325" on="1"/>
        <pt x="1851" y="1398" on="0"/>
        <pt x="1896" y="1398" on="1"/>
        <pt x="1920" y="1398" on="0"/>
        <pt x="1950" y="1375" on="1"/>
        <pt x="1984" y="1350" on="0"/>
        <pt x="1984" y="1321" on="1"/>
        <pt x="1984" y="1299" on="0"/>
        <pt x="1943" y="1261" on="1"/>
        <pt x="1970" y="1239" on="0"/>
        <pt x="2018" y="1241" on="1"/>
        <pt x="2073" y="1243" on="0"/>
        <pt x="2095" y="1232" on="1"/>
        <pt x="2093" y="1198" on="0"/>
        <pt x="2036" y="1169" on="1"/>
        <pt x="1955" y="1127" on="0"/>
        <pt x="1942" y="1117" on="1"/>
        <pt x="1945" y="1072" on="0"/>
        <pt x="2000" y="544" on="1"/>
        <pt x="2011" y="429" on="0"/>
        <pt x="2021" y="315" on="1"/>
        <pt x="2036" y="219" on="0"/>
        <pt x="2081" y="182" on="1"/>
        <pt x="2135" y="139" on="0"/>
        <pt x="2265" y="139" on="1"/>
        <pt x="2276" y="139" on="0"/>
        <pt x="2507" y="149" on="0"/>
        <pt x="2521" y="149" on="1"/>
        <pt x="2854" y="149" on="0"/>
        <pt x="2854" y="237" on="1"/>
        <pt x="2854" y="248" on="0"/>
        <pt x="2761" y="383" on="0"/>
        <pt x="2761" y="395" on="1"/>
        <pt x="2761" y="442" on="0"/>
        <pt x="2806" y="507" on="1"/>
        <pt x="2841" y="507" on="1"/>
        <pt x="2977" y="362" on="0"/>
      </contour>
      <contour>
        <pt x="2506" y="462" on="1"/>
        <pt x="2506" y="404" on="0"/>
        <pt x="2459" y="354" on="1"/>
        <pt x="2443" y="376" on="0"/>
        <pt x="2422" y="433" on="1"/>
        <pt x="2394" y="512" on="0"/>
        <pt x="2385" y="530" on="0"/>
        <pt x="2346" y="578" on="1"/>
        <pt x="2312" y="621" on="0"/>
        <pt x="2312" y="636" on="1"/>
        <pt x="2312" y="652" on="0"/>
        <pt x="2326" y="679" on="1"/>
        <pt x="2345" y="713" on="0"/>
        <pt x="2367" y="713" on="1"/>
        <pt x="2442" y="713" on="0"/>
        <pt x="2502" y="514" on="1"/>
        <pt x="2506" y="501" on="0"/>
      </contour>
      <contour>
        <pt x="3069" y="-219" on="1"/>
        <pt x="3069" y="-241" on="0"/>
        <pt x="3000" y="-331" on="0"/>
        <pt x="2977" y="-331" on="1"/>
        <pt x="2966" y="-331" on="0"/>
        <pt x="2908" y="-301" on="0"/>
        <pt x="2895" y="-301" on="1"/>
        <pt x="2882" y="-301" on="0"/>
        <pt x="2795" y="-352" on="0"/>
        <pt x="2782" y="-352" on="1"/>
        <pt x="2751" y="-352" on="0"/>
        <pt x="2713" y="-315" on="1"/>
        <pt x="2679" y="-283" on="0"/>
        <pt x="2679" y="-270" on="1"/>
        <pt x="2679" y="-253" on="0"/>
        <pt x="2760" y="-167" on="0"/>
        <pt x="2777" y="-167" on="1"/>
        <pt x="2788" y="-167" on="0"/>
        <pt x="2847" y="-208" on="0"/>
        <pt x="2864" y="-208" on="1"/>
        <pt x="2879" y="-208" on="0"/>
        <pt x="2959" y="-147" on="0"/>
        <pt x="2972" y="-147" on="1"/>
        <pt x="2992" y="-147" on="0"/>
        <pt x="3069" y="-200" on="0"/>
      </contour>
      <contour>
        <pt x="1492" y="1189" on="1"/>
        <pt x="1492" y="1132" on="0"/>
        <pt x="1446" y="1132" on="1"/>
        <pt x="1433" y="1132" on="0"/>
        <pt x="1408" y="1153" on="0"/>
        <pt x="1395" y="1153" on="1"/>
        <pt x="1395" y="1153" on="0"/>
        <pt x="1091" y="969" on="0"/>
        <pt x="1025" y="969" on="1"/>
        <pt x="981" y="969" on="1"/>
        <pt x="981" y="987" on="0"/>
        <pt x="984" y="997" on="1"/>
        <pt x="993" y="1004" on="0"/>
        <pt x="1147" y="1094" on="1"/>
        <pt x="1251" y="1156" on="0"/>
        <pt x="1297" y="1210" on="1"/>
        <pt x="1293" y="1231" on="0"/>
        <pt x="1257" y="1260" on="1"/>
        <pt x="1226" y="1285" on="0"/>
        <pt x="1226" y="1337" on="1"/>
        <pt x="1226" y="1387" on="0"/>
        <pt x="1272" y="1443" on="1"/>
        <pt x="1321" y="1501" on="0"/>
        <pt x="1374" y="1501" on="1"/>
        <pt x="1456" y="1501" on="0"/>
        <pt x="1456" y="1362" on="1"/>
        <pt x="1456" y="1255" on="0"/>
        <pt x="1454" y="1271" on="1"/>
        <pt x="1455" y="1264" on="0"/>
        <pt x="1492" y="1208" on="0"/>
      </contour>
      <contour>
        <pt x="1154" y="1547" on="1"/>
        <pt x="1154" y="1496" on="0"/>
        <pt x="1111" y="1473" on="1"/>
        <pt x="972" y="1405" on="0"/>
        <pt x="700" y="1256" on="1"/>
        <pt x="665" y="1256" on="1"/>
        <pt x="653" y="1257" on="0"/>
        <pt x="653" y="1280" on="1"/>
        <pt x="653" y="1332" on="0"/>
        <pt x="847" y="1438" on="1"/>
        <pt x="971" y="1505" on="0"/>
        <pt x="1097" y="1572" on="1"/>
        <pt x="1142" y="1572" on="1"/>
        <pt x="1154" y="1570" on="0"/>
      </contour>
      <contour>
        <pt x="1564" y="866" on="1"/>
        <pt x="1564" y="727" on="0"/>
        <pt x="1375" y="688" on="1"/>
        <pt x="1365" y="686" on="0"/>
        <pt x="1316" y="651" on="0"/>
        <pt x="1302" y="651" on="1"/>
        <pt x="1226" y="651" on="0"/>
        <pt x="1226" y="748" on="1"/>
        <pt x="1226" y="805" on="0"/>
        <pt x="1260" y="854" on="1"/>
        <pt x="1297" y="854" on="1"/>
        <pt x="1297" y="793" on="1"/>
        <pt x="1299" y="793" on="0"/>
        <pt x="1314" y="784" on="0"/>
        <pt x="1329" y="784" on="1"/>
        <pt x="1343" y="784" on="0"/>
        <pt x="1370" y="825" on="1"/>
        <pt x="1412" y="886" on="0"/>
        <pt x="1420" y="897" on="1"/>
        <pt x="1428" y="871" on="0"/>
        <pt x="1456" y="825" on="1"/>
        <pt x="1476" y="861" on="0"/>
        <pt x="1527" y="927" on="1"/>
        <pt x="1564" y="909" on="0"/>
      </contour>
      <contour>
        <pt x="1656" y="206" on="1"/>
        <pt x="1656" y="175" on="0"/>
        <pt x="1591" y="88" on="1"/>
        <pt x="1589" y="89" on="0"/>
        <pt x="1515" y="132" on="1"/>
        <pt x="1466" y="160" on="0"/>
        <pt x="1451" y="160" on="1"/>
        <pt x="1399" y="160" on="0"/>
        <pt x="1299" y="110" on="1"/>
        <pt x="1212" y="66" on="0"/>
        <pt x="1194" y="45" on="1"/>
        <pt x="1147" y="-11" on="0"/>
        <pt x="1126" y="-102" on="1"/>
        <pt x="1122" y="-118" on="0"/>
        <pt x="1122" y="-139" on="1"/>
        <pt x="1122" y="-173" on="0"/>
        <pt x="1134" y="-234" on="1"/>
        <pt x="1148" y="-310" on="0"/>
        <pt x="1151" y="-326" on="1"/>
        <pt x="1154" y="-357" on="0"/>
        <pt x="1049" y="-505" on="1"/>
        <pt x="1013" y="-505" on="1"/>
        <pt x="948" y="-418" on="0"/>
        <pt x="912" y="-214" on="1"/>
        <pt x="915" y="-169" on="0"/>
        <pt x="915" y="-72" on="1"/>
        <pt x="908" y="-58" on="0"/>
        <pt x="892" y="-38" on="1"/>
        <pt x="856" y="-36" on="0"/>
        <pt x="729" y="-18" on="1"/>
        <pt x="576" y="4" on="0"/>
        <pt x="532" y="169" on="1"/>
        <pt x="507" y="315" on="0"/>
        <pt x="482" y="460" on="1"/>
        <pt x="480" y="464" on="0"/>
        <pt x="489" y="502" on="0"/>
        <pt x="489" y="513" on="1"/>
        <pt x="407" y="1128" on="1"/>
        <pt x="418" y="1166" on="0"/>
        <pt x="450" y="1234" on="1"/>
        <pt x="481" y="1234" on="0"/>
        <pt x="495" y="1212" on="1"/>
        <pt x="528" y="1119" on="0"/>
        <pt x="547" y="905" on="1"/>
        <pt x="560" y="725" on="0"/>
        <pt x="573" y="546" on="1"/>
        <pt x="586" y="496" on="0"/>
        <pt x="604" y="401" on="1"/>
        <pt x="618" y="259" on="0"/>
        <pt x="675" y="188" on="1"/>
        <pt x="703" y="153" on="0"/>
        <pt x="782" y="131" on="1"/>
        <pt x="790" y="129" on="0"/>
        <pt x="842" y="129" on="1"/>
        <pt x="934" y="129" on="0"/>
        <pt x="986" y="171" on="1"/>
        <pt x="994" y="178" on="0"/>
        <pt x="1116" y="313" on="1"/>
        <pt x="1161" y="313" on="1"/>
        <pt x="1175" y="300" on="0"/>
        <pt x="1175" y="283" on="1"/>
        <pt x="1175" y="258" on="0"/>
        <pt x="1114" y="143" on="1"/>
        <pt x="1056" y="34" on="0"/>
        <pt x="1041" y="20" on="1"/>
        <pt x="1048" y="-24" on="1"/>
        <pt x="1197" y="207" on="0"/>
        <pt x="1342" y="268" on="1"/>
        <pt x="1449" y="313" on="0"/>
        <pt x="1513" y="313" on="1"/>
        <pt x="1552" y="313" on="0"/>
        <pt x="1602" y="279" on="1"/>
        <pt x="1656" y="242" on="0"/>
      </contour>
      <contour>
        <pt x="1748" y="-352" on="1"/>
        <pt x="1748" y="-380" on="0"/>
        <pt x="1687" y="-454" on="0"/>
        <pt x="1661" y="-454" on="1"/>
        <pt x="1651" y="-454" on="0"/>
        <pt x="1583" y="-424" on="0"/>
        <pt x="1569" y="-424" on="1"/>
        <pt x="1558" y="-424" on="0"/>
        <pt x="1494" y="-485" on="0"/>
        <pt x="1466" y="-485" on="1"/>
        <pt x="1448" y="-485" on="0"/>
        <pt x="1402" y="-452" on="1"/>
        <pt x="1349" y="-412" on="0"/>
        <pt x="1349" y="-377" on="1"/>
        <pt x="1349" y="-360" on="0"/>
        <pt x="1429" y="-280" on="0"/>
        <pt x="1446" y="-280" on="1"/>
        <pt x="1457" y="-280" on="0"/>
        <pt x="1542" y="-342" on="0"/>
        <pt x="1554" y="-342" on="1"/>
        <pt x="1564" y="-342" on="0"/>
        <pt x="1633" y="-260" on="0"/>
        <pt x="1646" y="-260" on="1"/>
        <pt x="1678" y="-260" on="0"/>
        <pt x="1715" y="-302" on="1"/>
        <pt x="1748" y="-339" on="0"/>
      </contour>
      <contour>
        <pt x="1890" y="1250" on="1"/>
        <pt x="1890" y="1268" on="1"/>
        <pt x="1842" y="1280" on="1"/>
        <pt x="1842" y="1262" on="1"/>
      </contour>
    </TTGlyph>
    <TTGlyph name="gaffinalarabic" xMin="142" yMin="226" xMax="842" yMax="1588">
      <contour>
        <pt x="142" y="226" on="1"/>
        <pt x="142" y="1588" on="1"/>
        <pt x="842" y="1588" on="1"/>
        <pt x="842" y="226" on="1"/>
      </contour>
      <contour>
        <pt x="284" y="368" on="1"/>
        <pt x="700" y="368" on="1"/>
        <pt x="700" y="1447" on="1"/>
        <pt x="284" y="1447" on="1"/>
      </contour>
    </TTGlyph>
    <TTGlyph name="gafinitialarabic" xMin="142" yMin="226" xMax="842" yMax="1588">
      <contour>
        <pt x="142" y="226" on="1"/>
        <pt x="142" y="1588" on="1"/>
        <pt x="842" y="1588" on="1"/>
        <pt x="842" y="226" on="1"/>
      </contour>
      <contour>
        <pt x="284" y="368" on="1"/>
        <pt x="700" y="368" on="1"/>
        <pt x="700" y="1447" on="1"/>
        <pt x="284" y="1447" on="1"/>
      </contour>
    </TTGlyph>
    <TTGlyph name="gafmedialarabic" xMin="142" yMin="226" xMax="842" yMax="1588">
      <contour>
        <pt x="142" y="226" on="1"/>
        <pt x="142" y="1588" on="1"/>
        <pt x="842" y="1588" on="1"/>
        <pt x="842" y="226" on="1"/>
      </contour>
      <contour>
        <pt x="284" y="368" on="1"/>
        <pt x="700" y="368" on="1"/>
        <pt x="700" y="1447" on="1"/>
        <pt x="284" y="1447" on="1"/>
      </contour>
    </TTGlyph>
    <TTGlyph name="glyph41" xMin="142" yMin="226" xMax="842" yMax="1588">
      <contour>
        <pt x="142" y="226" on="1"/>
        <pt x="142" y="1588" on="1"/>
        <pt x="842" y="1588" on="1"/>
        <pt x="842" y="226" on="1"/>
      </contour>
      <contour>
        <pt x="284" y="368" on="1"/>
        <pt x="700" y="368" on="1"/>
        <pt x="700" y="1447" on="1"/>
        <pt x="284" y="1447" on="1"/>
      </contour>
    </TTGlyph>
    <TTGlyph name="glyph42" xMin="142" yMin="226" xMax="842" yMax="1588">
      <contour>
        <pt x="142" y="226" on="1"/>
        <pt x="142" y="1588" on="1"/>
        <pt x="842" y="1588" on="1"/>
        <pt x="842" y="226" on="1"/>
      </contour>
      <contour>
        <pt x="284" y="368" on="1"/>
        <pt x="700" y="368" on="1"/>
        <pt x="700" y="1447" on="1"/>
        <pt x="284" y="1447" on="1"/>
      </contour>
    </TTGlyph>
    <TTGlyph name="glyph43" xMin="142" yMin="226" xMax="842" yMax="1588">
      <contour>
        <pt x="142" y="226" on="1"/>
        <pt x="142" y="1588" on="1"/>
        <pt x="842" y="1588" on="1"/>
        <pt x="842" y="226" on="1"/>
      </contour>
      <contour>
        <pt x="284" y="368" on="1"/>
        <pt x="700" y="368" on="1"/>
        <pt x="700" y="1447" on="1"/>
        <pt x="284" y="1447" on="1"/>
      </contour>
    </TTGlyph>
    <TTGlyph name="glyph44" xMin="142" yMin="226" xMax="842" yMax="1588">
      <contour>
        <pt x="142" y="226" on="1"/>
        <pt x="142" y="1588" on="1"/>
        <pt x="842" y="1588" on="1"/>
        <pt x="842" y="226" on="1"/>
      </contour>
      <contour>
        <pt x="284" y="368" on="1"/>
        <pt x="700" y="368" on="1"/>
        <pt x="700" y="1447" on="1"/>
        <pt x="284" y="1447" on="1"/>
      </contour>
    </TTGlyph>
    <TTGlyph name="glyph45" xMin="142" yMin="226" xMax="842" yMax="1588">
      <contour>
        <pt x="142" y="226" on="1"/>
        <pt x="142" y="1588" on="1"/>
        <pt x="842" y="1588" on="1"/>
        <pt x="842" y="226" on="1"/>
      </contour>
      <contour>
        <pt x="284" y="368" on="1"/>
        <pt x="700" y="368" on="1"/>
        <pt x="700" y="1447" on="1"/>
        <pt x="284" y="1447" on="1"/>
      </contour>
    </TTGlyph>
    <TTGlyph name="glyph46" xMin="142" yMin="226" xMax="842" yMax="1588">
      <contour>
        <pt x="142" y="226" on="1"/>
        <pt x="142" y="1588" on="1"/>
        <pt x="842" y="1588" on="1"/>
        <pt x="842" y="226" on="1"/>
      </contour>
      <contour>
        <pt x="284" y="368" on="1"/>
        <pt x="700" y="368" on="1"/>
        <pt x="700" y="1447" on="1"/>
        <pt x="284" y="1447" on="1"/>
      </contour>
    </TTGlyph>
    <TTGlyph name="glyph47" xMin="142" yMin="226" xMax="842" yMax="1588">
      <contour>
        <pt x="142" y="226" on="1"/>
        <pt x="142" y="1588" on="1"/>
        <pt x="842" y="1588" on="1"/>
        <pt x="842" y="226" on="1"/>
      </contour>
      <contour>
        <pt x="284" y="368" on="1"/>
        <pt x="700" y="368" on="1"/>
        <pt x="700" y="1447" on="1"/>
        <pt x="284" y="1447" on="1"/>
      </contour>
    </TTGlyph>
    <TTGlyph name="glyph48" xMin="142" yMin="226" xMax="842" yMax="1588">
      <contour>
        <pt x="142" y="226" on="1"/>
        <pt x="142" y="1588" on="1"/>
        <pt x="842" y="1588" on="1"/>
        <pt x="842" y="226" on="1"/>
      </contour>
      <contour>
        <pt x="284" y="368" on="1"/>
        <pt x="700" y="368" on="1"/>
        <pt x="700" y="1447" on="1"/>
        <pt x="284" y="1447" on="1"/>
      </contour>
    </TTGlyph>
    <TTGlyph name="glyph50" xMin="142" yMin="226" xMax="842" yMax="1588">
      <contour>
        <pt x="142" y="226" on="1"/>
        <pt x="142" y="1588" on="1"/>
        <pt x="842" y="1588" on="1"/>
        <pt x="842" y="226" on="1"/>
      </contour>
      <contour>
        <pt x="284" y="368" on="1"/>
        <pt x="700" y="368" on="1"/>
        <pt x="700" y="1447" on="1"/>
        <pt x="284" y="1447" on="1"/>
      </contour>
    </TTGlyph>
    <TTGlyph name="glyph51" xMin="142" yMin="226" xMax="842" yMax="1588">
      <contour>
        <pt x="142" y="226" on="1"/>
        <pt x="142" y="1588" on="1"/>
        <pt x="842" y="1588" on="1"/>
        <pt x="842" y="226" on="1"/>
      </contour>
      <contour>
        <pt x="284" y="368" on="1"/>
        <pt x="700" y="368" on="1"/>
        <pt x="700" y="1447" on="1"/>
        <pt x="284" y="1447" on="1"/>
      </contour>
    </TTGlyph>
    <TTGlyph name="greater" xMin="142" yMin="226" xMax="842" yMax="1588">
      <contour>
        <pt x="142" y="226" on="1"/>
        <pt x="142" y="1588" on="1"/>
        <pt x="842" y="1588" on="1"/>
        <pt x="842" y="226" on="1"/>
      </contour>
      <contour>
        <pt x="284" y="368" on="1"/>
        <pt x="700" y="368" on="1"/>
        <pt x="700" y="1447" on="1"/>
        <pt x="284" y="1447" on="1"/>
      </contour>
    </TTGlyph>
    <TTGlyph name="hahhamzabovefinal" xMin="142" yMin="226" xMax="842" yMax="1588">
      <contour>
        <pt x="142" y="226" on="1"/>
        <pt x="142" y="1588" on="1"/>
        <pt x="842" y="1588" on="1"/>
        <pt x="842" y="226" on="1"/>
      </contour>
      <contour>
        <pt x="284" y="368" on="1"/>
        <pt x="700" y="368" on="1"/>
        <pt x="700" y="1447" on="1"/>
        <pt x="284" y="1447" on="1"/>
      </contour>
    </TTGlyph>
    <TTGlyph name="hahhamzaboveinitial" xMin="142" yMin="226" xMax="842" yMax="1588">
      <contour>
        <pt x="142" y="226" on="1"/>
        <pt x="142" y="1588" on="1"/>
        <pt x="842" y="1588" on="1"/>
        <pt x="842" y="226" on="1"/>
      </contour>
      <contour>
        <pt x="284" y="368" on="1"/>
        <pt x="700" y="368" on="1"/>
        <pt x="700" y="1447" on="1"/>
        <pt x="284" y="1447" on="1"/>
      </contour>
    </TTGlyph>
    <TTGlyph name="hahhamzabovemedial" xMin="142" yMin="226" xMax="842" yMax="1588">
      <contour>
        <pt x="142" y="226" on="1"/>
        <pt x="142" y="1588" on="1"/>
        <pt x="842" y="1588" on="1"/>
        <pt x="842" y="226" on="1"/>
      </contour>
      <contour>
        <pt x="284" y="368" on="1"/>
        <pt x="700" y="368" on="1"/>
        <pt x="700" y="1447" on="1"/>
        <pt x="284" y="1447" on="1"/>
      </contour>
    </TTGlyph>
    <TTGlyph name="hahthreedotsabovefinal" xMin="142" yMin="226" xMax="842" yMax="1588">
      <contour>
        <pt x="142" y="226" on="1"/>
        <pt x="142" y="1588" on="1"/>
        <pt x="842" y="1588" on="1"/>
        <pt x="842" y="226" on="1"/>
      </contour>
      <contour>
        <pt x="284" y="368" on="1"/>
        <pt x="700" y="368" on="1"/>
        <pt x="700" y="1447" on="1"/>
        <pt x="284" y="1447" on="1"/>
      </contour>
    </TTGlyph>
    <TTGlyph name="hahthreedotsaboveinitial" xMin="142" yMin="226" xMax="842" yMax="1588">
      <contour>
        <pt x="142" y="226" on="1"/>
        <pt x="142" y="1588" on="1"/>
        <pt x="842" y="1588" on="1"/>
        <pt x="842" y="226" on="1"/>
      </contour>
      <contour>
        <pt x="284" y="368" on="1"/>
        <pt x="700" y="368" on="1"/>
        <pt x="700" y="1447" on="1"/>
        <pt x="284" y="1447" on="1"/>
      </contour>
    </TTGlyph>
    <TTGlyph name="hahthreedotsabovemedial" xMin="142" yMin="226" xMax="842" yMax="1588">
      <contour>
        <pt x="142" y="226" on="1"/>
        <pt x="142" y="1588" on="1"/>
        <pt x="842" y="1588" on="1"/>
        <pt x="842" y="226" on="1"/>
      </contour>
      <contour>
        <pt x="284" y="368" on="1"/>
        <pt x="700" y="368" on="1"/>
        <pt x="700" y="1447" on="1"/>
        <pt x="284" y="1447" on="1"/>
      </contour>
    </TTGlyph>
    <TTGlyph name="hehdoachashmeefinalarabic" xMin="142" yMin="226" xMax="842" yMax="1588">
      <contour>
        <pt x="142" y="226" on="1"/>
        <pt x="142" y="1588" on="1"/>
        <pt x="842" y="1588" on="1"/>
        <pt x="842" y="226" on="1"/>
      </contour>
      <contour>
        <pt x="284" y="368" on="1"/>
        <pt x="700" y="368" on="1"/>
        <pt x="700" y="1447" on="1"/>
        <pt x="284" y="1447" on="1"/>
      </contour>
    </TTGlyph>
    <TTGlyph name="hehdoachashmeeinitialarabic" xMin="142" yMin="226" xMax="842" yMax="1588">
      <contour>
        <pt x="142" y="226" on="1"/>
        <pt x="142" y="1588" on="1"/>
        <pt x="842" y="1588" on="1"/>
        <pt x="842" y="226" on="1"/>
      </contour>
      <contour>
        <pt x="284" y="368" on="1"/>
        <pt x="700" y="368" on="1"/>
        <pt x="700" y="1447" on="1"/>
        <pt x="284" y="1447" on="1"/>
      </contour>
    </TTGlyph>
    <TTGlyph name="hehdoachashmeemedialarabic" xMin="142" yMin="226" xMax="842" yMax="1588">
      <contour>
        <pt x="142" y="226" on="1"/>
        <pt x="142" y="1588" on="1"/>
        <pt x="842" y="1588" on="1"/>
        <pt x="842" y="226" on="1"/>
      </contour>
      <contour>
        <pt x="284" y="368" on="1"/>
        <pt x="700" y="368" on="1"/>
        <pt x="700" y="1447" on="1"/>
        <pt x="284" y="1447" on="1"/>
      </contour>
    </TTGlyph>
    <TTGlyph name="hehfinalaltonearabic" xMin="142" yMin="226" xMax="842" yMax="1588">
      <contour>
        <pt x="142" y="226" on="1"/>
        <pt x="142" y="1588" on="1"/>
        <pt x="842" y="1588" on="1"/>
        <pt x="842" y="226" on="1"/>
      </contour>
      <contour>
        <pt x="284" y="368" on="1"/>
        <pt x="700" y="368" on="1"/>
        <pt x="700" y="1447" on="1"/>
        <pt x="284" y="1447" on="1"/>
      </contour>
    </TTGlyph>
    <TTGlyph name="hehhamzaabovefinalarabic" xMin="142" yMin="226" xMax="842" yMax="1588">
      <contour>
        <pt x="142" y="226" on="1"/>
        <pt x="142" y="1588" on="1"/>
        <pt x="842" y="1588" on="1"/>
        <pt x="842" y="226" on="1"/>
      </contour>
      <contour>
        <pt x="284" y="368" on="1"/>
        <pt x="700" y="368" on="1"/>
        <pt x="700" y="1447" on="1"/>
        <pt x="284" y="1447" on="1"/>
      </contour>
    </TTGlyph>
    <TTGlyph name="hehinitialaltonearabic" xMin="142" yMin="226" xMax="842" yMax="1588">
      <contour>
        <pt x="142" y="226" on="1"/>
        <pt x="142" y="1588" on="1"/>
        <pt x="842" y="1588" on="1"/>
        <pt x="842" y="226" on="1"/>
      </contour>
      <contour>
        <pt x="284" y="368" on="1"/>
        <pt x="700" y="368" on="1"/>
        <pt x="700" y="1447" on="1"/>
        <pt x="284" y="1447" on="1"/>
      </contour>
    </TTGlyph>
    <TTGlyph name="hehmedialaltonearabic" xMin="142" yMin="226" xMax="842" yMax="1588">
      <contour>
        <pt x="142" y="226" on="1"/>
        <pt x="142" y="1588" on="1"/>
        <pt x="842" y="1588" on="1"/>
        <pt x="842" y="226" on="1"/>
      </contour>
      <contour>
        <pt x="284" y="368" on="1"/>
        <pt x="700" y="368" on="1"/>
        <pt x="700" y="1447" on="1"/>
        <pt x="284" y="1447" on="1"/>
      </contour>
    </TTGlyph>
    <TTGlyph name="hyphen" xMin="407" yMin="-505" xMax="3069" yMax="1674">
      <contour>
        <pt x="2976" y="1362" on="1"/>
        <pt x="2977" y="1338" on="0"/>
        <pt x="2901" y="1294" on="1"/>
        <pt x="2861" y="1273" on="0"/>
        <pt x="2820" y="1252" on="1"/>
        <pt x="2706" y="1193" on="0"/>
        <pt x="2476" y="1072" on="1"/>
        <pt x="2476" y="1140" on="1"/>
        <pt x="2499" y="1166" on="0"/>
        <pt x="2552" y="1210" on="1"/>
        <pt x="2685" y="1279" on="0"/>
        <pt x="2951" y="1419" on="1"/>
        <pt x="2966" y="1407" on="0"/>
        <pt x="2976" y="1407" on="1"/>
      </contour>
      <contour>
        <pt x="2045" y="1617" on="1"/>
        <pt x="2033" y="1600" on="0"/>
        <pt x="2012" y="1576" on="1"/>
        <pt x="1995" y="1566" on="0"/>
        <pt x="1779" y="1448" on="1"/>
        <pt x="1634" y="1368" on="0"/>
        <pt x="1619" y="1368" on="1"/>
        <pt x="1566" y="1368" on="1"/>
        <pt x="1563" y="1377" on="0"/>
        <pt x="1554" y="1393" on="1"/>
        <pt x="1585" y="1451" on="0"/>
        <pt x="1607" y="1466" on="1"/>
        <pt x="1732" y="1546" on="0"/>
        <pt x="2032" y="1674" on="1"/>
      </contour>
      <contour>
        <pt x="2679" y="938" on="1"/>
        <pt x="2679" y="858" on="0"/>
        <pt x="2515" y="794" on="1"/>
        <pt x="2385" y="743" on="0"/>
        <pt x="2321" y="743" on="1"/>
        <pt x="2310" y="743" on="0"/>
        <pt x="2212" y="774" on="0"/>
        <pt x="2199" y="774" on="1"/>
        <pt x="2185" y="774" on="0"/>
        <pt x="2151" y="747" on="1"/>
        <pt x="2114" y="717" on="0"/>
        <pt x="2100" y="713" on="1"/>
        <pt x="2086" y="727" on="0"/>
        <pt x="2086" y="748" on="1"/>
        <pt x="2086" y="795" on="0"/>
        <pt x="2140" y="843" on="1"/>
        <pt x="2189" y="886" on="0"/>
        <pt x="2219" y="886" on="1"/>
        <pt x="2231" y="886" on="0"/>
        <pt x="2329" y="856" on="0"/>
        <pt x="2342" y="856" on="1"/>
        <pt x="2448" y="856" on="0"/>
        <pt x="2520" y="893" on="1"/>
        <pt x="2588" y="931" on="0"/>
        <pt x="2655" y="968" on="1"/>
        <pt x="2663" y="963" on="0"/>
        <pt x="2679" y="954" on="0"/>
      </contour>
      <contour>
        <pt x="2977" y="247" on="1"/>
        <pt x="2977" y="251" on="0"/>
        <pt x="2938" y="122" on="1"/>
        <pt x="2929" y="93" on="0"/>
        <pt x="2927" y="88" on="1"/>
        <pt x="2917" y="66" on="0"/>
        <pt x="2901" y="60" on="1"/>
        <pt x="2699" y="-14" on="0"/>
        <pt x="2433" y="-14" on="1"/>
        <pt x="2246" y="-14" on="1"/>
        <pt x="2135" y="-14" on="0"/>
        <pt x="2090" y="-5" on="1"/>
        <pt x="1991" y="13" on="0"/>
        <pt x="1956" y="80" on="1"/>
        <pt x="1939" y="113" on="0"/>
        <pt x="1928" y="215" on="1"/>
        <pt x="1903" y="464" on="0"/>
        <pt x="1887" y="666" on="1"/>
        <pt x="1868" y="768" on="0"/>
        <pt x="1843" y="973" on="1"/>
        <pt x="1842" y="979" on="0"/>
        <pt x="1872" y="1094" on="1"/>
        <pt x="1858" y="1102" on="0"/>
        <pt x="1822" y="1095" on="1"/>
        <pt x="1788" y="1090" on="0"/>
        <pt x="1775" y="1081" on="1"/>
        <pt x="1740" y="1081" on="1"/>
        <pt x="1740" y="1108" on="0"/>
        <pt x="1734" y="1157" on="1"/>
        <pt x="1732" y="1163" on="0"/>
        <pt x="1719" y="1185" on="1"/>
        <pt x="1707" y="1205" on="0"/>
        <pt x="1707" y="1219" on="1"/>
        <pt x="1707" y="1253" on="0"/>
        <pt x="1778" y="1325" on="1"/>
        <pt x="1851" y="1398" on="0"/>
        <pt x="1896" y="1398" on="1"/>
        <pt x="1920" y="1398" on="0"/>
        <pt x="1950" y="1375" on="1"/>
        <pt x="1984" y="1350" on="0"/>
        <pt x="1984" y="1321" on="1"/>
        <pt x="1984" y="1299" on="0"/>
        <pt x="1943" y="1261" on="1"/>
        <pt x="1970" y="1239" on="0"/>
        <pt x="2018" y="1241" on="1"/>
        <pt x="2073" y="1243" on="0"/>
        <pt x="2095" y="1232" on="1"/>
        <pt x="2093" y="1198" on="0"/>
        <pt x="2036" y="1169" on="1"/>
        <pt x="1955" y="1127" on="0"/>
        <pt x="1942" y="1117" on="1"/>
        <pt x="1945" y="1072" on="0"/>
        <pt x="2000" y="544" on="1"/>
        <pt x="2011" y="429" on="0"/>
        <pt x="2021" y="315" on="1"/>
        <pt x="2036" y="219" on="0"/>
        <pt x="2081" y="182" on="1"/>
        <pt x="2135" y="139" on="0"/>
        <pt x="2265" y="139" on="1"/>
        <pt x="2276" y="139" on="0"/>
        <pt x="2507" y="149" on="0"/>
        <pt x="2521" y="149" on="1"/>
        <pt x="2854" y="149" on="0"/>
        <pt x="2854" y="237" on="1"/>
        <pt x="2854" y="248" on="0"/>
        <pt x="2761" y="383" on="0"/>
        <pt x="2761" y="395" on="1"/>
        <pt x="2761" y="442" on="0"/>
        <pt x="2806" y="507" on="1"/>
        <pt x="2841" y="507" on="1"/>
        <pt x="2977" y="362" on="0"/>
      </contour>
      <contour>
        <pt x="2506" y="462" on="1"/>
        <pt x="2506" y="404" on="0"/>
        <pt x="2459" y="354" on="1"/>
        <pt x="2443" y="376" on="0"/>
        <pt x="2422" y="433" on="1"/>
        <pt x="2394" y="512" on="0"/>
        <pt x="2385" y="530" on="0"/>
        <pt x="2346" y="578" on="1"/>
        <pt x="2312" y="621" on="0"/>
        <pt x="2312" y="636" on="1"/>
        <pt x="2312" y="652" on="0"/>
        <pt x="2326" y="679" on="1"/>
        <pt x="2345" y="713" on="0"/>
        <pt x="2367" y="713" on="1"/>
        <pt x="2442" y="713" on="0"/>
        <pt x="2502" y="514" on="1"/>
        <pt x="2506" y="501" on="0"/>
      </contour>
      <contour>
        <pt x="3069" y="-219" on="1"/>
        <pt x="3069" y="-241" on="0"/>
        <pt x="3000" y="-331" on="0"/>
        <pt x="2977" y="-331" on="1"/>
        <pt x="2966" y="-331" on="0"/>
        <pt x="2908" y="-301" on="0"/>
        <pt x="2895" y="-301" on="1"/>
        <pt x="2882" y="-301" on="0"/>
        <pt x="2795" y="-352" on="0"/>
        <pt x="2782" y="-352" on="1"/>
        <pt x="2751" y="-352" on="0"/>
        <pt x="2713" y="-315" on="1"/>
        <pt x="2679" y="-283" on="0"/>
        <pt x="2679" y="-270" on="1"/>
        <pt x="2679" y="-253" on="0"/>
        <pt x="2760" y="-167" on="0"/>
        <pt x="2777" y="-167" on="1"/>
        <pt x="2788" y="-167" on="0"/>
        <pt x="2847" y="-208" on="0"/>
        <pt x="2864" y="-208" on="1"/>
        <pt x="2879" y="-208" on="0"/>
        <pt x="2959" y="-147" on="0"/>
        <pt x="2972" y="-147" on="1"/>
        <pt x="2992" y="-147" on="0"/>
        <pt x="3069" y="-200" on="0"/>
      </contour>
      <contour>
        <pt x="1492" y="1189" on="1"/>
        <pt x="1492" y="1132" on="0"/>
        <pt x="1446" y="1132" on="1"/>
        <pt x="1433" y="1132" on="0"/>
        <pt x="1408" y="1153" on="0"/>
        <pt x="1395" y="1153" on="1"/>
        <pt x="1395" y="1153" on="0"/>
        <pt x="1091" y="969" on="0"/>
        <pt x="1025" y="969" on="1"/>
        <pt x="981" y="969" on="1"/>
        <pt x="981" y="987" on="0"/>
        <pt x="984" y="997" on="1"/>
        <pt x="993" y="1004" on="0"/>
        <pt x="1147" y="1094" on="1"/>
        <pt x="1251" y="1156" on="0"/>
        <pt x="1297" y="1210" on="1"/>
        <pt x="1293" y="1231" on="0"/>
        <pt x="1257" y="1260" on="1"/>
        <pt x="1226" y="1285" on="0"/>
        <pt x="1226" y="1337" on="1"/>
        <pt x="1226" y="1387" on="0"/>
        <pt x="1272" y="1443" on="1"/>
        <pt x="1321" y="1501" on="0"/>
        <pt x="1374" y="1501" on="1"/>
        <pt x="1456" y="1501" on="0"/>
        <pt x="1456" y="1362" on="1"/>
        <pt x="1456" y="1255" on="0"/>
        <pt x="1454" y="1271" on="1"/>
        <pt x="1455" y="1264" on="0"/>
        <pt x="1492" y="1208" on="0"/>
      </contour>
      <contour>
        <pt x="1154" y="1547" on="1"/>
        <pt x="1154" y="1496" on="0"/>
        <pt x="1111" y="1473" on="1"/>
        <pt x="972" y="1405" on="0"/>
        <pt x="700" y="1256" on="1"/>
        <pt x="665" y="1256" on="1"/>
        <pt x="653" y="1257" on="0"/>
        <pt x="653" y="1280" on="1"/>
        <pt x="653" y="1332" on="0"/>
        <pt x="847" y="1438" on="1"/>
        <pt x="971" y="1505" on="0"/>
        <pt x="1097" y="1572" on="1"/>
        <pt x="1142" y="1572" on="1"/>
        <pt x="1154" y="1570" on="0"/>
      </contour>
      <contour>
        <pt x="1564" y="866" on="1"/>
        <pt x="1564" y="727" on="0"/>
        <pt x="1375" y="688" on="1"/>
        <pt x="1365" y="686" on="0"/>
        <pt x="1316" y="651" on="0"/>
        <pt x="1302" y="651" on="1"/>
        <pt x="1226" y="651" on="0"/>
        <pt x="1226" y="748" on="1"/>
        <pt x="1226" y="805" on="0"/>
        <pt x="1260" y="854" on="1"/>
        <pt x="1297" y="854" on="1"/>
        <pt x="1297" y="793" on="1"/>
        <pt x="1299" y="793" on="0"/>
        <pt x="1314" y="784" on="0"/>
        <pt x="1329" y="784" on="1"/>
        <pt x="1343" y="784" on="0"/>
        <pt x="1370" y="825" on="1"/>
        <pt x="1412" y="886" on="0"/>
        <pt x="1420" y="897" on="1"/>
        <pt x="1428" y="871" on="0"/>
        <pt x="1456" y="825" on="1"/>
        <pt x="1476" y="861" on="0"/>
        <pt x="1527" y="927" on="1"/>
        <pt x="1564" y="909" on="0"/>
      </contour>
      <contour>
        <pt x="1656" y="206" on="1"/>
        <pt x="1656" y="175" on="0"/>
        <pt x="1591" y="88" on="1"/>
        <pt x="1589" y="89" on="0"/>
        <pt x="1515" y="132" on="1"/>
        <pt x="1466" y="160" on="0"/>
        <pt x="1451" y="160" on="1"/>
        <pt x="1399" y="160" on="0"/>
        <pt x="1299" y="110" on="1"/>
        <pt x="1212" y="66" on="0"/>
        <pt x="1194" y="45" on="1"/>
        <pt x="1147" y="-11" on="0"/>
        <pt x="1126" y="-102" on="1"/>
        <pt x="1122" y="-118" on="0"/>
        <pt x="1122" y="-139" on="1"/>
        <pt x="1122" y="-173" on="0"/>
        <pt x="1134" y="-234" on="1"/>
        <pt x="1148" y="-310" on="0"/>
        <pt x="1151" y="-326" on="1"/>
        <pt x="1154" y="-357" on="0"/>
        <pt x="1049" y="-505" on="1"/>
        <pt x="1013" y="-505" on="1"/>
        <pt x="948" y="-418" on="0"/>
        <pt x="912" y="-214" on="1"/>
        <pt x="915" y="-169" on="0"/>
        <pt x="915" y="-72" on="1"/>
        <pt x="908" y="-58" on="0"/>
        <pt x="892" y="-38" on="1"/>
        <pt x="856" y="-36" on="0"/>
        <pt x="729" y="-18" on="1"/>
        <pt x="576" y="4" on="0"/>
        <pt x="532" y="169" on="1"/>
        <pt x="507" y="315" on="0"/>
        <pt x="482" y="460" on="1"/>
        <pt x="480" y="464" on="0"/>
        <pt x="489" y="502" on="0"/>
        <pt x="489" y="513" on="1"/>
        <pt x="407" y="1128" on="1"/>
        <pt x="418" y="1166" on="0"/>
        <pt x="450" y="1234" on="1"/>
        <pt x="481" y="1234" on="0"/>
        <pt x="495" y="1212" on="1"/>
        <pt x="528" y="1119" on="0"/>
        <pt x="547" y="905" on="1"/>
        <pt x="560" y="725" on="0"/>
        <pt x="573" y="546" on="1"/>
        <pt x="586" y="496" on="0"/>
        <pt x="604" y="401" on="1"/>
        <pt x="618" y="259" on="0"/>
        <pt x="675" y="188" on="1"/>
        <pt x="703" y="153" on="0"/>
        <pt x="782" y="131" on="1"/>
        <pt x="790" y="129" on="0"/>
        <pt x="842" y="129" on="1"/>
        <pt x="934" y="129" on="0"/>
        <pt x="986" y="171" on="1"/>
        <pt x="994" y="178" on="0"/>
        <pt x="1116" y="313" on="1"/>
        <pt x="1161" y="313" on="1"/>
        <pt x="1175" y="300" on="0"/>
        <pt x="1175" y="283" on="1"/>
        <pt x="1175" y="258" on="0"/>
        <pt x="1114" y="143" on="1"/>
        <pt x="1056" y="34" on="0"/>
        <pt x="1041" y="20" on="1"/>
        <pt x="1048" y="-24" on="1"/>
        <pt x="1197" y="207" on="0"/>
        <pt x="1342" y="268" on="1"/>
        <pt x="1449" y="313" on="0"/>
        <pt x="1513" y="313" on="1"/>
        <pt x="1552" y="313" on="0"/>
        <pt x="1602" y="279" on="1"/>
        <pt x="1656" y="242" on="0"/>
      </contour>
      <contour>
        <pt x="1748" y="-352" on="1"/>
        <pt x="1748" y="-380" on="0"/>
        <pt x="1687" y="-454" on="0"/>
        <pt x="1661" y="-454" on="1"/>
        <pt x="1651" y="-454" on="0"/>
        <pt x="1583" y="-424" on="0"/>
        <pt x="1569" y="-424" on="1"/>
        <pt x="1558" y="-424" on="0"/>
        <pt x="1494" y="-485" on="0"/>
        <pt x="1466" y="-485" on="1"/>
        <pt x="1448" y="-485" on="0"/>
        <pt x="1402" y="-452" on="1"/>
        <pt x="1349" y="-412" on="0"/>
        <pt x="1349" y="-377" on="1"/>
        <pt x="1349" y="-360" on="0"/>
        <pt x="1429" y="-280" on="0"/>
        <pt x="1446" y="-280" on="1"/>
        <pt x="1457" y="-280" on="0"/>
        <pt x="1542" y="-342" on="0"/>
        <pt x="1554" y="-342" on="1"/>
        <pt x="1564" y="-342" on="0"/>
        <pt x="1633" y="-260" on="0"/>
        <pt x="1646" y="-260" on="1"/>
        <pt x="1678" y="-260" on="0"/>
        <pt x="1715" y="-302" on="1"/>
        <pt x="1748" y="-339" on="0"/>
      </contour>
      <contour>
        <pt x="1890" y="1250" on="1"/>
        <pt x="1890" y="1268" on="1"/>
        <pt x="1842" y="1280" on="1"/>
        <pt x="1842" y="1262" on="1"/>
      </contour>
    </TTGlyph>
    <TTGlyph name="irghizufinal" xMin="142" yMin="226" xMax="842" yMax="1588">
      <contour>
        <pt x="142" y="226" on="1"/>
        <pt x="142" y="1588" on="1"/>
        <pt x="842" y="1588" on="1"/>
        <pt x="842" y="226" on="1"/>
      </contour>
      <contour>
        <pt x="284" y="368" on="1"/>
        <pt x="700" y="368" on="1"/>
        <pt x="700" y="1447" on="1"/>
        <pt x="284" y="1447" on="1"/>
      </contour>
    </TTGlyph>
    <TTGlyph name="jehfinalarabic" xMin="142" yMin="226" xMax="842" yMax="1588">
      <contour>
        <pt x="142" y="226" on="1"/>
        <pt x="142" y="1588" on="1"/>
        <pt x="842" y="1588" on="1"/>
        <pt x="842" y="226" on="1"/>
      </contour>
      <contour>
        <pt x="284" y="368" on="1"/>
        <pt x="700" y="368" on="1"/>
        <pt x="700" y="1447" on="1"/>
        <pt x="284" y="1447" on="1"/>
      </contour>
    </TTGlyph>
    <TTGlyph name="kafringfinal" xMin="142" yMin="226" xMax="842" yMax="1588">
      <contour>
        <pt x="142" y="226" on="1"/>
        <pt x="142" y="1588" on="1"/>
        <pt x="842" y="1588" on="1"/>
        <pt x="842" y="226" on="1"/>
      </contour>
      <contour>
        <pt x="284" y="368" on="1"/>
        <pt x="700" y="368" on="1"/>
        <pt x="700" y="1447" on="1"/>
        <pt x="284" y="1447" on="1"/>
      </contour>
    </TTGlyph>
    <TTGlyph name="kafringinitial" xMin="142" yMin="226" xMax="842" yMax="1588">
      <contour>
        <pt x="142" y="226" on="1"/>
        <pt x="142" y="1588" on="1"/>
        <pt x="842" y="1588" on="1"/>
        <pt x="842" y="226" on="1"/>
      </contour>
      <contour>
        <pt x="284" y="368" on="1"/>
        <pt x="700" y="368" on="1"/>
        <pt x="700" y="1447" on="1"/>
        <pt x="284" y="1447" on="1"/>
      </contour>
    </TTGlyph>
    <TTGlyph name="kafringmedial" xMin="142" yMin="226" xMax="842" yMax="1588">
      <contour>
        <pt x="142" y="226" on="1"/>
        <pt x="142" y="1588" on="1"/>
        <pt x="842" y="1588" on="1"/>
        <pt x="842" y="226" on="1"/>
      </contour>
      <contour>
        <pt x="284" y="368" on="1"/>
        <pt x="700" y="368" on="1"/>
        <pt x="700" y="1447" on="1"/>
        <pt x="284" y="1447" on="1"/>
      </contour>
    </TTGlyph>
    <TTGlyph name="kashidaautoarabic" xMin="142" yMin="226" xMax="842" yMax="1588">
      <contour>
        <pt x="142" y="226" on="1"/>
        <pt x="142" y="1588" on="1"/>
        <pt x="842" y="1588" on="1"/>
        <pt x="842" y="226" on="1"/>
      </contour>
      <contour>
        <pt x="284" y="368" on="1"/>
        <pt x="700" y="368" on="1"/>
        <pt x="700" y="1447" on="1"/>
        <pt x="284" y="1447" on="1"/>
      </contour>
    </TTGlyph>
    <TTGlyph name="kashidaautonosidebearingarabic" xMin="142" yMin="226" xMax="842" yMax="1588">
      <contour>
        <pt x="142" y="226" on="1"/>
        <pt x="142" y="1588" on="1"/>
        <pt x="842" y="1588" on="1"/>
        <pt x="842" y="226" on="1"/>
      </contour>
      <contour>
        <pt x="284" y="368" on="1"/>
        <pt x="700" y="368" on="1"/>
        <pt x="700" y="1447" on="1"/>
        <pt x="284" y="1447" on="1"/>
      </contour>
    </TTGlyph>
    <TTGlyph name="kehehfinalarabic" xMin="142" yMin="226" xMax="842" yMax="1588">
      <contour>
        <pt x="142" y="226" on="1"/>
        <pt x="142" y="1588" on="1"/>
        <pt x="842" y="1588" on="1"/>
        <pt x="842" y="226" on="1"/>
      </contour>
      <contour>
        <pt x="284" y="368" on="1"/>
        <pt x="700" y="368" on="1"/>
        <pt x="700" y="1447" on="1"/>
        <pt x="284" y="1447" on="1"/>
      </contour>
    </TTGlyph>
    <TTGlyph name="kehehinitialarabic" xMin="142" yMin="226" xMax="842" yMax="1588">
      <contour>
        <pt x="142" y="226" on="1"/>
        <pt x="142" y="1588" on="1"/>
        <pt x="842" y="1588" on="1"/>
        <pt x="842" y="226" on="1"/>
      </contour>
      <contour>
        <pt x="284" y="368" on="1"/>
        <pt x="700" y="368" on="1"/>
        <pt x="700" y="1447" on="1"/>
        <pt x="284" y="1447" on="1"/>
      </contour>
    </TTGlyph>
    <TTGlyph name="kehehmedialarabic" xMin="142" yMin="226" xMax="842" yMax="1588">
      <contour>
        <pt x="142" y="226" on="1"/>
        <pt x="142" y="1588" on="1"/>
        <pt x="842" y="1588" on="1"/>
        <pt x="842" y="226" on="1"/>
      </contour>
      <contour>
        <pt x="284" y="368" on="1"/>
        <pt x="700" y="368" on="1"/>
        <pt x="700" y="1447" on="1"/>
        <pt x="284" y="1447" on="1"/>
      </contour>
    </TTGlyph>
    <TTGlyph name="kirghizyifinal" xMin="142" yMin="226" xMax="842" yMax="1588">
      <contour>
        <pt x="142" y="226" on="1"/>
        <pt x="142" y="1588" on="1"/>
        <pt x="842" y="1588" on="1"/>
        <pt x="842" y="226" on="1"/>
      </contour>
      <contour>
        <pt x="284" y="368" on="1"/>
        <pt x="700" y="368" on="1"/>
        <pt x="700" y="1447" on="1"/>
        <pt x="284" y="1447" on="1"/>
      </contour>
    </TTGlyph>
    <TTGlyph name="lammeemjeeminitialarabic" xMin="142" yMin="226" xMax="842" yMax="1588">
      <contour>
        <pt x="142" y="226" on="1"/>
        <pt x="142" y="1588" on="1"/>
        <pt x="842" y="1588" on="1"/>
        <pt x="842" y="226" on="1"/>
      </contour>
      <contour>
        <pt x="284" y="368" on="1"/>
        <pt x="700" y="368" on="1"/>
        <pt x="700" y="1447" on="1"/>
        <pt x="284" y="1447" on="1"/>
      </contour>
    </TTGlyph>
    <TTGlyph name="lammeemkhahinitialarabic" xMin="142" yMin="226" xMax="842" yMax="1588">
      <contour>
        <pt x="142" y="226" on="1"/>
        <pt x="142" y="1588" on="1"/>
        <pt x="842" y="1588" on="1"/>
        <pt x="842" y="226" on="1"/>
      </contour>
      <contour>
        <pt x="284" y="368" on="1"/>
        <pt x="700" y="368" on="1"/>
        <pt x="700" y="1447" on="1"/>
        <pt x="284" y="1447" on="1"/>
      </contour>
    </TTGlyph>
    <TTGlyph name="lamthreedotsabovefinal" xMin="142" yMin="226" xMax="842" yMax="1588">
      <contour>
        <pt x="142" y="226" on="1"/>
        <pt x="142" y="1588" on="1"/>
        <pt x="842" y="1588" on="1"/>
        <pt x="842" y="226" on="1"/>
      </contour>
      <contour>
        <pt x="284" y="368" on="1"/>
        <pt x="700" y="368" on="1"/>
        <pt x="700" y="1447" on="1"/>
        <pt x="284" y="1447" on="1"/>
      </contour>
    </TTGlyph>
    <TTGlyph name="lamthreedotsaboveinitial" xMin="142" yMin="226" xMax="842" yMax="1588">
      <contour>
        <pt x="142" y="226" on="1"/>
        <pt x="142" y="1588" on="1"/>
        <pt x="842" y="1588" on="1"/>
        <pt x="842" y="226" on="1"/>
      </contour>
      <contour>
        <pt x="284" y="368" on="1"/>
        <pt x="700" y="368" on="1"/>
        <pt x="700" y="1447" on="1"/>
        <pt x="284" y="1447" on="1"/>
      </contour>
    </TTGlyph>
    <TTGlyph name="lamthreedotsabovemedial" xMin="142" yMin="226" xMax="842" yMax="1588">
      <contour>
        <pt x="142" y="226" on="1"/>
        <pt x="142" y="1588" on="1"/>
        <pt x="842" y="1588" on="1"/>
        <pt x="842" y="226" on="1"/>
      </contour>
      <contour>
        <pt x="284" y="368" on="1"/>
        <pt x="700" y="368" on="1"/>
        <pt x="700" y="1447" on="1"/>
        <pt x="284" y="1447" on="1"/>
      </contour>
    </TTGlyph>
    <TTGlyph name="less" xMin="142" yMin="226" xMax="842" yMax="1588">
      <contour>
        <pt x="142" y="226" on="1"/>
        <pt x="142" y="1588" on="1"/>
        <pt x="842" y="1588" on="1"/>
        <pt x="842" y="226" on="1"/>
      </contour>
      <contour>
        <pt x="284" y="368" on="1"/>
        <pt x="700" y="368" on="1"/>
        <pt x="700" y="1447" on="1"/>
        <pt x="284" y="1447" on="1"/>
      </contour>
    </TTGlyph>
    <TTGlyph name="meemmeemisolatedarabic" xMin="142" yMin="226" xMax="842" yMax="1588">
      <contour>
        <pt x="142" y="226" on="1"/>
        <pt x="142" y="1588" on="1"/>
        <pt x="842" y="1588" on="1"/>
        <pt x="842" y="226" on="1"/>
      </contour>
      <contour>
        <pt x="284" y="368" on="1"/>
        <pt x="700" y="368" on="1"/>
        <pt x="700" y="1447" on="1"/>
        <pt x="284" y="1447" on="1"/>
      </contour>
    </TTGlyph>
    <TTGlyph name="multiply" xMin="142" yMin="226" xMax="842" yMax="1588">
      <contour>
        <pt x="142" y="226" on="1"/>
        <pt x="142" y="1588" on="1"/>
        <pt x="842" y="1588" on="1"/>
        <pt x="842" y="226" on="1"/>
      </contour>
      <contour>
        <pt x="284" y="368" on="1"/>
        <pt x="700" y="368" on="1"/>
        <pt x="700" y="1447" on="1"/>
        <pt x="284" y="1447" on="1"/>
      </contour>
    </TTGlyph>
    <TTGlyph name="noonghunnafinalarabic" xMin="142" yMin="226" xMax="842" yMax="1588">
      <contour>
        <pt x="142" y="226" on="1"/>
        <pt x="142" y="1588" on="1"/>
        <pt x="842" y="1588" on="1"/>
        <pt x="842" y="226" on="1"/>
      </contour>
      <contour>
        <pt x="284" y="368" on="1"/>
        <pt x="700" y="368" on="1"/>
        <pt x="700" y="1447" on="1"/>
        <pt x="284" y="1447" on="1"/>
      </contour>
    </TTGlyph>
    <TTGlyph name="noonjeemisolatedarabic" xMin="142" yMin="226" xMax="842" yMax="1588">
      <contour>
        <pt x="142" y="226" on="1"/>
        <pt x="142" y="1588" on="1"/>
        <pt x="842" y="1588" on="1"/>
        <pt x="842" y="226" on="1"/>
      </contour>
      <contour>
        <pt x="284" y="368" on="1"/>
        <pt x="700" y="368" on="1"/>
        <pt x="700" y="1447" on="1"/>
        <pt x="284" y="1447" on="1"/>
      </contour>
    </TTGlyph>
    <TTGlyph name="noonmeemisolatedarabic" xMin="142" yMin="226" xMax="842" yMax="1588">
      <contour>
        <pt x="142" y="226" on="1"/>
        <pt x="142" y="1588" on="1"/>
        <pt x="842" y="1588" on="1"/>
        <pt x="842" y="226" on="1"/>
      </contour>
      <contour>
        <pt x="284" y="368" on="1"/>
        <pt x="700" y="368" on="1"/>
        <pt x="700" y="1447" on="1"/>
        <pt x="284" y="1447" on="1"/>
      </contour>
    </TTGlyph>
    <TTGlyph name="noonringfinal" xMin="142" yMin="226" xMax="842" yMax="1588">
      <contour>
        <pt x="142" y="226" on="1"/>
        <pt x="142" y="1588" on="1"/>
        <pt x="842" y="1588" on="1"/>
        <pt x="842" y="226" on="1"/>
      </contour>
      <contour>
        <pt x="284" y="368" on="1"/>
        <pt x="700" y="368" on="1"/>
        <pt x="700" y="1447" on="1"/>
        <pt x="284" y="1447" on="1"/>
      </contour>
    </TTGlyph>
    <TTGlyph name="noonringinitial" xMin="142" yMin="226" xMax="842" yMax="1588">
      <contour>
        <pt x="142" y="226" on="1"/>
        <pt x="142" y="1588" on="1"/>
        <pt x="842" y="1588" on="1"/>
        <pt x="842" y="226" on="1"/>
      </contour>
      <contour>
        <pt x="284" y="368" on="1"/>
        <pt x="700" y="368" on="1"/>
        <pt x="700" y="1447" on="1"/>
        <pt x="284" y="1447" on="1"/>
      </contour>
    </TTGlyph>
    <TTGlyph name="noonringmedial" xMin="142" yMin="226" xMax="842" yMax="1588">
      <contour>
        <pt x="142" y="226" on="1"/>
        <pt x="142" y="1588" on="1"/>
        <pt x="842" y="1588" on="1"/>
        <pt x="842" y="226" on="1"/>
      </contour>
      <contour>
        <pt x="284" y="368" on="1"/>
        <pt x="700" y="368" on="1"/>
        <pt x="700" y="1447" on="1"/>
        <pt x="284" y="1447" on="1"/>
      </contour>
    </TTGlyph>
    <TTGlyph name="numbersign" xMin="142" yMin="226" xMax="842" yMax="1588">
      <contour>
        <pt x="142" y="226" on="1"/>
        <pt x="142" y="1588" on="1"/>
        <pt x="842" y="1588" on="1"/>
        <pt x="842" y="226" on="1"/>
      </contour>
      <contour>
        <pt x="284" y="368" on="1"/>
        <pt x="700" y="368" on="1"/>
        <pt x="700" y="1447" on="1"/>
        <pt x="284" y="1447" on="1"/>
      </contour>
    </TTGlyph>
    <TTGlyph name="parenleft" xMin="142" yMin="226" xMax="842" yMax="1588">
      <contour>
        <pt x="142" y="226" on="1"/>
        <pt x="142" y="1588" on="1"/>
        <pt x="842" y="1588" on="1"/>
        <pt x="842" y="226" on="1"/>
      </contour>
      <contour>
        <pt x="284" y="368" on="1"/>
        <pt x="700" y="368" on="1"/>
        <pt x="700" y="1447" on="1"/>
        <pt x="284" y="1447" on="1"/>
      </contour>
    </TTGlyph>
    <TTGlyph name="parenright" xMin="142" yMin="226" xMax="842" yMax="1588">
      <contour>
        <pt x="142" y="226" on="1"/>
        <pt x="142" y="1588" on="1"/>
        <pt x="842" y="1588" on="1"/>
        <pt x="842" y="226" on="1"/>
      </contour>
      <contour>
        <pt x="284" y="368" on="1"/>
        <pt x="700" y="368" on="1"/>
        <pt x="700" y="1447" on="1"/>
        <pt x="284" y="1447" on="1"/>
      </contour>
    </TTGlyph>
    <TTGlyph name="pashtoefinal" xMin="142" yMin="226" xMax="842" yMax="1588">
      <contour>
        <pt x="142" y="226" on="1"/>
        <pt x="142" y="1588" on="1"/>
        <pt x="842" y="1588" on="1"/>
        <pt x="842" y="226" on="1"/>
      </contour>
      <contour>
        <pt x="284" y="368" on="1"/>
        <pt x="700" y="368" on="1"/>
        <pt x="700" y="1447" on="1"/>
        <pt x="284" y="1447" on="1"/>
      </contour>
    </TTGlyph>
    <TTGlyph name="pashtoeinitial" xMin="142" yMin="226" xMax="842" yMax="1588">
      <contour>
        <pt x="142" y="226" on="1"/>
        <pt x="142" y="1588" on="1"/>
        <pt x="842" y="1588" on="1"/>
        <pt x="842" y="226" on="1"/>
      </contour>
      <contour>
        <pt x="284" y="368" on="1"/>
        <pt x="700" y="368" on="1"/>
        <pt x="700" y="1447" on="1"/>
        <pt x="284" y="1447" on="1"/>
      </contour>
    </TTGlyph>
    <TTGlyph name="pashtoemedial" xMin="142" yMin="226" xMax="842" yMax="1588">
      <contour>
        <pt x="142" y="226" on="1"/>
        <pt x="142" y="1588" on="1"/>
        <pt x="842" y="1588" on="1"/>
        <pt x="842" y="226" on="1"/>
      </contour>
      <contour>
        <pt x="284" y="368" on="1"/>
        <pt x="700" y="368" on="1"/>
        <pt x="700" y="1447" on="1"/>
        <pt x="284" y="1447" on="1"/>
      </contour>
    </TTGlyph>
    <TTGlyph name="pehfinalarabic" xMin="142" yMin="226" xMax="842" yMax="1588">
      <contour>
        <pt x="142" y="226" on="1"/>
        <pt x="142" y="1588" on="1"/>
        <pt x="842" y="1588" on="1"/>
        <pt x="842" y="226" on="1"/>
      </contour>
      <contour>
        <pt x="284" y="368" on="1"/>
        <pt x="700" y="368" on="1"/>
        <pt x="700" y="1447" on="1"/>
        <pt x="284" y="1447" on="1"/>
      </contour>
    </TTGlyph>
    <TTGlyph name="pehinitialarabic" xMin="142" yMin="226" xMax="842" yMax="1588">
      <contour>
        <pt x="142" y="226" on="1"/>
        <pt x="142" y="1588" on="1"/>
        <pt x="842" y="1588" on="1"/>
        <pt x="842" y="226" on="1"/>
      </contour>
      <contour>
        <pt x="284" y="368" on="1"/>
        <pt x="700" y="368" on="1"/>
        <pt x="700" y="1447" on="1"/>
        <pt x="284" y="1447" on="1"/>
      </contour>
    </TTGlyph>
    <TTGlyph name="pehmedialarabic" xMin="142" yMin="226" xMax="842" yMax="1588">
      <contour>
        <pt x="142" y="226" on="1"/>
        <pt x="142" y="1588" on="1"/>
        <pt x="842" y="1588" on="1"/>
        <pt x="842" y="226" on="1"/>
      </contour>
      <contour>
        <pt x="284" y="368" on="1"/>
        <pt x="700" y="368" on="1"/>
        <pt x="700" y="1447" on="1"/>
        <pt x="284" y="1447" on="1"/>
      </contour>
    </TTGlyph>
    <TTGlyph name="percent" xMin="142" yMin="226" xMax="842" yMax="1588">
      <contour>
        <pt x="142" y="226" on="1"/>
        <pt x="142" y="1588" on="1"/>
        <pt x="842" y="1588" on="1"/>
        <pt x="842" y="226" on="1"/>
      </contour>
      <contour>
        <pt x="284" y="368" on="1"/>
        <pt x="700" y="368" on="1"/>
        <pt x="700" y="1447" on="1"/>
        <pt x="284" y="1447" on="1"/>
      </contour>
    </TTGlyph>
    <TTGlyph name="period" xMin="142" yMin="226" xMax="842" yMax="1588">
      <contour>
        <pt x="142" y="226" on="1"/>
        <pt x="142" y="1588" on="1"/>
        <pt x="842" y="1588" on="1"/>
        <pt x="842" y="226" on="1"/>
      </contour>
      <contour>
        <pt x="284" y="368" on="1"/>
        <pt x="700" y="368" on="1"/>
        <pt x="700" y="1447" on="1"/>
        <pt x="284" y="1447" on="1"/>
      </contour>
    </TTGlyph>
    <TTGlyph name="plus" xMin="142" yMin="226" xMax="842" yMax="1588">
      <contour>
        <pt x="142" y="226" on="1"/>
        <pt x="142" y="1588" on="1"/>
        <pt x="842" y="1588" on="1"/>
        <pt x="842" y="226" on="1"/>
      </contour>
      <contour>
        <pt x="284" y="368" on="1"/>
        <pt x="700" y="368" on="1"/>
        <pt x="700" y="1447" on="1"/>
        <pt x="284" y="1447" on="1"/>
      </contour>
    </TTGlyph>
    <TTGlyph name="quotedbl" xMin="142" yMin="226" xMax="842" yMax="1588">
      <contour>
        <pt x="142" y="226" on="1"/>
        <pt x="142" y="1588" on="1"/>
        <pt x="842" y="1588" on="1"/>
        <pt x="842" y="226" on="1"/>
      </contour>
      <contour>
        <pt x="284" y="368" on="1"/>
        <pt x="700" y="368" on="1"/>
        <pt x="700" y="1447" on="1"/>
        <pt x="284" y="1447" on="1"/>
      </contour>
    </TTGlyph>
    <TTGlyph name="quotesingle" xMin="142" yMin="226" xMax="842" yMax="1588">
      <contour>
        <pt x="142" y="226" on="1"/>
        <pt x="142" y="1588" on="1"/>
        <pt x="842" y="1588" on="1"/>
        <pt x="842" y="226" on="1"/>
      </contour>
      <contour>
        <pt x="284" y="368" on="1"/>
        <pt x="700" y="368" on="1"/>
        <pt x="700" y="1447" on="1"/>
        <pt x="284" y="1447" on="1"/>
      </contour>
    </TTGlyph>
    <TTGlyph name="rehdotbelowdotabovefinal" xMin="142" yMin="226" xMax="842" yMax="1588">
      <contour>
        <pt x="142" y="226" on="1"/>
        <pt x="142" y="1588" on="1"/>
        <pt x="842" y="1588" on="1"/>
        <pt x="842" y="226" on="1"/>
      </contour>
      <contour>
        <pt x="284" y="368" on="1"/>
        <pt x="700" y="368" on="1"/>
        <pt x="700" y="1447" on="1"/>
        <pt x="284" y="1447" on="1"/>
      </contour>
    </TTGlyph>
    <TTGlyph name="rehringfinal" xMin="142" yMin="226" xMax="842" yMax="1588">
      <contour>
        <pt x="142" y="226" on="1"/>
        <pt x="142" y="1588" on="1"/>
        <pt x="842" y="1588" on="1"/>
        <pt x="842" y="226" on="1"/>
      </contour>
      <contour>
        <pt x="284" y="368" on="1"/>
        <pt x="700" y="368" on="1"/>
        <pt x="700" y="1447" on="1"/>
        <pt x="284" y="1447" on="1"/>
      </contour>
    </TTGlyph>
    <TTGlyph name="rrehfinalarabic" xMin="142" yMin="226" xMax="842" yMax="1588">
      <contour>
        <pt x="142" y="226" on="1"/>
        <pt x="142" y="1588" on="1"/>
        <pt x="842" y="1588" on="1"/>
        <pt x="842" y="226" on="1"/>
      </contour>
      <contour>
        <pt x="284" y="368" on="1"/>
        <pt x="700" y="368" on="1"/>
        <pt x="700" y="1447" on="1"/>
        <pt x="284" y="1447" on="1"/>
      </contour>
    </TTGlyph>
    <TTGlyph name="seendotbelowdotabovefinal" xMin="142" yMin="226" xMax="842" yMax="1588">
      <contour>
        <pt x="142" y="226" on="1"/>
        <pt x="142" y="1588" on="1"/>
        <pt x="842" y="1588" on="1"/>
        <pt x="842" y="226" on="1"/>
      </contour>
      <contour>
        <pt x="284" y="368" on="1"/>
        <pt x="700" y="368" on="1"/>
        <pt x="700" y="1447" on="1"/>
        <pt x="284" y="1447" on="1"/>
      </contour>
    </TTGlyph>
    <TTGlyph name="seendotbelowdotaboveinitial" xMin="142" yMin="226" xMax="842" yMax="1588">
      <contour>
        <pt x="142" y="226" on="1"/>
        <pt x="142" y="1588" on="1"/>
        <pt x="842" y="1588" on="1"/>
        <pt x="842" y="226" on="1"/>
      </contour>
      <contour>
        <pt x="284" y="368" on="1"/>
        <pt x="700" y="368" on="1"/>
        <pt x="700" y="1447" on="1"/>
        <pt x="284" y="1447" on="1"/>
      </contour>
    </TTGlyph>
    <TTGlyph name="seendotbelowdotabovemedial" xMin="142" yMin="226" xMax="842" yMax="1588">
      <contour>
        <pt x="142" y="226" on="1"/>
        <pt x="142" y="1588" on="1"/>
        <pt x="842" y="1588" on="1"/>
        <pt x="842" y="226" on="1"/>
      </contour>
      <contour>
        <pt x="284" y="368" on="1"/>
        <pt x="700" y="368" on="1"/>
        <pt x="700" y="1447" on="1"/>
        <pt x="284" y="1447" on="1"/>
      </contour>
    </TTGlyph>
    <TTGlyph name="shaddadammaarabic" xMin="142" yMin="226" xMax="842" yMax="1588">
      <contour>
        <pt x="142" y="226" on="1"/>
        <pt x="142" y="1588" on="1"/>
        <pt x="842" y="1588" on="1"/>
        <pt x="842" y="226" on="1"/>
      </contour>
      <contour>
        <pt x="284" y="368" on="1"/>
        <pt x="700" y="368" on="1"/>
        <pt x="700" y="1447" on="1"/>
        <pt x="284" y="1447" on="1"/>
      </contour>
    </TTGlyph>
    <TTGlyph name="shaddadammatanarabic" xMin="142" yMin="226" xMax="842" yMax="1588">
      <contour>
        <pt x="142" y="226" on="1"/>
        <pt x="142" y="1588" on="1"/>
        <pt x="842" y="1588" on="1"/>
        <pt x="842" y="226" on="1"/>
      </contour>
      <contour>
        <pt x="284" y="368" on="1"/>
        <pt x="700" y="368" on="1"/>
        <pt x="700" y="1447" on="1"/>
        <pt x="284" y="1447" on="1"/>
      </contour>
    </TTGlyph>
    <TTGlyph name="shaddafathaarabic" xMin="142" yMin="226" xMax="842" yMax="1588">
      <contour>
        <pt x="142" y="226" on="1"/>
        <pt x="142" y="1588" on="1"/>
        <pt x="842" y="1588" on="1"/>
        <pt x="842" y="226" on="1"/>
      </contour>
      <contour>
        <pt x="284" y="368" on="1"/>
        <pt x="700" y="368" on="1"/>
        <pt x="700" y="1447" on="1"/>
        <pt x="284" y="1447" on="1"/>
      </contour>
    </TTGlyph>
    <TTGlyph name="shaddakasraarabic" xMin="142" yMin="226" xMax="842" yMax="1588">
      <contour>
        <pt x="142" y="226" on="1"/>
        <pt x="142" y="1588" on="1"/>
        <pt x="842" y="1588" on="1"/>
        <pt x="842" y="226" on="1"/>
      </contour>
      <contour>
        <pt x="284" y="368" on="1"/>
        <pt x="700" y="368" on="1"/>
        <pt x="700" y="1447" on="1"/>
        <pt x="284" y="1447" on="1"/>
      </contour>
    </TTGlyph>
    <TTGlyph name="shaddakasratanarabic" xMin="142" yMin="226" xMax="842" yMax="1588">
      <contour>
        <pt x="142" y="226" on="1"/>
        <pt x="142" y="1588" on="1"/>
        <pt x="842" y="1588" on="1"/>
        <pt x="842" y="226" on="1"/>
      </contour>
      <contour>
        <pt x="284" y="368" on="1"/>
        <pt x="700" y="368" on="1"/>
        <pt x="700" y="1447" on="1"/>
        <pt x="284" y="1447" on="1"/>
      </contour>
    </TTGlyph>
    <TTGlyph name="slash" xMin="142" yMin="226" xMax="842" yMax="1588">
      <contour>
        <pt x="142" y="226" on="1"/>
        <pt x="142" y="1588" on="1"/>
        <pt x="842" y="1588" on="1"/>
        <pt x="842" y="226" on="1"/>
      </contour>
      <contour>
        <pt x="284" y="368" on="1"/>
        <pt x="700" y="368" on="1"/>
        <pt x="700" y="1447" on="1"/>
        <pt x="284" y="1447" on="1"/>
      </contour>
    </TTGlyph>
    <TTGlyph name="space" xMin="142" yMin="226" xMax="842" yMax="1588">
      <contour>
        <pt x="142" y="226" on="1"/>
        <pt x="142" y="1588" on="1"/>
        <pt x="842" y="1588" on="1"/>
        <pt x="842" y="226" on="1"/>
      </contour>
      <contour>
        <pt x="284" y="368" on="1"/>
        <pt x="700" y="368" on="1"/>
        <pt x="700" y="1447" on="1"/>
        <pt x="284" y="1447" on="1"/>
      </contour>
    </TTGlyph>
    <TTGlyph name="tchehfinalarabic" xMin="142" yMin="226" xMax="842" yMax="1588">
      <contour>
        <pt x="142" y="226" on="1"/>
        <pt x="142" y="1588" on="1"/>
        <pt x="842" y="1588" on="1"/>
        <pt x="842" y="226" on="1"/>
      </contour>
      <contour>
        <pt x="284" y="368" on="1"/>
        <pt x="700" y="368" on="1"/>
        <pt x="700" y="1447" on="1"/>
        <pt x="284" y="1447" on="1"/>
      </contour>
    </TTGlyph>
    <TTGlyph name="tchehinitialarabic" xMin="142" yMin="226" xMax="842" yMax="1588">
      <contour>
        <pt x="142" y="226" on="1"/>
        <pt x="142" y="1588" on="1"/>
        <pt x="842" y="1588" on="1"/>
        <pt x="842" y="226" on="1"/>
      </contour>
      <contour>
        <pt x="284" y="368" on="1"/>
        <pt x="700" y="368" on="1"/>
        <pt x="700" y="1447" on="1"/>
        <pt x="284" y="1447" on="1"/>
      </contour>
    </TTGlyph>
    <TTGlyph name="tchehmedialarabic" xMin="142" yMin="226" xMax="842" yMax="1588">
      <contour>
        <pt x="142" y="226" on="1"/>
        <pt x="142" y="1588" on="1"/>
        <pt x="842" y="1588" on="1"/>
        <pt x="842" y="226" on="1"/>
      </contour>
      <contour>
        <pt x="284" y="368" on="1"/>
        <pt x="700" y="368" on="1"/>
        <pt x="700" y="1447" on="1"/>
        <pt x="284" y="1447" on="1"/>
      </contour>
    </TTGlyph>
    <TTGlyph name="tehhahisolatedarabic" xMin="142" yMin="226" xMax="842" yMax="1588">
      <contour>
        <pt x="142" y="226" on="1"/>
        <pt x="142" y="1588" on="1"/>
        <pt x="842" y="1588" on="1"/>
        <pt x="842" y="226" on="1"/>
      </contour>
      <contour>
        <pt x="284" y="368" on="1"/>
        <pt x="700" y="368" on="1"/>
        <pt x="700" y="1447" on="1"/>
        <pt x="284" y="1447" on="1"/>
      </contour>
    </TTGlyph>
    <TTGlyph name="tehjeemisolatedarabic" xMin="142" yMin="226" xMax="842" yMax="1588">
      <contour>
        <pt x="142" y="226" on="1"/>
        <pt x="142" y="1588" on="1"/>
        <pt x="842" y="1588" on="1"/>
        <pt x="842" y="226" on="1"/>
      </contour>
      <contour>
        <pt x="284" y="368" on="1"/>
        <pt x="700" y="368" on="1"/>
        <pt x="700" y="1447" on="1"/>
        <pt x="284" y="1447" on="1"/>
      </contour>
    </TTGlyph>
    <TTGlyph name="tehmeemisolatedarabic" xMin="142" yMin="226" xMax="842" yMax="1588">
      <contour>
        <pt x="142" y="226" on="1"/>
        <pt x="142" y="1588" on="1"/>
        <pt x="842" y="1588" on="1"/>
        <pt x="842" y="226" on="1"/>
      </contour>
      <contour>
        <pt x="284" y="368" on="1"/>
        <pt x="700" y="368" on="1"/>
        <pt x="700" y="1447" on="1"/>
        <pt x="284" y="1447" on="1"/>
      </contour>
    </TTGlyph>
    <TTGlyph name="tehnoonfinalarabic" xMin="142" yMin="226" xMax="842" yMax="1588">
      <contour>
        <pt x="142" y="226" on="1"/>
        <pt x="142" y="1588" on="1"/>
        <pt x="842" y="1588" on="1"/>
        <pt x="842" y="226" on="1"/>
      </contour>
      <contour>
        <pt x="284" y="368" on="1"/>
        <pt x="700" y="368" on="1"/>
        <pt x="700" y="1447" on="1"/>
        <pt x="284" y="1447" on="1"/>
      </contour>
    </TTGlyph>
    <TTGlyph name="tehringfinal" xMin="142" yMin="226" xMax="842" yMax="1588">
      <contour>
        <pt x="142" y="226" on="1"/>
        <pt x="142" y="1588" on="1"/>
        <pt x="842" y="1588" on="1"/>
        <pt x="842" y="226" on="1"/>
      </contour>
      <contour>
        <pt x="284" y="368" on="1"/>
        <pt x="700" y="368" on="1"/>
        <pt x="700" y="1447" on="1"/>
        <pt x="284" y="1447" on="1"/>
      </contour>
    </TTGlyph>
    <TTGlyph name="tehringinitial" xMin="142" yMin="226" xMax="842" yMax="1588">
      <contour>
        <pt x="142" y="226" on="1"/>
        <pt x="142" y="1588" on="1"/>
        <pt x="842" y="1588" on="1"/>
        <pt x="842" y="226" on="1"/>
      </contour>
      <contour>
        <pt x="284" y="368" on="1"/>
        <pt x="700" y="368" on="1"/>
        <pt x="700" y="1447" on="1"/>
        <pt x="284" y="1447" on="1"/>
      </contour>
    </TTGlyph>
    <TTGlyph name="tehringmedial" xMin="142" yMin="226" xMax="842" yMax="1588">
      <contour>
        <pt x="142" y="226" on="1"/>
        <pt x="142" y="1588" on="1"/>
        <pt x="842" y="1588" on="1"/>
        <pt x="842" y="226" on="1"/>
      </contour>
      <contour>
        <pt x="284" y="368" on="1"/>
        <pt x="700" y="368" on="1"/>
        <pt x="700" y="1447" on="1"/>
        <pt x="284" y="1447" on="1"/>
      </contour>
    </TTGlyph>
    <TTGlyph name="ttehfinalarabic" xMin="142" yMin="226" xMax="842" yMax="1588">
      <contour>
        <pt x="142" y="226" on="1"/>
        <pt x="142" y="1588" on="1"/>
        <pt x="842" y="1588" on="1"/>
        <pt x="842" y="226" on="1"/>
      </contour>
      <contour>
        <pt x="284" y="368" on="1"/>
        <pt x="700" y="368" on="1"/>
        <pt x="700" y="1447" on="1"/>
        <pt x="284" y="1447" on="1"/>
      </contour>
    </TTGlyph>
    <TTGlyph name="ttehinitialarabic" xMin="142" yMin="226" xMax="842" yMax="1588">
      <contour>
        <pt x="142" y="226" on="1"/>
        <pt x="142" y="1588" on="1"/>
        <pt x="842" y="1588" on="1"/>
        <pt x="842" y="226" on="1"/>
      </contour>
      <contour>
        <pt x="284" y="368" on="1"/>
        <pt x="700" y="368" on="1"/>
        <pt x="700" y="1447" on="1"/>
        <pt x="284" y="1447" on="1"/>
      </contour>
    </TTGlyph>
    <TTGlyph name="ttehmedialarabic" xMin="142" yMin="226" xMax="842" yMax="1588">
      <contour>
        <pt x="142" y="226" on="1"/>
        <pt x="142" y="1588" on="1"/>
        <pt x="842" y="1588" on="1"/>
        <pt x="842" y="226" on="1"/>
      </contour>
      <contour>
        <pt x="284" y="368" on="1"/>
        <pt x="700" y="368" on="1"/>
        <pt x="700" y="1447" on="1"/>
        <pt x="284" y="1447" on="1"/>
      </contour>
    </TTGlyph>
    <TTGlyph name="uni000D" xMin="142" yMin="226" xMax="842" yMax="1588">
      <contour>
        <pt x="142" y="226" on="1"/>
        <pt x="142" y="1588" on="1"/>
        <pt x="842" y="1588" on="1"/>
        <pt x="842" y="226" on="1"/>
      </contour>
      <contour>
        <pt x="284" y="368" on="1"/>
        <pt x="700" y="368" on="1"/>
        <pt x="700" y="1447" on="1"/>
        <pt x="284" y="1447" on="1"/>
      </contour>
    </TTGlyph>
    <TTGlyph name="uni00A0" xMin="142" yMin="226" xMax="842" yMax="1588">
      <contour>
        <pt x="142" y="226" on="1"/>
        <pt x="142" y="1588" on="1"/>
        <pt x="842" y="1588" on="1"/>
        <pt x="842" y="226" on="1"/>
      </contour>
      <contour>
        <pt x="284" y="368" on="1"/>
        <pt x="700" y="368" on="1"/>
        <pt x="700" y="1447" on="1"/>
        <pt x="284" y="1447" on="1"/>
      </contour>
    </TTGlyph>
    <TTGlyph name="uni00AD" xMin="142" yMin="226" xMax="842" yMax="1588">
      <contour>
        <pt x="142" y="226" on="1"/>
        <pt x="142" y="1588" on="1"/>
        <pt x="842" y="1588" on="1"/>
        <pt x="842" y="226" on="1"/>
      </contour>
      <contour>
        <pt x="284" y="368" on="1"/>
        <pt x="700" y="368" on="1"/>
        <pt x="700" y="1447" on="1"/>
        <pt x="284" y="1447" on="1"/>
      </contour>
    </TTGlyph>
    <TTGlyph name="uni0653" xMin="142" yMin="226" xMax="842" yMax="1588">
      <contour>
        <pt x="142" y="226" on="1"/>
        <pt x="142" y="1588" on="1"/>
        <pt x="842" y="1588" on="1"/>
        <pt x="842" y="226" on="1"/>
      </contour>
      <contour>
        <pt x="284" y="368" on="1"/>
        <pt x="700" y="368" on="1"/>
        <pt x="700" y="1447" on="1"/>
        <pt x="284" y="1447" on="1"/>
      </contour>
    </TTGlyph>
    <TTGlyph name="uni0654" xMin="142" yMin="226" xMax="842" yMax="1588">
      <contour>
        <pt x="142" y="226" on="1"/>
        <pt x="142" y="1588" on="1"/>
        <pt x="842" y="1588" on="1"/>
        <pt x="842" y="226" on="1"/>
      </contour>
      <contour>
        <pt x="284" y="368" on="1"/>
        <pt x="700" y="368" on="1"/>
        <pt x="700" y="1447" on="1"/>
        <pt x="284" y="1447" on="1"/>
      </contour>
    </TTGlyph>
    <TTGlyph name="uni0655" xMin="142" yMin="226" xMax="842" yMax="1588">
      <contour>
        <pt x="142" y="226" on="1"/>
        <pt x="142" y="1588" on="1"/>
        <pt x="842" y="1588" on="1"/>
        <pt x="842" y="226" on="1"/>
      </contour>
      <contour>
        <pt x="284" y="368" on="1"/>
        <pt x="700" y="368" on="1"/>
        <pt x="700" y="1447" on="1"/>
        <pt x="284" y="1447" on="1"/>
      </contour>
    </TTGlyph>
    <TTGlyph name="uni066B" xMin="142" yMin="226" xMax="842" yMax="1588">
      <contour>
        <pt x="142" y="226" on="1"/>
        <pt x="142" y="1588" on="1"/>
        <pt x="842" y="1588" on="1"/>
        <pt x="842" y="226" on="1"/>
      </contour>
      <contour>
        <pt x="284" y="368" on="1"/>
        <pt x="700" y="368" on="1"/>
        <pt x="700" y="1447" on="1"/>
        <pt x="284" y="1447" on="1"/>
      </contour>
    </TTGlyph>
    <TTGlyph name="uni066C" xMin="142" yMin="226" xMax="842" yMax="1588">
      <contour>
        <pt x="142" y="226" on="1"/>
        <pt x="142" y="1588" on="1"/>
        <pt x="842" y="1588" on="1"/>
        <pt x="842" y="226" on="1"/>
      </contour>
      <contour>
        <pt x="284" y="368" on="1"/>
        <pt x="700" y="368" on="1"/>
        <pt x="700" y="1447" on="1"/>
        <pt x="284" y="1447" on="1"/>
      </contour>
    </TTGlyph>
    <TTGlyph name="uni0671" xMin="142" yMin="226" xMax="842" yMax="1588">
      <contour>
        <pt x="142" y="226" on="1"/>
        <pt x="142" y="1588" on="1"/>
        <pt x="842" y="1588" on="1"/>
        <pt x="842" y="226" on="1"/>
      </contour>
      <contour>
        <pt x="284" y="368" on="1"/>
        <pt x="700" y="368" on="1"/>
        <pt x="700" y="1447" on="1"/>
        <pt x="284" y="1447" on="1"/>
      </contour>
    </TTGlyph>
    <TTGlyph name="uni067C" xMin="142" yMin="226" xMax="842" yMax="1588">
      <contour>
        <pt x="142" y="226" on="1"/>
        <pt x="142" y="1588" on="1"/>
        <pt x="842" y="1588" on="1"/>
        <pt x="842" y="226" on="1"/>
      </contour>
      <contour>
        <pt x="284" y="368" on="1"/>
        <pt x="700" y="368" on="1"/>
        <pt x="700" y="1447" on="1"/>
        <pt x="284" y="1447" on="1"/>
      </contour>
    </TTGlyph>
    <TTGlyph name="uni0681" xMin="142" yMin="226" xMax="842" yMax="1588">
      <contour>
        <pt x="142" y="226" on="1"/>
        <pt x="142" y="1588" on="1"/>
        <pt x="842" y="1588" on="1"/>
        <pt x="842" y="226" on="1"/>
      </contour>
      <contour>
        <pt x="284" y="368" on="1"/>
        <pt x="700" y="368" on="1"/>
        <pt x="700" y="1447" on="1"/>
        <pt x="284" y="1447" on="1"/>
      </contour>
    </TTGlyph>
    <TTGlyph name="uni0685" xMin="142" yMin="226" xMax="842" yMax="1588">
      <contour>
        <pt x="142" y="226" on="1"/>
        <pt x="142" y="1588" on="1"/>
        <pt x="842" y="1588" on="1"/>
        <pt x="842" y="226" on="1"/>
      </contour>
      <contour>
        <pt x="284" y="368" on="1"/>
        <pt x="700" y="368" on="1"/>
        <pt x="700" y="1447" on="1"/>
        <pt x="284" y="1447" on="1"/>
      </contour>
    </TTGlyph>
    <TTGlyph name="uni0689" xMin="142" yMin="226" xMax="842" yMax="1588">
      <contour>
        <pt x="142" y="226" on="1"/>
        <pt x="142" y="1588" on="1"/>
        <pt x="842" y="1588" on="1"/>
        <pt x="842" y="226" on="1"/>
      </contour>
      <contour>
        <pt x="284" y="368" on="1"/>
        <pt x="700" y="368" on="1"/>
        <pt x="700" y="1447" on="1"/>
        <pt x="284" y="1447" on="1"/>
      </contour>
    </TTGlyph>
    <TTGlyph name="uni0693" xMin="142" yMin="226" xMax="842" yMax="1588">
      <contour>
        <pt x="142" y="226" on="1"/>
        <pt x="142" y="1588" on="1"/>
        <pt x="842" y="1588" on="1"/>
        <pt x="842" y="226" on="1"/>
      </contour>
      <contour>
        <pt x="284" y="368" on="1"/>
        <pt x="700" y="368" on="1"/>
        <pt x="700" y="1447" on="1"/>
        <pt x="284" y="1447" on="1"/>
      </contour>
    </TTGlyph>
    <TTGlyph name="uni0696" xMin="142" yMin="226" xMax="842" yMax="1588">
      <contour>
        <pt x="142" y="226" on="1"/>
        <pt x="142" y="1588" on="1"/>
        <pt x="842" y="1588" on="1"/>
        <pt x="842" y="226" on="1"/>
      </contour>
      <contour>
        <pt x="284" y="368" on="1"/>
        <pt x="700" y="368" on="1"/>
        <pt x="700" y="1447" on="1"/>
        <pt x="284" y="1447" on="1"/>
      </contour>
    </TTGlyph>
    <TTGlyph name="uni069A" xMin="142" yMin="226" xMax="842" yMax="1588">
      <contour>
        <pt x="142" y="226" on="1"/>
        <pt x="142" y="1588" on="1"/>
        <pt x="842" y="1588" on="1"/>
        <pt x="842" y="226" on="1"/>
      </contour>
      <contour>
        <pt x="284" y="368" on="1"/>
        <pt x="700" y="368" on="1"/>
        <pt x="700" y="1447" on="1"/>
        <pt x="284" y="1447" on="1"/>
      </contour>
    </TTGlyph>
    <TTGlyph name="uni06A9" xMin="142" yMin="226" xMax="842" yMax="1588">
      <contour>
        <pt x="142" y="226" on="1"/>
        <pt x="142" y="1588" on="1"/>
        <pt x="842" y="1588" on="1"/>
        <pt x="842" y="226" on="1"/>
      </contour>
      <contour>
        <pt x="284" y="368" on="1"/>
        <pt x="700" y="368" on="1"/>
        <pt x="700" y="1447" on="1"/>
        <pt x="284" y="1447" on="1"/>
      </contour>
    </TTGlyph>
    <TTGlyph name="uni06AB" xMin="142" yMin="226" xMax="842" yMax="1588">
      <contour>
        <pt x="142" y="226" on="1"/>
        <pt x="142" y="1588" on="1"/>
        <pt x="842" y="1588" on="1"/>
        <pt x="842" y="226" on="1"/>
      </contour>
      <contour>
        <pt x="284" y="368" on="1"/>
        <pt x="700" y="368" on="1"/>
        <pt x="700" y="1447" on="1"/>
        <pt x="284" y="1447" on="1"/>
      </contour>
    </TTGlyph>
    <TTGlyph name="uni06B7" xMin="142" yMin="226" xMax="842" yMax="1588">
      <contour>
        <pt x="142" y="226" on="1"/>
        <pt x="142" y="1588" on="1"/>
        <pt x="842" y="1588" on="1"/>
        <pt x="842" y="226" on="1"/>
      </contour>
      <contour>
        <pt x="284" y="368" on="1"/>
        <pt x="700" y="368" on="1"/>
        <pt x="700" y="1447" on="1"/>
        <pt x="284" y="1447" on="1"/>
      </contour>
    </TTGlyph>
    <TTGlyph name="uni06BC" xMin="142" yMin="226" xMax="842" yMax="1588">
      <contour>
        <pt x="142" y="226" on="1"/>
        <pt x="142" y="1588" on="1"/>
        <pt x="842" y="1588" on="1"/>
        <pt x="842" y="226" on="1"/>
      </contour>
      <contour>
        <pt x="284" y="368" on="1"/>
        <pt x="700" y="368" on="1"/>
        <pt x="700" y="1447" on="1"/>
        <pt x="284" y="1447" on="1"/>
      </contour>
    </TTGlyph>
    <TTGlyph name="uni06BE" xMin="142" yMin="226" xMax="842" yMax="1588">
      <contour>
        <pt x="142" y="226" on="1"/>
        <pt x="142" y="1588" on="1"/>
        <pt x="842" y="1588" on="1"/>
        <pt x="842" y="226" on="1"/>
      </contour>
      <contour>
        <pt x="284" y="368" on="1"/>
        <pt x="700" y="368" on="1"/>
        <pt x="700" y="1447" on="1"/>
        <pt x="284" y="1447" on="1"/>
      </contour>
    </TTGlyph>
    <TTGlyph name="uni06C2" xMin="142" yMin="226" xMax="842" yMax="1588">
      <contour>
        <pt x="142" y="226" on="1"/>
        <pt x="142" y="1588" on="1"/>
        <pt x="842" y="1588" on="1"/>
        <pt x="842" y="226" on="1"/>
      </contour>
      <contour>
        <pt x="284" y="368" on="1"/>
        <pt x="700" y="368" on="1"/>
        <pt x="700" y="1447" on="1"/>
        <pt x="284" y="1447" on="1"/>
      </contour>
    </TTGlyph>
    <TTGlyph name="uni06C7" xMin="142" yMin="226" xMax="842" yMax="1588">
      <contour>
        <pt x="142" y="226" on="1"/>
        <pt x="142" y="1588" on="1"/>
        <pt x="842" y="1588" on="1"/>
        <pt x="842" y="226" on="1"/>
      </contour>
      <contour>
        <pt x="284" y="368" on="1"/>
        <pt x="700" y="368" on="1"/>
        <pt x="700" y="1447" on="1"/>
        <pt x="284" y="1447" on="1"/>
      </contour>
    </TTGlyph>
    <TTGlyph name="uni06C9" xMin="142" yMin="226" xMax="842" yMax="1588">
      <contour>
        <pt x="142" y="226" on="1"/>
        <pt x="142" y="1588" on="1"/>
        <pt x="842" y="1588" on="1"/>
        <pt x="842" y="226" on="1"/>
      </contour>
      <contour>
        <pt x="284" y="368" on="1"/>
        <pt x="700" y="368" on="1"/>
        <pt x="700" y="1447" on="1"/>
        <pt x="284" y="1447" on="1"/>
      </contour>
    </TTGlyph>
    <TTGlyph name="uni06CC" xMin="142" yMin="226" xMax="842" yMax="1588">
      <contour>
        <pt x="142" y="226" on="1"/>
        <pt x="142" y="1588" on="1"/>
        <pt x="842" y="1588" on="1"/>
        <pt x="842" y="226" on="1"/>
      </contour>
      <contour>
        <pt x="284" y="368" on="1"/>
        <pt x="700" y="368" on="1"/>
        <pt x="700" y="1447" on="1"/>
        <pt x="284" y="1447" on="1"/>
      </contour>
    </TTGlyph>
    <TTGlyph name="uni06CD" xMin="142" yMin="226" xMax="842" yMax="1588">
      <contour>
        <pt x="142" y="226" on="1"/>
        <pt x="142" y="1588" on="1"/>
        <pt x="842" y="1588" on="1"/>
        <pt x="842" y="226" on="1"/>
      </contour>
      <contour>
        <pt x="284" y="368" on="1"/>
        <pt x="700" y="368" on="1"/>
        <pt x="700" y="1447" on="1"/>
        <pt x="284" y="1447" on="1"/>
      </contour>
    </TTGlyph>
    <TTGlyph name="uni06D0" xMin="142" yMin="226" xMax="842" yMax="1588">
      <contour>
        <pt x="142" y="226" on="1"/>
        <pt x="142" y="1588" on="1"/>
        <pt x="842" y="1588" on="1"/>
        <pt x="842" y="226" on="1"/>
      </contour>
      <contour>
        <pt x="284" y="368" on="1"/>
        <pt x="700" y="368" on="1"/>
        <pt x="700" y="1447" on="1"/>
        <pt x="284" y="1447" on="1"/>
      </contour>
    </TTGlyph>
    <TTGlyph name="uni06D1" xMin="142" yMin="226" xMax="842" yMax="1588">
      <contour>
        <pt x="142" y="226" on="1"/>
        <pt x="142" y="1588" on="1"/>
        <pt x="842" y="1588" on="1"/>
        <pt x="842" y="226" on="1"/>
      </contour>
      <contour>
        <pt x="284" y="368" on="1"/>
        <pt x="700" y="368" on="1"/>
        <pt x="700" y="1447" on="1"/>
        <pt x="284" y="1447" on="1"/>
      </contour>
    </TTGlyph>
    <TTGlyph name="uni06D3" xMin="142" yMin="226" xMax="842" yMax="1588">
      <contour>
        <pt x="142" y="226" on="1"/>
        <pt x="142" y="1588" on="1"/>
        <pt x="842" y="1588" on="1"/>
        <pt x="842" y="226" on="1"/>
      </contour>
      <contour>
        <pt x="284" y="368" on="1"/>
        <pt x="700" y="368" on="1"/>
        <pt x="700" y="1447" on="1"/>
        <pt x="284" y="1447" on="1"/>
      </contour>
    </TTGlyph>
    <TTGlyph name="uni06D4" xMin="142" yMin="226" xMax="842" yMax="1588">
      <contour>
        <pt x="142" y="226" on="1"/>
        <pt x="142" y="1588" on="1"/>
        <pt x="842" y="1588" on="1"/>
        <pt x="842" y="226" on="1"/>
      </contour>
      <contour>
        <pt x="284" y="368" on="1"/>
        <pt x="700" y="368" on="1"/>
        <pt x="700" y="1447" on="1"/>
        <pt x="284" y="1447" on="1"/>
      </contour>
    </TTGlyph>
    <TTGlyph name="uni06F0" xMin="142" yMin="226" xMax="842" yMax="1588">
      <contour>
        <pt x="142" y="226" on="1"/>
        <pt x="142" y="1588" on="1"/>
        <pt x="842" y="1588" on="1"/>
        <pt x="842" y="226" on="1"/>
      </contour>
      <contour>
        <pt x="284" y="368" on="1"/>
        <pt x="700" y="368" on="1"/>
        <pt x="700" y="1447" on="1"/>
        <pt x="284" y="1447" on="1"/>
      </contour>
    </TTGlyph>
    <TTGlyph name="uni06F1" xMin="142" yMin="226" xMax="842" yMax="1588">
      <contour>
        <pt x="142" y="226" on="1"/>
        <pt x="142" y="1588" on="1"/>
        <pt x="842" y="1588" on="1"/>
        <pt x="842" y="226" on="1"/>
      </contour>
      <contour>
        <pt x="284" y="368" on="1"/>
        <pt x="700" y="368" on="1"/>
        <pt x="700" y="1447" on="1"/>
        <pt x="284" y="1447" on="1"/>
      </contour>
    </TTGlyph>
    <TTGlyph name="uni06F2" xMin="142" yMin="226" xMax="842" yMax="1588">
      <contour>
        <pt x="142" y="226" on="1"/>
        <pt x="142" y="1588" on="1"/>
        <pt x="842" y="1588" on="1"/>
        <pt x="842" y="226" on="1"/>
      </contour>
      <contour>
        <pt x="284" y="368" on="1"/>
        <pt x="700" y="368" on="1"/>
        <pt x="700" y="1447" on="1"/>
        <pt x="284" y="1447" on="1"/>
      </contour>
    </TTGlyph>
    <TTGlyph name="uni06F3" xMin="142" yMin="226" xMax="842" yMax="1588">
      <contour>
        <pt x="142" y="226" on="1"/>
        <pt x="142" y="1588" on="1"/>
        <pt x="842" y="1588" on="1"/>
        <pt x="842" y="226" on="1"/>
      </contour>
      <contour>
        <pt x="284" y="368" on="1"/>
        <pt x="700" y="368" on="1"/>
        <pt x="700" y="1447" on="1"/>
        <pt x="284" y="1447" on="1"/>
      </contour>
    </TTGlyph>
    <TTGlyph name="uni06F4" xMin="142" yMin="226" xMax="842" yMax="1588">
      <contour>
        <pt x="142" y="226" on="1"/>
        <pt x="142" y="1588" on="1"/>
        <pt x="842" y="1588" on="1"/>
        <pt x="842" y="226" on="1"/>
      </contour>
      <contour>
        <pt x="284" y="368" on="1"/>
        <pt x="700" y="368" on="1"/>
        <pt x="700" y="1447" on="1"/>
        <pt x="284" y="1447" on="1"/>
      </contour>
    </TTGlyph>
    <TTGlyph name="uni06F5" xMin="142" yMin="226" xMax="842" yMax="1588">
      <contour>
        <pt x="142" y="226" on="1"/>
        <pt x="142" y="1588" on="1"/>
        <pt x="842" y="1588" on="1"/>
        <pt x="842" y="226" on="1"/>
      </contour>
      <contour>
        <pt x="284" y="368" on="1"/>
        <pt x="700" y="368" on="1"/>
        <pt x="700" y="1447" on="1"/>
        <pt x="284" y="1447" on="1"/>
      </contour>
    </TTGlyph>
    <TTGlyph name="uni06F6" xMin="142" yMin="226" xMax="842" yMax="1588">
      <contour>
        <pt x="142" y="226" on="1"/>
        <pt x="142" y="1588" on="1"/>
        <pt x="842" y="1588" on="1"/>
        <pt x="842" y="226" on="1"/>
      </contour>
      <contour>
        <pt x="284" y="368" on="1"/>
        <pt x="700" y="368" on="1"/>
        <pt x="700" y="1447" on="1"/>
        <pt x="284" y="1447" on="1"/>
      </contour>
    </TTGlyph>
    <TTGlyph name="uni06F7" xMin="142" yMin="226" xMax="842" yMax="1588">
      <contour>
        <pt x="142" y="226" on="1"/>
        <pt x="142" y="1588" on="1"/>
        <pt x="842" y="1588" on="1"/>
        <pt x="842" y="226" on="1"/>
      </contour>
      <contour>
        <pt x="284" y="368" on="1"/>
        <pt x="700" y="368" on="1"/>
        <pt x="700" y="1447" on="1"/>
        <pt x="284" y="1447" on="1"/>
      </contour>
    </TTGlyph>
    <TTGlyph name="uni06F8" xMin="142" yMin="226" xMax="842" yMax="1588">
      <contour>
        <pt x="142" y="226" on="1"/>
        <pt x="142" y="1588" on="1"/>
        <pt x="842" y="1588" on="1"/>
        <pt x="842" y="226" on="1"/>
      </contour>
      <contour>
        <pt x="284" y="368" on="1"/>
        <pt x="700" y="368" on="1"/>
        <pt x="700" y="1447" on="1"/>
        <pt x="284" y="1447" on="1"/>
      </contour>
    </TTGlyph>
    <TTGlyph name="uni06F9" xMin="142" yMin="226" xMax="842" yMax="1588">
      <contour>
        <pt x="142" y="226" on="1"/>
        <pt x="142" y="1588" on="1"/>
        <pt x="842" y="1588" on="1"/>
        <pt x="842" y="226" on="1"/>
      </contour>
      <contour>
        <pt x="284" y="368" on="1"/>
        <pt x="700" y="368" on="1"/>
        <pt x="700" y="1447" on="1"/>
        <pt x="284" y="1447" on="1"/>
      </contour>
    </TTGlyph>
    <TTGlyph name="uni2010" xMin="407" yMin="-505" xMax="3069" yMax="1674">
      <contour>
        <pt x="2976" y="1362" on="1"/>
        <pt x="2977" y="1338" on="0"/>
        <pt x="2901" y="1294" on="1"/>
        <pt x="2861" y="1273" on="0"/>
        <pt x="2820" y="1252" on="1"/>
        <pt x="2706" y="1193" on="0"/>
        <pt x="2476" y="1072" on="1"/>
        <pt x="2476" y="1140" on="1"/>
        <pt x="2499" y="1166" on="0"/>
        <pt x="2552" y="1210" on="1"/>
        <pt x="2685" y="1279" on="0"/>
        <pt x="2951" y="1419" on="1"/>
        <pt x="2966" y="1407" on="0"/>
        <pt x="2976" y="1407" on="1"/>
      </contour>
      <contour>
        <pt x="2045" y="1617" on="1"/>
        <pt x="2033" y="1600" on="0"/>
        <pt x="2012" y="1576" on="1"/>
        <pt x="1995" y="1566" on="0"/>
        <pt x="1779" y="1448" on="1"/>
        <pt x="1634" y="1368" on="0"/>
        <pt x="1619" y="1368" on="1"/>
        <pt x="1566" y="1368" on="1"/>
        <pt x="1563" y="1377" on="0"/>
        <pt x="1554" y="1393" on="1"/>
        <pt x="1585" y="1451" on="0"/>
        <pt x="1607" y="1466" on="1"/>
        <pt x="1732" y="1546" on="0"/>
        <pt x="2032" y="1674" on="1"/>
      </contour>
      <contour>
        <pt x="2679" y="938" on="1"/>
        <pt x="2679" y="858" on="0"/>
        <pt x="2515" y="794" on="1"/>
        <pt x="2385" y="743" on="0"/>
        <pt x="2321" y="743" on="1"/>
        <pt x="2310" y="743" on="0"/>
        <pt x="2212" y="774" on="0"/>
        <pt x="2199" y="774" on="1"/>
        <pt x="2185" y="774" on="0"/>
        <pt x="2151" y="747" on="1"/>
        <pt x="2114" y="717" on="0"/>
        <pt x="2100" y="713" on="1"/>
        <pt x="2086" y="727" on="0"/>
        <pt x="2086" y="748" on="1"/>
        <pt x="2086" y="795" on="0"/>
        <pt x="2140" y="843" on="1"/>
        <pt x="2189" y="886" on="0"/>
        <pt x="2219" y="886" on="1"/>
        <pt x="2231" y="886" on="0"/>
        <pt x="2329" y="856" on="0"/>
        <pt x="2342" y="856" on="1"/>
        <pt x="2448" y="856" on="0"/>
        <pt x="2520" y="893" on="1"/>
        <pt x="2588" y="931" on="0"/>
        <pt x="2655" y="968" on="1"/>
        <pt x="2663" y="963" on="0"/>
        <pt x="2679" y="954" on="0"/>
      </contour>
      <contour>
        <pt x="2977" y="247" on="1"/>
        <pt x="2977" y="251" on="0"/>
        <pt x="2938" y="122" on="1"/>
        <pt x="2929" y="93" on="0"/>
        <pt x="2927" y="88" on="1"/>
        <pt x="2917" y="66" on="0"/>
        <pt x="2901" y="60" on="1"/>
        <pt x="2699" y="-14" on="0"/>
        <pt x="2433" y="-14" on="1"/>
        <pt x="2246" y="-14" on="1"/>
        <pt x="2135" y="-14" on="0"/>
        <pt x="2090" y="-5" on="1"/>
        <pt x="1991" y="13" on="0"/>
        <pt x="1956" y="80" on="1"/>
        <pt x="1939" y="113" on="0"/>
        <pt x="1928" y="215" on="1"/>
        <pt x="1903" y="464" on="0"/>
        <pt x="1887" y="666" on="1"/>
        <pt x="1868" y="768" on="0"/>
        <pt x="1843" y="973" on="1"/>
        <pt x="1842" y="979" on="0"/>
        <pt x="1872" y="1094" on="1"/>
        <pt x="1858" y="1102" on="0"/>
        <pt x="1822" y="1095" on="1"/>
        <pt x="1788" y="1090" on="0"/>
        <pt x="1775" y="1081" on="1"/>
        <pt x="1740" y="1081" on="1"/>
        <pt x="1740" y="1108" on="0"/>
        <pt x="1734" y="1157" on="1"/>
        <pt x="1732" y="1163" on="0"/>
        <pt x="1719" y="1185" on="1"/>
        <pt x="1707" y="1205" on="0"/>
        <pt x="1707" y="1219" on="1"/>
        <pt x="1707" y="1253" on="0"/>
        <pt x="1778" y="1325" on="1"/>
        <pt x="1851" y="1398" on="0"/>
        <pt x="1896" y="1398" on="1"/>
        <pt x="1920" y="1398" on="0"/>
        <pt x="1950" y="1375" on="1"/>
        <pt x="1984" y="1350" on="0"/>
        <pt x="1984" y="1321" on="1"/>
        <pt x="1984" y="1299" on="0"/>
        <pt x="1943" y="1261" on="1"/>
        <pt x="1970" y="1239" on="0"/>
        <pt x="2018" y="1241" on="1"/>
        <pt x="2073" y="1243" on="0"/>
        <pt x="2095" y="1232" on="1"/>
        <pt x="2093" y="1198" on="0"/>
        <pt x="2036" y="1169" on="1"/>
        <pt x="1955" y="1127" on="0"/>
        <pt x="1942" y="1117" on="1"/>
        <pt x="1945" y="1072" on="0"/>
        <pt x="2000" y="544" on="1"/>
        <pt x="2011" y="429" on="0"/>
        <pt x="2021" y="315" on="1"/>
        <pt x="2036" y="219" on="0"/>
        <pt x="2081" y="182" on="1"/>
        <pt x="2135" y="139" on="0"/>
        <pt x="2265" y="139" on="1"/>
        <pt x="2276" y="139" on="0"/>
        <pt x="2507" y="149" on="0"/>
        <pt x="2521" y="149" on="1"/>
        <pt x="2854" y="149" on="0"/>
        <pt x="2854" y="237" on="1"/>
        <pt x="2854" y="248" on="0"/>
        <pt x="2761" y="383" on="0"/>
        <pt x="2761" y="395" on="1"/>
        <pt x="2761" y="442" on="0"/>
        <pt x="2806" y="507" on="1"/>
        <pt x="2841" y="507" on="1"/>
        <pt x="2977" y="362" on="0"/>
      </contour>
      <contour>
        <pt x="2506" y="462" on="1"/>
        <pt x="2506" y="404" on="0"/>
        <pt x="2459" y="354" on="1"/>
        <pt x="2443" y="376" on="0"/>
        <pt x="2422" y="433" on="1"/>
        <pt x="2394" y="512" on="0"/>
        <pt x="2385" y="530" on="0"/>
        <pt x="2346" y="578" on="1"/>
        <pt x="2312" y="621" on="0"/>
        <pt x="2312" y="636" on="1"/>
        <pt x="2312" y="652" on="0"/>
        <pt x="2326" y="679" on="1"/>
        <pt x="2345" y="713" on="0"/>
        <pt x="2367" y="713" on="1"/>
        <pt x="2442" y="713" on="0"/>
        <pt x="2502" y="514" on="1"/>
        <pt x="2506" y="501" on="0"/>
      </contour>
      <contour>
        <pt x="3069" y="-219" on="1"/>
        <pt x="3069" y="-241" on="0"/>
        <pt x="3000" y="-331" on="0"/>
        <pt x="2977" y="-331" on="1"/>
        <pt x="2966" y="-331" on="0"/>
        <pt x="2908" y="-301" on="0"/>
        <pt x="2895" y="-301" on="1"/>
        <pt x="2882" y="-301" on="0"/>
        <pt x="2795" y="-352" on="0"/>
        <pt x="2782" y="-352" on="1"/>
        <pt x="2751" y="-352" on="0"/>
        <pt x="2713" y="-315" on="1"/>
        <pt x="2679" y="-283" on="0"/>
        <pt x="2679" y="-270" on="1"/>
        <pt x="2679" y="-253" on="0"/>
        <pt x="2760" y="-167" on="0"/>
        <pt x="2777" y="-167" on="1"/>
        <pt x="2788" y="-167" on="0"/>
        <pt x="2847" y="-208" on="0"/>
        <pt x="2864" y="-208" on="1"/>
        <pt x="2879" y="-208" on="0"/>
        <pt x="2959" y="-147" on="0"/>
        <pt x="2972" y="-147" on="1"/>
        <pt x="2992" y="-147" on="0"/>
        <pt x="3069" y="-200" on="0"/>
      </contour>
      <contour>
        <pt x="1492" y="1189" on="1"/>
        <pt x="1492" y="1132" on="0"/>
        <pt x="1446" y="1132" on="1"/>
        <pt x="1433" y="1132" on="0"/>
        <pt x="1408" y="1153" on="0"/>
        <pt x="1395" y="1153" on="1"/>
        <pt x="1395" y="1153" on="0"/>
        <pt x="1091" y="969" on="0"/>
        <pt x="1025" y="969" on="1"/>
        <pt x="981" y="969" on="1"/>
        <pt x="981" y="987" on="0"/>
        <pt x="984" y="997" on="1"/>
        <pt x="993" y="1004" on="0"/>
        <pt x="1147" y="1094" on="1"/>
        <pt x="1251" y="1156" on="0"/>
        <pt x="1297" y="1210" on="1"/>
        <pt x="1293" y="1231" on="0"/>
        <pt x="1257" y="1260" on="1"/>
        <pt x="1226" y="1285" on="0"/>
        <pt x="1226" y="1337" on="1"/>
        <pt x="1226" y="1387" on="0"/>
        <pt x="1272" y="1443" on="1"/>
        <pt x="1321" y="1501" on="0"/>
        <pt x="1374" y="1501" on="1"/>
        <pt x="1456" y="1501" on="0"/>
        <pt x="1456" y="1362" on="1"/>
        <pt x="1456" y="1255" on="0"/>
        <pt x="1454" y="1271" on="1"/>
        <pt x="1455" y="1264" on="0"/>
        <pt x="1492" y="1208" on="0"/>
      </contour>
      <contour>
        <pt x="1154" y="1547" on="1"/>
        <pt x="1154" y="1496" on="0"/>
        <pt x="1111" y="1473" on="1"/>
        <pt x="972" y="1405" on="0"/>
        <pt x="700" y="1256" on="1"/>
        <pt x="665" y="1256" on="1"/>
        <pt x="653" y="1257" on="0"/>
        <pt x="653" y="1280" on="1"/>
        <pt x="653" y="1332" on="0"/>
        <pt x="847" y="1438" on="1"/>
        <pt x="971" y="1505" on="0"/>
        <pt x="1097" y="1572" on="1"/>
        <pt x="1142" y="1572" on="1"/>
        <pt x="1154" y="1570" on="0"/>
      </contour>
      <contour>
        <pt x="1564" y="866" on="1"/>
        <pt x="1564" y="727" on="0"/>
        <pt x="1375" y="688" on="1"/>
        <pt x="1365" y="686" on="0"/>
        <pt x="1316" y="651" on="0"/>
        <pt x="1302" y="651" on="1"/>
        <pt x="1226" y="651" on="0"/>
        <pt x="1226" y="748" on="1"/>
        <pt x="1226" y="805" on="0"/>
        <pt x="1260" y="854" on="1"/>
        <pt x="1297" y="854" on="1"/>
        <pt x="1297" y="793" on="1"/>
        <pt x="1299" y="793" on="0"/>
        <pt x="1314" y="784" on="0"/>
        <pt x="1329" y="784" on="1"/>
        <pt x="1343" y="784" on="0"/>
        <pt x="1370" y="825" on="1"/>
        <pt x="1412" y="886" on="0"/>
        <pt x="1420" y="897" on="1"/>
        <pt x="1428" y="871" on="0"/>
        <pt x="1456" y="825" on="1"/>
        <pt x="1476" y="861" on="0"/>
        <pt x="1527" y="927" on="1"/>
        <pt x="1564" y="909" on="0"/>
      </contour>
      <contour>
        <pt x="1656" y="206" on="1"/>
        <pt x="1656" y="175" on="0"/>
        <pt x="1591" y="88" on="1"/>
        <pt x="1589" y="89" on="0"/>
        <pt x="1515" y="132" on="1"/>
        <pt x="1466" y="160" on="0"/>
        <pt x="1451" y="160" on="1"/>
        <pt x="1399" y="160" on="0"/>
        <pt x="1299" y="110" on="1"/>
        <pt x="1212" y="66" on="0"/>
        <pt x="1194" y="45" on="1"/>
        <pt x="1147" y="-11" on="0"/>
        <pt x="1126" y="-102" on="1"/>
        <pt x="1122" y="-118" on="0"/>
        <pt x="1122" y="-139" on="1"/>
        <pt x="1122" y="-173" on="0"/>
        <pt x="1134" y="-234" on="1"/>
        <pt x="1148" y="-310" on="0"/>
        <pt x="1151" y="-326" on="1"/>
        <pt x="1154" y="-357" on="0"/>
        <pt x="1049" y="-505" on="1"/>
        <pt x="1013" y="-505" on="1"/>
        <pt x="948" y="-418" on="0"/>
        <pt x="912" y="-214" on="1"/>
        <pt x="915" y="-169" on="0"/>
        <pt x="915" y="-72" on="1"/>
        <pt x="908" y="-58" on="0"/>
        <pt x="892" y="-38" on="1"/>
        <pt x="856" y="-36" on="0"/>
        <pt x="729" y="-18" on="1"/>
        <pt x="576" y="4" on="0"/>
        <pt x="532" y="169" on="1"/>
        <pt x="507" y="315" on="0"/>
        <pt x="482" y="460" on="1"/>
        <pt x="480" y="464" on="0"/>
        <pt x="489" y="502" on="0"/>
        <pt x="489" y="513" on="1"/>
        <pt x="407" y="1128" on="1"/>
        <pt x="418" y="1166" on="0"/>
        <pt x="450" y="1234" on="1"/>
        <pt x="481" y="1234" on="0"/>
        <pt x="495" y="1212" on="1"/>
        <pt x="528" y="1119" on="0"/>
        <pt x="547" y="905" on="1"/>
        <pt x="560" y="725" on="0"/>
        <pt x="573" y="546" on="1"/>
        <pt x="586" y="496" on="0"/>
        <pt x="604" y="401" on="1"/>
        <pt x="618" y="259" on="0"/>
        <pt x="675" y="188" on="1"/>
        <pt x="703" y="153" on="0"/>
        <pt x="782" y="131" on="1"/>
        <pt x="790" y="129" on="0"/>
        <pt x="842" y="129" on="1"/>
        <pt x="934" y="129" on="0"/>
        <pt x="986" y="171" on="1"/>
        <pt x="994" y="178" on="0"/>
        <pt x="1116" y="313" on="1"/>
        <pt x="1161" y="313" on="1"/>
        <pt x="1175" y="300" on="0"/>
        <pt x="1175" y="283" on="1"/>
        <pt x="1175" y="258" on="0"/>
        <pt x="1114" y="143" on="1"/>
        <pt x="1056" y="34" on="0"/>
        <pt x="1041" y="20" on="1"/>
        <pt x="1048" y="-24" on="1"/>
        <pt x="1197" y="207" on="0"/>
        <pt x="1342" y="268" on="1"/>
        <pt x="1449" y="313" on="0"/>
        <pt x="1513" y="313" on="1"/>
        <pt x="1552" y="313" on="0"/>
        <pt x="1602" y="279" on="1"/>
        <pt x="1656" y="242" on="0"/>
      </contour>
      <contour>
        <pt x="1748" y="-352" on="1"/>
        <pt x="1748" y="-380" on="0"/>
        <pt x="1687" y="-454" on="0"/>
        <pt x="1661" y="-454" on="1"/>
        <pt x="1651" y="-454" on="0"/>
        <pt x="1583" y="-424" on="0"/>
        <pt x="1569" y="-424" on="1"/>
        <pt x="1558" y="-424" on="0"/>
        <pt x="1494" y="-485" on="0"/>
        <pt x="1466" y="-485" on="1"/>
        <pt x="1448" y="-485" on="0"/>
        <pt x="1402" y="-452" on="1"/>
        <pt x="1349" y="-412" on="0"/>
        <pt x="1349" y="-377" on="1"/>
        <pt x="1349" y="-360" on="0"/>
        <pt x="1429" y="-280" on="0"/>
        <pt x="1446" y="-280" on="1"/>
        <pt x="1457" y="-280" on="0"/>
        <pt x="1542" y="-342" on="0"/>
        <pt x="1554" y="-342" on="1"/>
        <pt x="1564" y="-342" on="0"/>
        <pt x="1633" y="-260" on="0"/>
        <pt x="1646" y="-260" on="1"/>
        <pt x="1678" y="-260" on="0"/>
        <pt x="1715" y="-302" on="1"/>
        <pt x="1748" y="-339" on="0"/>
      </contour>
      <contour>
        <pt x="1890" y="1250" on="1"/>
        <pt x="1890" y="1268" on="1"/>
        <pt x="1842" y="1280" on="1"/>
        <pt x="1842" y="1262" on="1"/>
      </contour>
    </TTGlyph>
    <TTGlyph name="uni2011" xMin="407" yMin="-505" xMax="3069" yMax="1674">
      <contour>
        <pt x="2976" y="1362" on="1"/>
        <pt x="2977" y="1338" on="0"/>
        <pt x="2901" y="1294" on="1"/>
        <pt x="2861" y="1273" on="0"/>
        <pt x="2820" y="1252" on="1"/>
        <pt x="2706" y="1193" on="0"/>
        <pt x="2476" y="1072" on="1"/>
        <pt x="2476" y="1140" on="1"/>
        <pt x="2499" y="1166" on="0"/>
        <pt x="2552" y="1210" on="1"/>
        <pt x="2685" y="1279" on="0"/>
        <pt x="2951" y="1419" on="1"/>
        <pt x="2966" y="1407" on="0"/>
        <pt x="2976" y="1407" on="1"/>
      </contour>
      <contour>
        <pt x="2045" y="1617" on="1"/>
        <pt x="2033" y="1600" on="0"/>
        <pt x="2012" y="1576" on="1"/>
        <pt x="1995" y="1566" on="0"/>
        <pt x="1779" y="1448" on="1"/>
        <pt x="1634" y="1368" on="0"/>
        <pt x="1619" y="1368" on="1"/>
        <pt x="1566" y="1368" on="1"/>
        <pt x="1563" y="1377" on="0"/>
        <pt x="1554" y="1393" on="1"/>
        <pt x="1585" y="1451" on="0"/>
        <pt x="1607" y="1466" on="1"/>
        <pt x="1732" y="1546" on="0"/>
        <pt x="2032" y="1674" on="1"/>
      </contour>
      <contour>
        <pt x="2679" y="938" on="1"/>
        <pt x="2679" y="858" on="0"/>
        <pt x="2515" y="794" on="1"/>
        <pt x="2385" y="743" on="0"/>
        <pt x="2321" y="743" on="1"/>
        <pt x="2310" y="743" on="0"/>
        <pt x="2212" y="774" on="0"/>
        <pt x="2199" y="774" on="1"/>
        <pt x="2185" y="774" on="0"/>
        <pt x="2151" y="747" on="1"/>
        <pt x="2114" y="717" on="0"/>
        <pt x="2100" y="713" on="1"/>
        <pt x="2086" y="727" on="0"/>
        <pt x="2086" y="748" on="1"/>
        <pt x="2086" y="795" on="0"/>
        <pt x="2140" y="843" on="1"/>
        <pt x="2189" y="886" on="0"/>
        <pt x="2219" y="886" on="1"/>
        <pt x="2231" y="886" on="0"/>
        <pt x="2329" y="856" on="0"/>
        <pt x="2342" y="856" on="1"/>
        <pt x="2448" y="856" on="0"/>
        <pt x="2520" y="893" on="1"/>
        <pt x="2588" y="931" on="0"/>
        <pt x="2655" y="968" on="1"/>
        <pt x="2663" y="963" on="0"/>
        <pt x="2679" y="954" on="0"/>
      </contour>
      <contour>
        <pt x="2977" y="247" on="1"/>
        <pt x="2977" y="251" on="0"/>
        <pt x="2938" y="122" on="1"/>
        <pt x="2929" y="93" on="0"/>
        <pt x="2927" y="88" on="1"/>
        <pt x="2917" y="66" on="0"/>
        <pt x="2901" y="60" on="1"/>
        <pt x="2699" y="-14" on="0"/>
        <pt x="2433" y="-14" on="1"/>
        <pt x="2246" y="-14" on="1"/>
        <pt x="2135" y="-14" on="0"/>
        <pt x="2090" y="-5" on="1"/>
        <pt x="1991" y="13" on="0"/>
        <pt x="1956" y="80" on="1"/>
        <pt x="1939" y="113" on="0"/>
        <pt x="1928" y="215" on="1"/>
        <pt x="1903" y="464" on="0"/>
        <pt x="1887" y="666" on="1"/>
        <pt x="1868" y="768" on="0"/>
        <pt x="1843" y="973" on="1"/>
        <pt x="1842" y="979" on="0"/>
        <pt x="1872" y="1094" on="1"/>
        <pt x="1858" y="1102" on="0"/>
        <pt x="1822" y="1095" on="1"/>
        <pt x="1788" y="1090" on="0"/>
        <pt x="1775" y="1081" on="1"/>
        <pt x="1740" y="1081" on="1"/>
        <pt x="1740" y="1108" on="0"/>
        <pt x="1734" y="1157" on="1"/>
        <pt x="1732" y="1163" on="0"/>
        <pt x="1719" y="1185" on="1"/>
        <pt x="1707" y="1205" on="0"/>
        <pt x="1707" y="1219" on="1"/>
        <pt x="1707" y="1253" on="0"/>
        <pt x="1778" y="1325" on="1"/>
        <pt x="1851" y="1398" on="0"/>
        <pt x="1896" y="1398" on="1"/>
        <pt x="1920" y="1398" on="0"/>
        <pt x="1950" y="1375" on="1"/>
        <pt x="1984" y="1350" on="0"/>
        <pt x="1984" y="1321" on="1"/>
        <pt x="1984" y="1299" on="0"/>
        <pt x="1943" y="1261" on="1"/>
        <pt x="1970" y="1239" on="0"/>
        <pt x="2018" y="1241" on="1"/>
        <pt x="2073" y="1243" on="0"/>
        <pt x="2095" y="1232" on="1"/>
        <pt x="2093" y="1198" on="0"/>
        <pt x="2036" y="1169" on="1"/>
        <pt x="1955" y="1127" on="0"/>
        <pt x="1942" y="1117" on="1"/>
        <pt x="1945" y="1072" on="0"/>
        <pt x="2000" y="544" on="1"/>
        <pt x="2011" y="429" on="0"/>
        <pt x="2021" y="315" on="1"/>
        <pt x="2036" y="219" on="0"/>
        <pt x="2081" y="182" on="1"/>
        <pt x="2135" y="139" on="0"/>
        <pt x="2265" y="139" on="1"/>
        <pt x="2276" y="139" on="0"/>
        <pt x="2507" y="149" on="0"/>
        <pt x="2521" y="149" on="1"/>
        <pt x="2854" y="149" on="0"/>
        <pt x="2854" y="237" on="1"/>
        <pt x="2854" y="248" on="0"/>
        <pt x="2761" y="383" on="0"/>
        <pt x="2761" y="395" on="1"/>
        <pt x="2761" y="442" on="0"/>
        <pt x="2806" y="507" on="1"/>
        <pt x="2841" y="507" on="1"/>
        <pt x="2977" y="362" on="0"/>
      </contour>
      <contour>
        <pt x="2506" y="462" on="1"/>
        <pt x="2506" y="404" on="0"/>
        <pt x="2459" y="354" on="1"/>
        <pt x="2443" y="376" on="0"/>
        <pt x="2422" y="433" on="1"/>
        <pt x="2394" y="512" on="0"/>
        <pt x="2385" y="530" on="0"/>
        <pt x="2346" y="578" on="1"/>
        <pt x="2312" y="621" on="0"/>
        <pt x="2312" y="636" on="1"/>
        <pt x="2312" y="652" on="0"/>
        <pt x="2326" y="679" on="1"/>
        <pt x="2345" y="713" on="0"/>
        <pt x="2367" y="713" on="1"/>
        <pt x="2442" y="713" on="0"/>
        <pt x="2502" y="514" on="1"/>
        <pt x="2506" y="501" on="0"/>
      </contour>
      <contour>
        <pt x="3069" y="-219" on="1"/>
        <pt x="3069" y="-241" on="0"/>
        <pt x="3000" y="-331" on="0"/>
        <pt x="2977" y="-331" on="1"/>
        <pt x="2966" y="-331" on="0"/>
        <pt x="2908" y="-301" on="0"/>
        <pt x="2895" y="-301" on="1"/>
        <pt x="2882" y="-301" on="0"/>
        <pt x="2795" y="-352" on="0"/>
        <pt x="2782" y="-352" on="1"/>
        <pt x="2751" y="-352" on="0"/>
        <pt x="2713" y="-315" on="1"/>
        <pt x="2679" y="-283" on="0"/>
        <pt x="2679" y="-270" on="1"/>
        <pt x="2679" y="-253" on="0"/>
        <pt x="2760" y="-167" on="0"/>
        <pt x="2777" y="-167" on="1"/>
        <pt x="2788" y="-167" on="0"/>
        <pt x="2847" y="-208" on="0"/>
        <pt x="2864" y="-208" on="1"/>
        <pt x="2879" y="-208" on="0"/>
        <pt x="2959" y="-147" on="0"/>
        <pt x="2972" y="-147" on="1"/>
        <pt x="2992" y="-147" on="0"/>
        <pt x="3069" y="-200" on="0"/>
      </contour>
      <contour>
        <pt x="1492" y="1189" on="1"/>
        <pt x="1492" y="1132" on="0"/>
        <pt x="1446" y="1132" on="1"/>
        <pt x="1433" y="1132" on="0"/>
        <pt x="1408" y="1153" on="0"/>
        <pt x="1395" y="1153" on="1"/>
        <pt x="1395" y="1153" on="0"/>
        <pt x="1091" y="969" on="0"/>
        <pt x="1025" y="969" on="1"/>
        <pt x="981" y="969" on="1"/>
        <pt x="981" y="987" on="0"/>
        <pt x="984" y="997" on="1"/>
        <pt x="993" y="1004" on="0"/>
        <pt x="1147" y="1094" on="1"/>
        <pt x="1251" y="1156" on="0"/>
        <pt x="1297" y="1210" on="1"/>
        <pt x="1293" y="1231" on="0"/>
        <pt x="1257" y="1260" on="1"/>
        <pt x="1226" y="1285" on="0"/>
        <pt x="1226" y="1337" on="1"/>
        <pt x="1226" y="1387" on="0"/>
        <pt x="1272" y="1443" on="1"/>
        <pt x="1321" y="1501" on="0"/>
        <pt x="1374" y="1501" on="1"/>
        <pt x="1456" y="1501" on="0"/>
        <pt x="1456" y="1362" on="1"/>
        <pt x="1456" y="1255" on="0"/>
        <pt x="1454" y="1271" on="1"/>
        <pt x="1455" y="1264" on="0"/>
        <pt x="1492" y="1208" on="0"/>
      </contour>
      <contour>
        <pt x="1154" y="1547" on="1"/>
        <pt x="1154" y="1496" on="0"/>
        <pt x="1111" y="1473" on="1"/>
        <pt x="972" y="1405" on="0"/>
        <pt x="700" y="1256" on="1"/>
        <pt x="665" y="1256" on="1"/>
        <pt x="653" y="1257" on="0"/>
        <pt x="653" y="1280" on="1"/>
        <pt x="653" y="1332" on="0"/>
        <pt x="847" y="1438" on="1"/>
        <pt x="971" y="1505" on="0"/>
        <pt x="1097" y="1572" on="1"/>
        <pt x="1142" y="1572" on="1"/>
        <pt x="1154" y="1570" on="0"/>
      </contour>
      <contour>
        <pt x="1564" y="866" on="1"/>
        <pt x="1564" y="727" on="0"/>
        <pt x="1375" y="688" on="1"/>
        <pt x="1365" y="686" on="0"/>
        <pt x="1316" y="651" on="0"/>
        <pt x="1302" y="651" on="1"/>
        <pt x="1226" y="651" on="0"/>
        <pt x="1226" y="748" on="1"/>
        <pt x="1226" y="805" on="0"/>
        <pt x="1260" y="854" on="1"/>
        <pt x="1297" y="854" on="1"/>
        <pt x="1297" y="793" on="1"/>
        <pt x="1299" y="793" on="0"/>
        <pt x="1314" y="784" on="0"/>
        <pt x="1329" y="784" on="1"/>
        <pt x="1343" y="784" on="0"/>
        <pt x="1370" y="825" on="1"/>
        <pt x="1412" y="886" on="0"/>
        <pt x="1420" y="897" on="1"/>
        <pt x="1428" y="871" on="0"/>
        <pt x="1456" y="825" on="1"/>
        <pt x="1476" y="861" on="0"/>
        <pt x="1527" y="927" on="1"/>
        <pt x="1564" y="909" on="0"/>
      </contour>
      <contour>
        <pt x="1656" y="206" on="1"/>
        <pt x="1656" y="175" on="0"/>
        <pt x="1591" y="88" on="1"/>
        <pt x="1589" y="89" on="0"/>
        <pt x="1515" y="132" on="1"/>
        <pt x="1466" y="160" on="0"/>
        <pt x="1451" y="160" on="1"/>
        <pt x="1399" y="160" on="0"/>
        <pt x="1299" y="110" on="1"/>
        <pt x="1212" y="66" on="0"/>
        <pt x="1194" y="45" on="1"/>
        <pt x="1147" y="-11" on="0"/>
        <pt x="1126" y="-102" on="1"/>
        <pt x="1122" y="-118" on="0"/>
        <pt x="1122" y="-139" on="1"/>
        <pt x="1122" y="-173" on="0"/>
        <pt x="1134" y="-234" on="1"/>
        <pt x="1148" y="-310" on="0"/>
        <pt x="1151" y="-326" on="1"/>
        <pt x="1154" y="-357" on="0"/>
        <pt x="1049" y="-505" on="1"/>
        <pt x="1013" y="-505" on="1"/>
        <pt x="948" y="-418" on="0"/>
        <pt x="912" y="-214" on="1"/>
        <pt x="915" y="-169" on="0"/>
        <pt x="915" y="-72" on="1"/>
        <pt x="908" y="-58" on="0"/>
        <pt x="892" y="-38" on="1"/>
        <pt x="856" y="-36" on="0"/>
        <pt x="729" y="-18" on="1"/>
        <pt x="576" y="4" on="0"/>
        <pt x="532" y="169" on="1"/>
        <pt x="507" y="315" on="0"/>
        <pt x="482" y="460" on="1"/>
        <pt x="480" y="464" on="0"/>
        <pt x="489" y="502" on="0"/>
        <pt x="489" y="513" on="1"/>
        <pt x="407" y="1128" on="1"/>
        <pt x="418" y="1166" on="0"/>
        <pt x="450" y="1234" on="1"/>
        <pt x="481" y="1234" on="0"/>
        <pt x="495" y="1212" on="1"/>
        <pt x="528" y="1119" on="0"/>
        <pt x="547" y="905" on="1"/>
        <pt x="560" y="725" on="0"/>
        <pt x="573" y="546" on="1"/>
        <pt x="586" y="496" on="0"/>
        <pt x="604" y="401" on="1"/>
        <pt x="618" y="259" on="0"/>
        <pt x="675" y="188" on="1"/>
        <pt x="703" y="153" on="0"/>
        <pt x="782" y="131" on="1"/>
        <pt x="790" y="129" on="0"/>
        <pt x="842" y="129" on="1"/>
        <pt x="934" y="129" on="0"/>
        <pt x="986" y="171" on="1"/>
        <pt x="994" y="178" on="0"/>
        <pt x="1116" y="313" on="1"/>
        <pt x="1161" y="313" on="1"/>
        <pt x="1175" y="300" on="0"/>
        <pt x="1175" y="283" on="1"/>
        <pt x="1175" y="258" on="0"/>
        <pt x="1114" y="143" on="1"/>
        <pt x="1056" y="34" on="0"/>
        <pt x="1041" y="20" on="1"/>
        <pt x="1048" y="-24" on="1"/>
        <pt x="1197" y="207" on="0"/>
        <pt x="1342" y="268" on="1"/>
        <pt x="1449" y="313" on="0"/>
        <pt x="1513" y="313" on="1"/>
        <pt x="1552" y="313" on="0"/>
        <pt x="1602" y="279" on="1"/>
        <pt x="1656" y="242" on="0"/>
      </contour>
      <contour>
        <pt x="1748" y="-352" on="1"/>
        <pt x="1748" y="-380" on="0"/>
        <pt x="1687" y="-454" on="0"/>
        <pt x="1661" y="-454" on="1"/>
        <pt x="1651" y="-454" on="0"/>
        <pt x="1583" y="-424" on="0"/>
        <pt x="1569" y="-424" on="1"/>
        <pt x="1558" y="-424" on="0"/>
        <pt x="1494" y="-485" on="0"/>
        <pt x="1466" y="-485" on="1"/>
        <pt x="1448" y="-485" on="0"/>
        <pt x="1402" y="-452" on="1"/>
        <pt x="1349" y="-412" on="0"/>
        <pt x="1349" y="-377" on="1"/>
        <pt x="1349" y="-360" on="0"/>
        <pt x="1429" y="-280" on="0"/>
        <pt x="1446" y="-280" on="1"/>
        <pt x="1457" y="-280" on="0"/>
        <pt x="1542" y="-342" on="0"/>
        <pt x="1554" y="-342" on="1"/>
        <pt x="1564" y="-342" on="0"/>
        <pt x="1633" y="-260" on="0"/>
        <pt x="1646" y="-260" on="1"/>
        <pt x="1678" y="-260" on="0"/>
        <pt x="1715" y="-302" on="1"/>
        <pt x="1748" y="-339" on="0"/>
      </contour>
      <contour>
        <pt x="1890" y="1250" on="1"/>
        <pt x="1890" y="1268" on="1"/>
        <pt x="1842" y="1280" on="1"/>
        <pt x="1842" y="1262" on="1"/>
      </contour>
    </TTGlyph>
    <TTGlyph name="uniE000" xMin="0" yMin="0" xMax="2050" yMax="2050">
      <contour>
        <pt x="0" y="2050" on="1"/>
        <pt x="2050" y="2050" on="1"/>
        <pt x="2050" y="0" on="1"/>
        <pt x="0" y="0" on="1"/>
      </contour>
    </TTGlyph>
    <TTGlyph name="uniFB51" xMin="317" yMin="-143" xMax="2948" yMax="1597">
      <contour>
        <pt x="2866" y="1305" on="1"/>
        <pt x="2866" y="1248" on="0"/>
        <pt x="2688" y="1157" on="1"/>
        <pt x="2580" y="1106" on="0"/>
        <pt x="2474" y="1055" on="1"/>
        <pt x="2439" y="1055" on="1"/>
        <pt x="2426" y="1068" on="0"/>
        <pt x="2426" y="1090" on="1"/>
        <pt x="2426" y="1158" on="0"/>
        <pt x="2654" y="1251" on="1"/>
        <pt x="2723" y="1286" on="0"/>
        <pt x="2852" y="1341" on="1"/>
        <pt x="2866" y="1327" on="0"/>
      </contour>
      <contour>
        <pt x="2723" y="865" on="1"/>
        <pt x="2723" y="778" on="0"/>
        <pt x="2646" y="778" on="1"/>
        <pt x="2615" y="778" on="0"/>
        <pt x="2549" y="836" on="0"/>
        <pt x="2549" y="854" on="1"/>
        <pt x="2549" y="870" on="0"/>
        <pt x="2577" y="908" on="1"/>
        <pt x="2609" y="952" on="0"/>
        <pt x="2636" y="952" on="1"/>
        <pt x="2669" y="952" on="0"/>
        <pt x="2698" y="915" on="1"/>
        <pt x="2723" y="883" on="0"/>
      </contour>
      <contour>
        <pt x="2047" y="1561" on="1"/>
        <pt x="2047" y="1524" on="0"/>
        <pt x="1859" y="1412" on="1"/>
        <pt x="1691" y="1313" on="0"/>
        <pt x="1601" y="1280" on="1"/>
        <pt x="1587" y="1294" on="0"/>
        <pt x="1587" y="1311" on="1"/>
        <pt x="1587" y="1365" on="0"/>
        <pt x="1649" y="1397" on="1"/>
        <pt x="1706" y="1426" on="0"/>
        <pt x="1763" y="1455" on="1"/>
        <pt x="1810" y="1491" on="0"/>
        <pt x="2023" y="1597" on="1"/>
        <pt x="2047" y="1572" on="0"/>
      </contour>
      <contour>
        <pt x="2948" y="328" on="1"/>
        <pt x="2948" y="121" on="0"/>
        <pt x="2813" y="44" on="1"/>
        <pt x="2719" y="-10" on="0"/>
        <pt x="2523" y="-10" on="1"/>
        <pt x="2372" y="-10" on="0"/>
        <pt x="2295" y="34" on="1"/>
        <pt x="2283" y="41" on="0"/>
        <pt x="2145" y="173" on="1"/>
        <pt x="2029" y="283" on="0"/>
        <pt x="1963" y="288" on="1"/>
        <pt x="1942" y="217" on="0"/>
        <pt x="1878" y="97" on="1"/>
        <pt x="1860" y="75" on="0"/>
        <pt x="1772" y="39" on="1"/>
        <pt x="1679" y="0" on="0"/>
        <pt x="1633" y="0" on="1"/>
        <pt x="1570" y="0" on="0"/>
        <pt x="1493" y="33" on="1"/>
        <pt x="1401" y="73" on="0"/>
        <pt x="1394" y="127" on="1"/>
        <pt x="1367" y="380" on="0"/>
        <pt x="1343" y="813" on="1"/>
        <pt x="1340" y="871" on="0"/>
        <pt x="1325" y="1017" on="1"/>
        <pt x="1310" y="1152" on="0"/>
        <pt x="1310" y="1162" on="1"/>
        <pt x="1310" y="1278" on="0"/>
        <pt x="1353" y="1320" on="1"/>
        <pt x="1361" y="1320" on="0"/>
        <pt x="1379" y="1330" on="1"/>
        <pt x="1400" y="1168" on="0"/>
        <pt x="1435" y="826" on="1"/>
        <pt x="1442" y="812" on="0"/>
        <pt x="1459" y="788" on="1"/>
        <pt x="1534" y="855" on="0"/>
        <pt x="1691" y="978" on="1"/>
        <pt x="1832" y="1068" on="0"/>
        <pt x="2111" y="1251" on="1"/>
        <pt x="2245" y="1347" on="0"/>
        <pt x="2512" y="1535" on="1"/>
        <pt x="2546" y="1535" on="1"/>
        <pt x="2559" y="1522" on="0"/>
        <pt x="2559" y="1500" on="1"/>
        <pt x="2559" y="1420" on="0"/>
        <pt x="2495" y="1370" on="1"/>
        <pt x="2437" y="1331" on="0"/>
        <pt x="2379" y="1294" on="1"/>
        <pt x="2255" y="1196" on="0"/>
        <pt x="1846" y="927" on="1"/>
        <pt x="1556" y="737" on="0"/>
        <pt x="1556" y="691" on="1"/>
        <pt x="1556" y="660" on="0"/>
        <pt x="1593" y="647" on="1"/>
        <pt x="1890" y="546" on="0"/>
        <pt x="2133" y="364" on="1"/>
        <pt x="2142" y="347" on="0"/>
        <pt x="2168" y="319" on="1"/>
        <pt x="2312" y="220" on="0"/>
        <pt x="2372" y="193" on="1"/>
        <pt x="2459" y="153" on="0"/>
        <pt x="2575" y="153" on="1"/>
        <pt x="2806" y="153" on="0"/>
        <pt x="2857" y="232" on="1"/>
        <pt x="2857" y="268" on="1"/>
        <pt x="2854" y="268" on="0"/>
        <pt x="2845" y="276" on="0"/>
        <pt x="2830" y="276" on="1"/>
        <pt x="2821" y="276" on="0"/>
        <pt x="2724" y="235" on="0"/>
        <pt x="2703" y="235" on="1"/>
        <pt x="2639" y="235" on="0"/>
        <pt x="2596" y="286" on="1"/>
        <pt x="2559" y="330" on="0"/>
        <pt x="2559" y="378" on="1"/>
        <pt x="2559" y="397" on="0"/>
        <pt x="2596" y="478" on="1"/>
        <pt x="2635" y="563" on="0"/>
        <pt x="2672" y="622" on="1"/>
        <pt x="2687" y="645" on="0"/>
        <pt x="2753" y="645" on="1"/>
        <pt x="2839" y="645" on="0"/>
        <pt x="2902" y="498" on="1"/>
        <pt x="2948" y="387" on="0"/>
      </contour>
      <contour>
        <pt x="931" y="1362" on="1"/>
        <pt x="931" y="1312" on="0"/>
        <pt x="877" y="1283" on="1"/>
        <pt x="467" y="1065" on="1"/>
        <pt x="433" y="1065" on="1"/>
        <pt x="419" y="1078" on="0"/>
        <pt x="419" y="1095" on="1"/>
        <pt x="419" y="1159" on="0"/>
        <pt x="633" y="1269" on="1"/>
        <pt x="792" y="1351" on="0"/>
        <pt x="917" y="1392" on="1"/>
        <pt x="931" y="1378" on="0"/>
      </contour>
      <contour>
        <pt x="768" y="752" on="1"/>
        <pt x="768" y="723" on="0"/>
        <pt x="705" y="655" on="0"/>
        <pt x="681" y="655" on="1"/>
        <pt x="645" y="655" on="0"/>
        <pt x="617" y="689" on="1"/>
        <pt x="593" y="716" on="0"/>
        <pt x="593" y="732" on="1"/>
        <pt x="593" y="766" on="0"/>
        <pt x="614" y="795" on="1"/>
        <pt x="637" y="829" on="0"/>
        <pt x="670" y="829" on="1"/>
        <pt x="703" y="829" on="0"/>
        <pt x="768" y="776" on="0"/>
      </contour>
      <contour>
        <pt x="1136" y="292" on="1"/>
        <pt x="1136" y="93" on="0"/>
        <pt x="1049" y="4" on="1"/>
        <pt x="1009" y="-36" on="0"/>
        <pt x="891" y="-88" on="1"/>
        <pt x="766" y="-143" on="0"/>
        <pt x="701" y="-143" on="1"/>
        <pt x="593" y="-143" on="1"/>
        <pt x="494" y="-143" on="0"/>
        <pt x="317" y="11" on="0"/>
        <pt x="317" y="107" on="1"/>
        <pt x="317" y="162" on="0"/>
        <pt x="347" y="255" on="1"/>
        <pt x="385" y="366" on="0"/>
        <pt x="433" y="398" on="1"/>
        <pt x="469" y="398" on="1"/>
        <pt x="481" y="397" on="0"/>
        <pt x="481" y="374" on="1"/>
        <pt x="481" y="362" on="0"/>
        <pt x="419" y="202" on="0"/>
        <pt x="419" y="189" on="1"/>
        <pt x="419" y="116" on="0"/>
        <pt x="496" y="66" on="1"/>
        <pt x="564" y="20" on="0"/>
        <pt x="640" y="20" on="1"/>
        <pt x="650" y="20" on="0"/>
        <pt x="785" y="30" on="0"/>
        <pt x="798" y="30" on="1"/>
        <pt x="816" y="30" on="0"/>
        <pt x="886" y="61" on="1"/>
        <pt x="959" y="93" on="0"/>
        <pt x="1005" y="125" on="1"/>
        <pt x="1054" y="157" on="0"/>
        <pt x="1054" y="215" on="1"/>
        <pt x="1054" y="228" on="0"/>
        <pt x="931" y="494" on="0"/>
        <pt x="931" y="506" on="1"/>
        <pt x="931" y="529" on="0"/>
        <pt x="943" y="564" on="1"/>
        <pt x="957" y="608" on="0"/>
        <pt x="978" y="614" on="1"/>
        <pt x="1040" y="583" on="0"/>
        <pt x="1090" y="477" on="1"/>
        <pt x="1136" y="377" on="0"/>
      </contour>
      <contour>
        <pt x="2764" y="467" on="1"/>
        <pt x="2728" y="501" on="1"/>
        <pt x="2692" y="465" on="0"/>
        <pt x="2692" y="445" on="1"/>
        <pt x="2692" y="433" on="0"/>
        <pt x="2716" y="410" on="1"/>
        <pt x="2752" y="410" on="1"/>
      </contour>
      <contour>
        <pt x="1853" y="240" on="1"/>
        <pt x="1826" y="315" on="0"/>
        <pt x="1723" y="396" on="1"/>
        <pt x="1617" y="481" on="0"/>
        <pt x="1540" y="481" on="1"/>
        <pt x="1485" y="481" on="0"/>
        <pt x="1470" y="439" on="1"/>
        <pt x="1464" y="421" on="0"/>
        <pt x="1464" y="363" on="1"/>
        <pt x="1464" y="265" on="0"/>
        <pt x="1477" y="238" on="1"/>
        <pt x="1493" y="206" on="0"/>
        <pt x="1535" y="183" on="1"/>
        <pt x="1570" y="164" on="0"/>
        <pt x="1592" y="164" on="1"/>
        <pt x="1637" y="164" on="0"/>
        <pt x="1727" y="186" on="1"/>
        <pt x="1833" y="211" on="0"/>
      </contour>
    </TTGlyph>
    <TTGlyph name="uniFB52" xMin="267" yMin="-554" xMax="4760" yMax="1492">
      <contour>
        <pt x="4524" y="1311" on="1"/>
        <pt x="4361" y="1216" on="0"/>
        <pt x="4031" y="1025" on="1"/>
        <pt x="4008" y="1012" on="0"/>
        <pt x="3976" y="1012" on="1"/>
        <pt x="3974" y="1013" on="0"/>
        <pt x="3973" y="1014" on="1"/>
        <pt x="3962" y="1023" on="0"/>
        <pt x="3962" y="1042" on="1"/>
        <pt x="3962" y="1095" on="0"/>
        <pt x="4185" y="1223" on="1"/>
        <pt x="4332" y="1301" on="0"/>
        <pt x="4478" y="1379" on="1"/>
        <pt x="4524" y="1379" on="1"/>
      </contour>
      <contour>
        <pt x="3890" y="668" on="1"/>
        <pt x="3890" y="569" on="0"/>
        <pt x="3827" y="510" on="1"/>
        <pt x="3825" y="548" on="0"/>
        <pt x="3815" y="627" on="1"/>
        <pt x="3809" y="655" on="0"/>
        <pt x="3767" y="732" on="1"/>
        <pt x="3726" y="805" on="0"/>
        <pt x="3726" y="817" on="1"/>
        <pt x="3726" y="868" on="0"/>
        <pt x="3767" y="868" on="1"/>
        <pt x="3826" y="868" on="0"/>
        <pt x="3862" y="795" on="1"/>
        <pt x="3890" y="735" on="0"/>
      </contour>
      <contour>
        <pt x="3409" y="919" on="1"/>
        <pt x="3409" y="887" on="0"/>
        <pt x="3373" y="861" on="1"/>
        <pt x="3341" y="837" on="0"/>
        <pt x="3307" y="837" on="1"/>
        <pt x="3296" y="837" on="0"/>
        <pt x="3253" y="848" on="0"/>
        <pt x="3240" y="848" on="1"/>
        <pt x="3228" y="848" on="0"/>
        <pt x="3155" y="807" on="0"/>
        <pt x="3143" y="807" on="1"/>
        <pt x="3115" y="807" on="0"/>
        <pt x="3076" y="843" on="1"/>
        <pt x="3041" y="877" on="0"/>
        <pt x="3041" y="889" on="1"/>
        <pt x="3041" y="918" on="0"/>
        <pt x="3090" y="952" on="1"/>
        <pt x="3132" y="981" on="0"/>
        <pt x="3143" y="981" on="1"/>
        <pt x="3154" y="981" on="0"/>
        <pt x="3217" y="950" on="0"/>
        <pt x="3230" y="950" on="1"/>
        <pt x="3242" y="950" on="0"/>
        <pt x="3298" y="1001" on="0"/>
        <pt x="3317" y="1001" on="1"/>
        <pt x="3376" y="1001" on="0"/>
      </contour>
      <contour>
        <pt x="3020" y="1380" on="1"/>
        <pt x="3020" y="1338" on="0"/>
        <pt x="2938" y="1290" on="1"/>
        <pt x="2891" y="1267" on="0"/>
        <pt x="2843" y="1244" on="1"/>
        <pt x="2746" y="1184" on="0"/>
        <pt x="2556" y="1074" on="1"/>
        <pt x="2509" y="1074" on="1"/>
        <pt x="2514" y="1103" on="0"/>
        <pt x="2522" y="1142" on="1"/>
        <pt x="2775" y="1308" on="0"/>
        <pt x="2952" y="1411" on="1"/>
        <pt x="3007" y="1411" on="1"/>
        <pt x="3020" y="1397" on="0"/>
      </contour>
      <contour>
        <pt x="2416" y="1364" on="1"/>
        <pt x="2399" y="1321" on="0"/>
        <pt x="2321" y="1275" on="1"/>
        <pt x="2254" y="1239" on="0"/>
        <pt x="2188" y="1203" on="1"/>
        <pt x="2131" y="1163" on="0"/>
        <pt x="2023" y="1094" on="1"/>
        <pt x="1988" y="1094" on="1"/>
        <pt x="1976" y="1095" on="0"/>
        <pt x="1976" y="1119" on="1"/>
        <pt x="1976" y="1175" on="0"/>
        <pt x="2183" y="1295" on="1"/>
        <pt x="2337" y="1384" on="0"/>
        <pt x="2403" y="1410" on="1"/>
      </contour>
      <contour>
        <pt x="3664" y="-212" on="1"/>
        <pt x="3665" y="-246" on="0"/>
        <pt x="3486" y="-318" on="1"/>
        <pt x="3348" y="-369" on="0"/>
        <pt x="3210" y="-421" on="1"/>
        <pt x="3174" y="-421" on="1"/>
        <pt x="3174" y="-376" on="1"/>
        <pt x="3174" y="-337" on="0"/>
        <pt x="3208" y="-323" on="1"/>
        <pt x="3606" y="-166" on="0"/>
        <pt x="3620" y="-167" on="1"/>
        <pt x="3664" y="-167" on="1"/>
      </contour>
      <contour>
        <pt x="4760" y="325" on="1"/>
        <pt x="4760" y="250" on="0"/>
        <pt x="4636" y="182" on="1"/>
        <pt x="4564" y="150" on="0"/>
        <pt x="4492" y="118" on="1"/>
        <pt x="4389" y="53" on="0"/>
        <pt x="4076" y="11" on="1"/>
        <pt x="3822" y="-22" on="0"/>
        <pt x="3629" y="-22" on="1"/>
        <pt x="3618" y="-22" on="0"/>
        <pt x="3237" y="49" on="0"/>
        <pt x="3225" y="49" on="1"/>
        <pt x="3214" y="49" on="0"/>
        <pt x="3011" y="-12" on="0"/>
        <pt x="2998" y="-12" on="1"/>
        <pt x="2955" y="-12" on="1"/>
        <pt x="2933" y="-12" on="0"/>
        <pt x="2860" y="11" on="1"/>
        <pt x="2844" y="16" on="0"/>
        <pt x="2812" y="49" on="1"/>
        <pt x="2783" y="79" on="0"/>
        <pt x="2770" y="79" on="1"/>
        <pt x="2758" y="79" on="0"/>
        <pt x="2735" y="61" on="1"/>
        <pt x="2707" y="39" on="0"/>
        <pt x="2689" y="31" on="1"/>
        <pt x="2524" y="-32" on="0"/>
        <pt x="2401" y="-32" on="1"/>
        <pt x="2308" y="-32" on="0"/>
        <pt x="2113" y="90" on="0"/>
        <pt x="2104" y="90" on="1"/>
        <pt x="2095" y="90" on="0"/>
        <pt x="1962" y="56" on="1"/>
        <pt x="1877" y="34" on="0"/>
        <pt x="1814" y="-40" on="1"/>
        <pt x="1770" y="-92" on="0"/>
        <pt x="1753" y="-162" on="1"/>
        <pt x="1747" y="-186" on="0"/>
        <pt x="1747" y="-216" on="1"/>
        <pt x="1747" y="-241" on="0"/>
        <pt x="1760" y="-344" on="0"/>
        <pt x="1760" y="-370" on="1"/>
        <pt x="1760" y="-389" on="0"/>
        <pt x="1757" y="-407" on="1"/>
        <pt x="1752" y="-438" on="0"/>
        <pt x="1647" y="-554" on="1"/>
        <pt x="1609" y="-554" on="1"/>
        <pt x="1598" y="-548" on="0"/>
        <pt x="1579" y="-531" on="1"/>
        <pt x="1528" y="-353" on="0"/>
        <pt x="1528" y="-215" on="1"/>
        <pt x="1528" y="-129" on="0"/>
        <pt x="1546" y="-47" on="1"/>
        <pt x="1546" y="-39" on="0"/>
        <pt x="1529" y="-22" on="1"/>
        <pt x="1386" y="-19" on="0"/>
        <pt x="1286" y="-26" on="1"/>
        <pt x="1271" y="-34" on="0"/>
        <pt x="1246" y="-50" on="1"/>
        <pt x="1230" y="-53" on="0"/>
        <pt x="1162" y="-53" on="1"/>
        <pt x="1098" y="-53" on="0"/>
        <pt x="1038" y="-40" on="1"/>
        <pt x="1025" y="-37" on="0"/>
        <pt x="985" y="-13" on="1"/>
        <pt x="950" y="8" on="0"/>
        <pt x="936" y="8" on="1"/>
        <pt x="926" y="8" on="0"/>
        <pt x="899" y="-12" on="1"/>
        <pt x="868" y="-36" on="0"/>
        <pt x="857" y="-40" on="1"/>
        <pt x="764" y="-73" on="0"/>
        <pt x="691" y="-73" on="1"/>
        <pt x="668" y="-73" on="0"/>
        <pt x="611" y="-40" on="1"/>
        <pt x="545" y="-3" on="0"/>
        <pt x="535" y="32" on="1"/>
        <pt x="521" y="74" on="0"/>
        <pt x="504" y="156" on="1"/>
        <pt x="491" y="339" on="0"/>
        <pt x="478" y="822" on="1"/>
        <pt x="476" y="853" on="0"/>
        <pt x="463" y="922" on="1"/>
        <pt x="451" y="990" on="0"/>
        <pt x="451" y="1001" on="1"/>
        <pt x="451" y="1032" on="0"/>
        <pt x="467" y="1073" on="1"/>
        <pt x="488" y="1123" on="0"/>
        <pt x="518" y="1134" on="1"/>
        <pt x="558" y="1099" on="0"/>
        <pt x="569" y="1004" on="1"/>
        <pt x="574" y="923" on="0"/>
        <pt x="579" y="843" on="1"/>
        <pt x="588" y="712" on="0"/>
        <pt x="600" y="433" on="1"/>
        <pt x="608" y="233" on="0"/>
        <pt x="611" y="218" on="1"/>
        <pt x="637" y="90" on="0"/>
        <pt x="742" y="90" on="1"/>
        <pt x="789" y="90" on="0"/>
        <pt x="896" y="115" on="0"/>
        <pt x="967" y="218" on="1"/>
        <pt x="1032" y="315" on="0"/>
        <pt x="1080" y="315" on="1"/>
        <pt x="1093" y="315" on="0"/>
        <pt x="1147" y="269" on="1"/>
        <pt x="1219" y="206" on="0"/>
        <pt x="1236" y="194" on="1"/>
        <pt x="1326" y="131" on="0"/>
        <pt x="1448" y="131" on="1"/>
        <pt x="1633" y="131" on="0"/>
        <pt x="1774" y="284" on="1"/>
        <pt x="1809" y="284" on="1"/>
        <pt x="1832" y="261" on="0"/>
        <pt x="1832" y="243" on="1"/>
        <pt x="1832" y="197" on="0"/>
        <pt x="1666" y="24" on="0"/>
        <pt x="1666" y="-20" on="1"/>
        <pt x="1666" y="-37" on="0"/>
        <pt x="1674" y="-53" on="1"/>
        <pt x="1738" y="48" on="0"/>
        <pt x="1881" y="143" on="1"/>
        <pt x="2033" y="243" on="0"/>
        <pt x="2145" y="243" on="1"/>
        <pt x="2203" y="243" on="0"/>
        <pt x="2359" y="120" on="0"/>
        <pt x="2421" y="120" on="1"/>
        <pt x="2529" y="120" on="1"/>
        <pt x="2590" y="120" on="0"/>
        <pt x="2705" y="194" on="1"/>
        <pt x="2733" y="229" on="0"/>
        <pt x="2802" y="284" on="1"/>
        <pt x="2805" y="256" on="0"/>
        <pt x="2817" y="210" on="1"/>
        <pt x="2831" y="182" on="0"/>
        <pt x="2893" y="159" on="1"/>
        <pt x="2941" y="141" on="0"/>
        <pt x="2959" y="141" on="1"/>
        <pt x="3025" y="141" on="1"/>
        <pt x="3060" y="141" on="0"/>
        <pt x="3088" y="178" on="1"/>
        <pt x="3083" y="191" on="0"/>
        <pt x="3083" y="213" on="1"/>
        <pt x="3083" y="323" on="0"/>
        <pt x="3150" y="439" on="1"/>
        <pt x="3229" y="582" on="0"/>
        <pt x="3348" y="582" on="1"/>
        <pt x="3391" y="582" on="0"/>
        <pt x="3424" y="475" on="1"/>
        <pt x="3450" y="395" on="0"/>
        <pt x="3450" y="366" on="1"/>
        <pt x="3450" y="355" on="0"/>
        <pt x="3427" y="283" on="1"/>
        <pt x="3402" y="206" on="0"/>
        <pt x="3399" y="188" on="1"/>
        <pt x="3441" y="149" on="0"/>
        <pt x="3486" y="143" on="1"/>
        <pt x="3683" y="120" on="0"/>
        <pt x="3665" y="120" on="1"/>
        <pt x="3704" y="120" on="0"/>
        <pt x="3916" y="138" on="1"/>
        <pt x="3956" y="139" on="0"/>
        <pt x="3995" y="142" on="1"/>
        <pt x="4050" y="148" on="0"/>
        <pt x="4071" y="178" on="1"/>
        <pt x="4064" y="197" on="0"/>
        <pt x="4064" y="227" on="1"/>
        <pt x="4064" y="342" on="0"/>
        <pt x="4139" y="469" on="1"/>
        <pt x="4222" y="612" on="0"/>
        <pt x="4325" y="612" on="1"/>
        <pt x="4436" y="612" on="0"/>
        <pt x="4596" y="496" on="1"/>
        <pt x="4596" y="460" on="1"/>
        <pt x="4592" y="460" on="0"/>
        <pt x="4581" y="448" on="0"/>
        <pt x="4566" y="448" on="1"/>
        <pt x="4556" y="448" on="0"/>
        <pt x="4462" y="489" on="0"/>
        <pt x="4448" y="489" on="1"/>
        <pt x="4402" y="489" on="0"/>
        <pt x="4310" y="443" on="1"/>
        <pt x="4207" y="392" on="0"/>
        <pt x="4207" y="346" on="1"/>
        <pt x="4207" y="305" on="0"/>
        <pt x="4266" y="256" on="1"/>
        <pt x="4317" y="213" on="0"/>
        <pt x="4341" y="213" on="1"/>
        <pt x="4386" y="213" on="0"/>
        <pt x="4528" y="256" on="1"/>
        <pt x="4601" y="291" on="0"/>
        <pt x="4746" y="356" on="1"/>
        <pt x="4760" y="342" on="0"/>
      </contour>
      <contour>
        <pt x="2385" y="612" on="1"/>
        <pt x="2385" y="576" on="0"/>
        <pt x="2342" y="545" on="1"/>
        <pt x="2308" y="520" on="0"/>
        <pt x="2293" y="520" on="1"/>
        <pt x="2282" y="520" on="0"/>
        <pt x="2230" y="541" on="0"/>
        <pt x="2217" y="541" on="1"/>
        <pt x="2204" y="541" on="0"/>
        <pt x="2142" y="500" on="0"/>
        <pt x="2129" y="500" on="1"/>
        <pt x="2109" y="500" on="0"/>
        <pt x="2072" y="523" on="1"/>
        <pt x="2027" y="550" on="0"/>
        <pt x="2027" y="576" on="1"/>
        <pt x="2027" y="594" on="0"/>
        <pt x="2096" y="673" on="0"/>
        <pt x="2119" y="673" on="1"/>
        <pt x="2128" y="673" on="0"/>
        <pt x="2172" y="653" on="0"/>
        <pt x="2186" y="653" on="1"/>
        <pt x="2199" y="653" on="0"/>
        <pt x="2270" y="694" on="0"/>
        <pt x="2283" y="694" on="1"/>
        <pt x="2314" y="694" on="0"/>
        <pt x="2351" y="661" on="1"/>
        <pt x="2385" y="631" on="0"/>
      </contour>
      <contour>
        <pt x="1842" y="1124" on="1"/>
        <pt x="1842" y="1109" on="0"/>
        <pt x="1820" y="1077" on="0"/>
        <pt x="1820" y="1074" on="1"/>
        <pt x="1788" y="1081" on="0"/>
        <pt x="1742" y="1094" on="1"/>
        <pt x="1707" y="1103" on="0"/>
        <pt x="1694" y="1103" on="1"/>
        <pt x="1682" y="1103" on="0"/>
        <pt x="1368" y="909" on="0"/>
        <pt x="1355" y="909" on="1"/>
        <pt x="1303" y="909" on="1"/>
        <pt x="1290" y="922" on="1"/>
        <pt x="1290" y="949" on="1"/>
        <pt x="1366" y="997" on="0"/>
        <pt x="1441" y="1045" on="1"/>
        <pt x="1566" y="1129" on="0"/>
        <pt x="1566" y="1160" on="1"/>
        <pt x="1566" y="1171" on="0"/>
        <pt x="1515" y="1270" on="0"/>
        <pt x="1515" y="1283" on="1"/>
        <pt x="1515" y="1325" on="0"/>
        <pt x="1624" y="1442" on="0"/>
        <pt x="1669" y="1442" on="1"/>
        <pt x="1738" y="1442" on="0"/>
        <pt x="1746" y="1351" on="1"/>
        <pt x="1750" y="1287" on="0"/>
        <pt x="1752" y="1224" on="1"/>
        <pt x="1753" y="1224" on="0"/>
        <pt x="1805" y="1180" on="1"/>
        <pt x="1842" y="1149" on="0"/>
      </contour>
      <contour>
        <pt x="2938" y="-283" on="1"/>
        <pt x="2938" y="-320" on="0"/>
        <pt x="2895" y="-348" on="1"/>
        <pt x="2860" y="-371" on="0"/>
        <pt x="2836" y="-371" on="1"/>
        <pt x="2806" y="-371" on="0"/>
        <pt x="2734" y="-300" on="0"/>
        <pt x="2734" y="-278" on="1"/>
        <pt x="2734" y="-259" on="0"/>
        <pt x="2806" y="-186" on="0"/>
        <pt x="2825" y="-186" on="1"/>
        <pt x="2852" y="-186" on="0"/>
        <pt x="2938" y="-267" on="0"/>
      </contour>
      <contour>
        <pt x="1311" y="1344" on="1"/>
        <pt x="1311" y="1302" on="0"/>
        <pt x="1090" y="1174" on="1"/>
        <pt x="895" y="1061" on="0"/>
        <pt x="813" y="1032" on="1"/>
        <pt x="799" y="1046" on="0"/>
        <pt x="799" y="1067" on="1"/>
        <pt x="799" y="1114" on="0"/>
        <pt x="824" y="1130" on="1"/>
        <pt x="1080" y="1283" on="0"/>
        <pt x="1252" y="1369" on="1"/>
        <pt x="1298" y="1369" on="1"/>
        <pt x="1311" y="1368" on="0"/>
      </contour>
      <contour>
        <pt x="910" y="1445" on="1"/>
        <pt x="911" y="1377" on="0"/>
        <pt x="713" y="1311" on="1"/>
        <pt x="553" y="1257" on="0"/>
        <pt x="496" y="1257" on="1"/>
        <pt x="485" y="1257" on="0"/>
        <pt x="417" y="1288" on="0"/>
        <pt x="404" y="1288" on="1"/>
        <pt x="381" y="1288" on="0"/>
        <pt x="360" y="1266" on="1"/>
        <pt x="332" y="1236" on="0"/>
        <pt x="304" y="1208" on="1"/>
        <pt x="267" y="1208" on="1"/>
        <pt x="273" y="1242" on="0"/>
        <pt x="321" y="1320" on="1"/>
        <pt x="377" y="1411" on="0"/>
        <pt x="414" y="1411" on="1"/>
        <pt x="428" y="1411" on="0"/>
        <pt x="555" y="1370" on="0"/>
        <pt x="568" y="1370" on="1"/>
        <pt x="619" y="1370" on="0"/>
        <pt x="732" y="1416" on="1"/>
        <pt x="840" y="1461" on="0"/>
        <pt x="873" y="1492" on="1"/>
        <pt x="910" y="1492" on="1"/>
      </contour>
      <contour>
        <pt x="3347" y="296" on="1"/>
        <pt x="3347" y="310" on="0"/>
        <pt x="3315" y="406" on="1"/>
        <pt x="3269" y="406" on="1"/>
        <pt x="3184" y="355" on="0"/>
        <pt x="3184" y="310" on="1"/>
        <pt x="3184" y="293" on="0"/>
        <pt x="3233" y="243" on="0"/>
        <pt x="3255" y="243" on="1"/>
        <pt x="3271" y="243" on="0"/>
        <pt x="3300" y="263" on="1"/>
        <pt x="3323" y="279" on="0"/>
      </contour>
    </TTGlyph>
    <TTGlyph name="uniFB53" xMin="382" yMin="-489" xMax="2848" yMax="1731">
      <contour>
        <pt x="2828" y="1663" on="1"/>
        <pt x="2751" y="1604" on="0"/>
        <pt x="2626" y="1541" on="1"/>
        <pt x="2464" y="1460" on="0"/>
        <pt x="2423" y="1435" on="1"/>
        <pt x="2409" y="1437" on="0"/>
        <pt x="2409" y="1461" on="1"/>
        <pt x="2409" y="1500" on="0"/>
        <pt x="2434" y="1533" on="1"/>
        <pt x="2551" y="1597" on="0"/>
        <pt x="2792" y="1731" on="1"/>
        <pt x="2828" y="1731" on="1"/>
      </contour>
      <contour>
        <pt x="2848" y="1233" on="1"/>
        <pt x="2619" y="1118" on="0"/>
        <pt x="2597" y="1118" on="1"/>
        <pt x="2544" y="1118" on="1"/>
        <pt x="2541" y="1133" on="0"/>
        <pt x="2525" y="1194" on="1"/>
        <pt x="2511" y="1247" on="0"/>
        <pt x="2511" y="1262" on="1"/>
        <pt x="2511" y="1308" on="0"/>
        <pt x="2640" y="1425" on="0"/>
        <pt x="2691" y="1425" on="1"/>
        <pt x="2756" y="1425" on="0"/>
        <pt x="2756" y="1371" on="1"/>
        <pt x="2756" y="1365" on="0"/>
        <pt x="2754" y="1342" on="0"/>
        <pt x="2754" y="1336" on="1"/>
        <pt x="2754" y="1279" on="0"/>
        <pt x="2823" y="1279" on="1"/>
        <pt x="2835" y="1279" on="0"/>
        <pt x="2848" y="1280" on="1"/>
      </contour>
      <contour>
        <pt x="2286" y="1635" on="1"/>
        <pt x="2286" y="1598" on="0"/>
        <pt x="2100" y="1495" on="1"/>
        <pt x="1961" y="1417" on="0"/>
        <pt x="1883" y="1385" on="1"/>
        <pt x="1847" y="1385" on="1"/>
        <pt x="1847" y="1443" on="1"/>
        <pt x="2047" y="1593" on="0"/>
        <pt x="2262" y="1670" on="1"/>
        <pt x="2286" y="1646" on="0"/>
      </contour>
      <contour>
        <pt x="2829" y="176" on="1"/>
        <pt x="2829" y="5" on="0"/>
        <pt x="2739" y="-27" on="1"/>
        <pt x="2634" y="985" on="1"/>
        <pt x="2634" y="1067" on="0"/>
        <pt x="2690" y="1138" on="1"/>
        <pt x="2728" y="1120" on="0"/>
        <pt x="2733" y="1083" on="1"/>
        <pt x="2829" y="320" on="0"/>
      </contour>
      <contour>
        <pt x="2265" y="1139" on="1"/>
        <pt x="2265" y="1128" on="0"/>
        <pt x="2270" y="1099" on="0"/>
        <pt x="2270" y="1094" on="1"/>
        <pt x="2270" y="1067" on="0"/>
        <pt x="2219" y="1019" on="1"/>
        <pt x="2190" y="992" on="0"/>
        <pt x="2110" y="966" on="1"/>
        <pt x="2041" y="944" on="0"/>
        <pt x="2015" y="944" on="1"/>
        <pt x="1980" y="944" on="0"/>
        <pt x="1928" y="991" on="0"/>
        <pt x="1928" y="1016" on="1"/>
        <pt x="1928" y="1031" on="0"/>
        <pt x="1946" y="1069" on="1"/>
        <pt x="1969" y="1120" on="0"/>
        <pt x="1971" y="1127" on="1"/>
        <pt x="2007" y="1127" on="1"/>
        <pt x="2011" y="1112" on="0"/>
        <pt x="2026" y="1076" on="1"/>
        <pt x="2038" y="1085" on="0"/>
        <pt x="2094" y="1168" on="1"/>
        <pt x="2130" y="1168" on="1"/>
        <pt x="2138" y="1148" on="0"/>
        <pt x="2168" y="1108" on="1"/>
        <pt x="2178" y="1123" on="0"/>
        <pt x="2217" y="1194" on="0"/>
        <pt x="2228" y="1209" on="1"/>
        <pt x="2247" y="1209" on="0"/>
        <pt x="2261" y="1187" on="1"/>
        <pt x="2265" y="1178" on="0"/>
      </contour>
      <contour>
        <pt x="2256" y="611" on="1"/>
        <pt x="2256" y="592" on="0"/>
        <pt x="2191" y="524" on="0"/>
        <pt x="2169" y="524" on="1"/>
        <pt x="2127" y="524" on="0"/>
        <pt x="2041" y="588" on="1"/>
        <pt x="2041" y="614" on="0"/>
        <pt x="2124" y="709" on="0"/>
        <pt x="2143" y="709" on="1"/>
        <pt x="2170" y="709" on="0"/>
        <pt x="2211" y="677" on="1"/>
        <pt x="2256" y="643" on="0"/>
      </contour>
      <contour>
        <pt x="1795" y="990" on="1"/>
        <pt x="1795" y="976" on="0"/>
        <pt x="1783" y="949" on="0"/>
        <pt x="1783" y="945" on="1"/>
        <pt x="1739" y="945" on="1"/>
        <pt x="1727" y="945" on="0"/>
        <pt x="1634" y="995" on="0"/>
        <pt x="1621" y="995" on="1"/>
        <pt x="1606" y="995" on="0"/>
        <pt x="1500" y="932" on="1"/>
        <pt x="1340" y="836" on="0"/>
        <pt x="1330" y="831" on="1"/>
        <pt x="1252" y="845" on="1"/>
        <pt x="1289" y="882" on="0"/>
        <pt x="1428" y="976" on="1"/>
        <pt x="1508" y="1030" on="0"/>
        <pt x="1508" y="1062" on="1"/>
        <pt x="1508" y="1074" on="0"/>
        <pt x="1467" y="1141" on="0"/>
        <pt x="1467" y="1153" on="1"/>
        <pt x="1467" y="1198" on="0"/>
        <pt x="1520" y="1263" on="1"/>
        <pt x="1576" y="1333" on="0"/>
        <pt x="1621" y="1333" on="1"/>
        <pt x="1676" y="1333" on="0"/>
        <pt x="1685" y="1261" on="1"/>
        <pt x="1685" y="1208" on="0"/>
        <pt x="1685" y="1154" on="1"/>
        <pt x="1687" y="1117" on="0"/>
        <pt x="1704" y="1095" on="1"/>
        <pt x="1707" y="1092" on="0"/>
        <pt x="1759" y="1040" on="1"/>
        <pt x="1795" y="1005" on="0"/>
      </contour>
      <contour>
        <pt x="1242" y="1358" on="1"/>
        <pt x="1240" y="1337" on="0"/>
        <pt x="1215" y="1303" on="1"/>
        <pt x="1046" y="1216" on="0"/>
        <pt x="701" y="1037" on="1"/>
        <pt x="701" y="1040" on="0"/>
        <pt x="689" y="1057" on="0"/>
        <pt x="689" y="1072" on="1"/>
        <pt x="689" y="1126" on="0"/>
        <pt x="898" y="1236" on="1"/>
        <pt x="1041" y="1310" on="0"/>
        <pt x="1184" y="1384" on="1"/>
        <pt x="1218" y="1384" on="1"/>
      </contour>
      <contour>
        <pt x="2368" y="197" on="1"/>
        <pt x="2368" y="157" on="0"/>
        <pt x="2335" y="127" on="1"/>
        <pt x="2309" y="104" on="0"/>
        <pt x="2296" y="104" on="1"/>
        <pt x="2285" y="104" on="0"/>
        <pt x="2182" y="176" on="0"/>
        <pt x="2169" y="176" on="1"/>
        <pt x="2100" y="176" on="0"/>
        <pt x="1935" y="101" on="1"/>
        <pt x="1879" y="75" on="0"/>
        <pt x="1838" y="4" on="1"/>
        <pt x="1785" y="-84" on="0"/>
        <pt x="1805" y="-217" on="1"/>
        <pt x="1821" y="-332" on="0"/>
        <pt x="1821" y="-310" on="1"/>
        <pt x="1821" y="-338" on="0"/>
        <pt x="1787" y="-404" on="1"/>
        <pt x="1744" y="-489" on="0"/>
        <pt x="1693" y="-489" on="1"/>
        <pt x="1619" y="-489" on="0"/>
        <pt x="1586" y="-157" on="1"/>
        <pt x="1585" y="-140" on="0"/>
        <pt x="1592" y="-101" on="1"/>
        <pt x="1601" y="-58" on="0"/>
        <pt x="1601" y="-53" on="1"/>
        <pt x="1601" y="14" on="1"/>
        <pt x="1560" y="20" on="0"/>
        <pt x="1477" y="12" on="1"/>
        <pt x="1376" y="4" on="0"/>
        <pt x="1339" y="4" on="1"/>
        <pt x="1263" y="6" on="0"/>
        <pt x="1240" y="-45" on="1"/>
        <pt x="1234" y="-46" on="0"/>
        <pt x="1204" y="-53" on="1"/>
        <pt x="1178" y="-59" on="0"/>
        <pt x="1164" y="-59" on="1"/>
        <pt x="1136" y="-59" on="1"/>
        <pt x="1057" y="-59" on="0"/>
        <pt x="885" y="12" on="0"/>
        <pt x="889" y="12" on="1"/>
        <pt x="876" y="12" on="0"/>
        <pt x="859" y="-3" on="1"/>
        <pt x="837" y="-22" on="0"/>
        <pt x="829" y="-26" on="1"/>
        <pt x="749" y="-59" on="0"/>
        <pt x="674" y="-59" on="1"/>
        <pt x="636" y="-59" on="0"/>
        <pt x="573" y="-36" on="1"/>
        <pt x="504" y="-11" on="0"/>
        <pt x="488" y="15" on="1"/>
        <pt x="456" y="66" on="0"/>
        <pt x="448" y="138" on="1"/>
        <pt x="448" y="139" on="0"/>
        <pt x="443" y="263" on="1"/>
        <pt x="430" y="396" on="0"/>
        <pt x="415" y="662" on="1"/>
        <pt x="411" y="852" on="0"/>
        <pt x="396" y="959" on="1"/>
        <pt x="382" y="1060" on="0"/>
        <pt x="382" y="1041" on="1"/>
        <pt x="382" y="1061" on="0"/>
        <pt x="435" y="1168" on="1"/>
        <pt x="462" y="1168" on="0"/>
        <pt x="470" y="1156" on="1"/>
        <pt x="515" y="983" on="0"/>
        <pt x="515" y="878" on="1"/>
        <pt x="515" y="620" on="1"/>
        <pt x="515" y="321" on="0"/>
        <pt x="548" y="193" on="1"/>
        <pt x="574" y="94" on="0"/>
        <pt x="715" y="94" on="1"/>
        <pt x="818" y="94" on="0"/>
        <pt x="1046" y="319" on="0"/>
        <pt x="1083" y="319" on="1"/>
        <pt x="1096" y="319" on="0"/>
        <pt x="1129" y="285" on="1"/>
        <pt x="1175" y="239" on="0"/>
        <pt x="1189" y="229" on="1"/>
        <pt x="1229" y="197" on="0"/>
        <pt x="1268" y="188" on="1"/>
        <pt x="1413" y="156" on="0"/>
        <pt x="1431" y="156" on="1"/>
        <pt x="1560" y="156" on="0"/>
        <pt x="1654" y="198" on="1"/>
        <pt x="1678" y="209" on="0"/>
        <pt x="1757" y="307" on="1"/>
        <pt x="1767" y="313" on="0"/>
        <pt x="1788" y="329" on="1"/>
        <pt x="1823" y="329" on="1"/>
        <pt x="1836" y="316" on="0"/>
        <pt x="1836" y="294" on="1"/>
        <pt x="1836" y="250" on="0"/>
        <pt x="1744" y="88" on="1"/>
        <pt x="1739" y="83" on="0"/>
        <pt x="1748" y="74" on="1"/>
        <pt x="1797" y="158" on="0"/>
        <pt x="1957" y="244" on="1"/>
        <pt x="2115" y="329" on="0"/>
        <pt x="2219" y="329" on="1"/>
        <pt x="2265" y="329" on="0"/>
        <pt x="2368" y="238" on="0"/>
      </contour>
    </TTGlyph>
</ttFont>
